<svg xmlns="http://www.w3.org/2000/svg" fill="none" viewBox="0 0 296 192" height="192" width="296">
<path stroke-linejoin="round" stroke-linecap="round" stroke-width="4.50008" stroke="#ED5274" d="M46.0903 55.7896H55.3775C59.2016 66.3096 63.572 83.5925 87.0631 83.5925"></path>
<path stroke-linejoin="round" stroke-linecap="round" stroke-width="4.50008" stroke="#ED5274" d="M249.538 55.501H240.251C236.427 66.021 232.056 83.3039 208.565 83.3039"></path>
<path stroke-width="1.20475" stroke="#ED5274" fill="#ED5274" d="M161.835 182.602H161.859H161.882H161.906H161.93H161.954H161.978H162.002H162.026H162.049H162.073H162.097H162.121H162.145H162.169H162.192H162.216H162.24H162.264H162.288H162.312H162.336H162.359H162.383H162.407H162.431H162.455H162.479H162.502H162.526H162.55H162.574H162.598H162.622H162.646H162.669H162.693H162.717H162.741H162.765H162.789H162.812H162.836H162.86H162.884H162.908H162.932H162.956H162.979H163.003H163.027H163.051H163.075H163.099H163.122H163.146H163.17H163.194H163.218H163.242H163.266H163.289H163.313H163.337H163.361H163.385H163.409H163.432H163.456H163.48H163.504H163.528H163.552H163.576H163.599H163.623H163.647H163.671H163.695H163.719H163.742H163.766H163.79H163.814H163.838H163.862H163.886H163.909H163.933H163.957H163.981H164.005H164.029H164.052H164.076H164.1H164.124H164.148H164.172H164.196H164.219H164.243H164.267H164.291H164.315H164.339H164.362H164.386H164.41H164.434H164.458H164.482H164.506H164.529H164.553H164.577H164.601H164.625H164.649H164.672H164.696H164.72H164.744H164.768H164.792H164.816H164.839H164.863H164.887H164.911H164.935H164.959H164.982H165.006H165.03H165.054H165.078H165.102H165.126H165.149H165.173H165.197H165.221H165.245H165.269H165.292H165.316H165.34H165.364H165.388H165.412H165.436H165.459H165.483H165.507H165.531H165.555H165.579H165.602H165.626H165.65H165.674H165.698H165.722H165.746H165.769H165.793H165.817H165.841H165.865H165.889H165.912H165.936H165.96H165.984H166.008H166.032H166.056H166.079H166.103H166.127H166.151H166.175H166.199H166.222H166.246H166.27H166.294H166.318H166.342H166.366H166.389H166.413H166.437H166.461H166.485H166.509H166.532H166.556H166.58H166.604H166.628H166.652H166.676H166.699H166.723H166.747H166.771H166.795H166.819H166.842H166.866H166.89H166.914H166.938H166.962H166.986H167.009H167.033H167.057H167.081H167.105H167.129H167.152H167.176H167.2H167.224H167.248H167.272H167.296H167.319H167.343H167.367H167.391H167.415H167.439H167.462H167.486H167.51H167.534H167.558H167.582H167.606H167.629H167.653H167.677H167.701H167.725H167.749H167.772H167.796H167.82H167.844H167.868H167.892H167.916H167.939H167.963H167.987H168.011H168.035H168.059H168.082H168.106H168.13H168.154H168.178H168.202H168.226H168.249H168.273H168.297H168.321H168.345H168.369H168.392H168.416H168.44H168.464H168.488H168.512H168.535H168.559H168.583H168.607H168.631H168.655H168.679H168.702H168.726H168.75H168.774H168.798H168.822H168.845H168.869H168.893H168.917H168.941H168.965H168.989H169.012H169.036H169.06H169.084H169.108H169.132H169.155H169.179H169.203H169.227H169.251H169.275H169.299H169.322H169.346H169.37H169.394H169.418H169.442H169.465H169.489H169.513H169.537H169.561H169.585H169.609H169.632H169.656H169.68H169.704H169.728H169.752H169.775H169.799H169.823H169.847H169.871H169.895H169.919H169.942H169.966H169.99H170.014H170.038H170.062H170.085H170.109H170.133H170.157H170.181H170.205H170.229H170.252H170.276H170.3H170.324H170.348H170.372H170.395H170.419H170.443H170.467H170.491H170.515H170.539H170.562H170.586H170.61H170.634H170.658H170.682H170.705H170.729H170.753H170.777H170.801H170.825H170.849H170.872H170.896H170.92H170.944H170.968H170.992H171.015H171.039H171.063H171.087H171.111H171.135H171.159H171.182H171.206H171.23H171.254H171.278H171.302H171.325H171.349H171.373H171.397H171.421H171.445H171.469H171.492H171.516H171.54H171.564H171.588H171.612H171.635H171.659H171.683H171.707H171.731H171.755H171.779H171.802H171.826H171.85H171.874H171.898H171.922H171.945H171.969H171.993H172.017H172.041H172.065H172.089H172.112H172.136H172.16H172.184H172.208H172.232H172.255H172.279H172.303H172.327H172.351H172.375H172.399H172.422H172.446H172.47H172.494H172.518H172.542H172.565H172.589H172.613H172.637H172.661H172.685H172.709H172.732H172.756H172.78H172.804H172.828H172.852H172.875H172.899H172.923H172.947H172.971H172.995H173.019H173.042H173.066H173.09H173.114H173.138H173.162H173.185H173.209H173.233H173.257H173.281H173.305H173.329H173.352H173.376H173.4H173.424H173.448H173.472H173.495H173.519H173.543H173.567H173.591H173.615H173.639H173.662H173.686H173.71H173.734H173.758H173.782H173.805H173.829H173.853H173.877H173.901H173.925H173.949H173.972H173.996H174.02H174.044C174.494 182.602 174.872 182.419 175.128 182.119C175.373 181.832 175.481 181.47 175.481 181.13C175.481 180.791 175.373 180.429 175.128 180.141C174.872 179.841 174.494 179.658 174.044 179.658H174.02H173.996H173.972H173.949H173.925H173.901H173.877H173.853H173.829H173.805H173.782H173.758H173.734H173.71H173.686H173.662H173.639H173.615H173.591H173.567H173.543H173.519H173.495H173.472H173.448H173.424H173.4H173.376H173.352H173.329H173.305H173.281H173.257H173.233H173.209H173.185H173.162H173.138H173.114H173.09H173.066H173.042H173.019H172.995H172.971H172.947H172.923H172.899H172.875H172.852H172.828H172.804H172.78H172.756H172.732H172.709H172.685H172.661H172.637H172.613H172.589H172.565H172.542H172.518H172.494H172.47H172.446H172.422H172.399H172.375H172.351H172.327H172.303H172.279H172.255H172.232H172.208H172.184H172.16H172.136H172.112H172.089H172.065H172.041H172.017H171.993H171.969H171.945H171.922H171.898H171.874H171.85H171.826H171.802H171.779H171.755H171.731H171.707H171.683H171.659H171.635H171.612H171.588H171.564H171.54H171.516H171.492H171.469H171.445H171.421H171.397H171.373H171.349H171.325H171.302H171.278H171.254H171.23H171.206H171.182H171.159H171.135H171.111H171.087H171.063H171.039H171.015H170.992H170.968H170.944H170.92H170.896H170.872H170.849H170.825H170.801H170.777H170.753H170.729H170.705H170.682H170.658H170.634H170.61H170.586H170.562H170.539H170.515H170.491H170.467H170.443H170.419H170.395H170.372H170.348H170.324H170.3H170.276H170.252H170.229H170.205H170.181H170.157H170.133H170.109H170.085H170.062H170.038H170.014H169.99H169.966H169.942H169.919H169.895H169.871H169.847H169.823H169.799H169.775H169.752H169.728H169.704H169.68H169.656H169.632H169.609H169.585H169.561H169.537H169.513H169.489H169.465H169.442H169.418H169.394H169.37H169.346H169.322H169.299H169.275H169.251H169.227H169.203H169.179H169.155H169.132H169.108H169.084H169.06H169.036H169.012H168.989H168.965H168.941H168.917H168.893H168.869H168.845H168.822H168.798H168.774H168.75H168.726H168.702H168.679H168.655H168.631H168.607H168.583H168.559H168.535H168.512H168.488H168.464H168.44H168.416H168.392H168.369H168.345H168.321H168.297H168.273H168.249H168.226H168.202H168.178H168.154H168.13H168.106H168.082H168.059H168.035H168.011H167.987H167.963H167.939H167.916H167.892H167.868H167.844H167.82H167.796H167.772H167.749H167.725H167.701H167.677H167.653H167.629H167.606H167.582H167.558H167.534H167.51H167.486H167.462H167.439H167.415H167.391H167.367H167.343H167.319H167.296H167.272H167.248H167.224H167.2H167.176H167.152H167.129H167.105H167.081H167.057H167.033H167.009H166.986H166.962H166.938H166.914H166.89H166.866H166.842H166.819H166.795H166.771H166.747H166.723H166.699H166.676H166.652H166.628H166.604H166.58H166.556H166.532H166.509H166.485H166.461H166.437H166.413H166.389H166.366H166.342H166.318H166.294H166.27H166.246H166.222H166.199H166.175H166.151H166.127H166.103H166.079H166.056H166.032H166.008H165.984H165.96H165.936H165.912H165.889H165.865H165.841H165.817H165.793H165.769H165.746H165.722H165.698H165.674H165.65H165.626H165.602H165.579H165.555H165.531H165.507H165.483H165.459H165.436H165.412H165.388H165.364H165.34H165.316H165.292H165.269H165.245H165.221H165.197H165.173H165.149H165.126H165.102H165.078H165.054H165.03H165.006H164.982H164.959H164.935H164.911H164.887H164.863H164.839H164.816H164.792H164.768H164.744H164.72H164.696H164.672H164.649H164.625H164.601H164.577H164.553H164.529H164.506H164.482H164.458H164.434H164.41H164.386H164.362H164.339H164.315H164.291H164.267H164.243H164.219H164.196H164.172H164.148H164.124H164.1H164.076H164.052H164.029H164.005H163.981H163.957H163.933H163.909H163.886H163.862H163.838H163.814H163.79H163.766H163.742H163.719H163.695H163.671H163.647H163.623H163.599H163.576H163.552H163.528H163.504H163.48H163.456H163.432H163.409H163.385H163.361H163.337H163.313H163.289H163.266H163.242H163.218H163.194H163.17H163.146H163.122H163.099H163.075H163.051H163.027H163.003H162.979H162.956H162.932H162.908H162.884H162.86H162.836H162.812H162.789H162.765H162.741H162.717H162.693H162.669H162.646H162.622H162.598H162.574H162.55H162.526H162.502H162.479H162.455H162.431H162.407H162.383H162.359H162.336H162.312H162.288H162.264H162.24H162.216H162.192H162.169H162.145H162.121H162.097H162.073H162.049H162.026H162.002H161.978H161.954H161.93H161.906H161.882H161.859H161.835C161.384 179.658 161.007 179.841 160.75 180.141C160.505 180.429 160.398 180.791 160.398 181.13C160.398 181.47 160.505 181.832 160.75 182.119C161.007 182.419 161.384 182.602 161.835 182.602Z"></path>
<path stroke-width="1.20475" stroke="#ED5274" fill="#ED5274" d="M133.289 179.658H133.265H133.241H133.217H133.194H133.17H133.146H133.122H133.098H133.074H133.051H133.027H133.003H132.979H132.955H132.931H132.907H132.884H132.86H132.836H132.812H132.788H132.764H132.741H132.717H132.693H132.669H132.645H132.621H132.597H132.574H132.55H132.526H132.502H132.478H132.454H132.431H132.407H132.383H132.359H132.335H132.311H132.287H132.264H132.24H132.216H132.192H132.168H132.144H132.121H132.097H132.073H132.049H132.025H132.001H131.977H131.954H131.93H131.906H131.882H131.858H131.834H131.811H131.787H131.763H131.739H131.715H131.691H131.667H131.644H131.62H131.596H131.572H131.548H131.524H131.501H131.477H131.453H131.429H131.405H131.381H131.357H131.334H131.31H131.286H131.262H131.238H131.214H131.191H131.167H131.143H131.119H131.095H131.071H131.047H131.024H131H130.976H130.952H130.928H130.904H130.881H130.857H130.833H130.809H130.785H130.761H130.737H130.714H130.69H130.666H130.642H130.618H130.594H130.571H130.547H130.523H130.499H130.475H130.451H130.427H130.404H130.38H130.356H130.332H130.308H130.284H130.261H130.237H130.213H130.189H130.165H130.141H130.118H130.094H130.07H130.046H130.022H129.998H129.974H129.951H129.927H129.903H129.879H129.855H129.831H129.808H129.784H129.76H129.736H129.712H129.688H129.664H129.641H129.617H129.593H129.569H129.545H129.521H129.498H129.474H129.45H129.426H129.402H129.378H129.354H129.331H129.307H129.283H129.259H129.235H129.211H129.188H129.164H129.14H129.116H129.092H129.068H129.044H129.021H128.997H128.973H128.949H128.925H128.901H128.878H128.854H128.83H128.806H128.782H128.758H128.734H128.711H128.687H128.663H128.639H128.615H128.591H128.568H128.544H128.52H128.496H128.472H128.448H128.424H128.401H128.377H128.353H128.329H128.305H128.281H128.258H128.234H128.21H128.186H128.162H128.138H128.114H128.091H128.067H128.043H128.019H127.995H127.971H127.948H127.924H127.9H127.876H127.852H127.828H127.804H127.781H127.757H127.733H127.709H127.685H127.661H127.638H127.614H127.59H127.566H127.542H127.518H127.494H127.471H127.447H127.423H127.399H127.375H127.351H127.328H127.304H127.28H127.256H127.232H127.208H127.184H127.161H127.137H127.113H127.089H127.065H127.041H127.018H126.994H126.97H126.946H126.922H126.898H126.874H126.851H126.827H126.803H126.779H126.755H126.731H126.708H126.684H126.66H126.636H126.612H126.588H126.564H126.541H126.517H126.493H126.469H126.445H126.421H126.398H126.374H126.35H126.326H126.302H126.278H126.254H126.231H126.207H126.183H126.159H126.135H126.111H126.088H126.064H126.04H126.016H125.992H125.968H125.944H125.921H125.897H125.873H125.849H125.825H125.801H125.778H125.754H125.73H125.706H125.682H125.658H125.634H125.611H125.587H125.563H125.539H125.515H125.491H125.468H125.444H125.42H125.396H125.372H125.348H125.324H125.301H125.277H125.253H125.229H125.205H125.181H125.158H125.134H125.11H125.086H125.062H125.038H125.014H124.991H124.967H124.943H124.919H124.895H124.871H124.848H124.824H124.8H124.776H124.752H124.728H124.704H124.681H124.657H124.633H124.609H124.585H124.561H124.538H124.514H124.49H124.466H124.442H124.418H124.394H124.371H124.347H124.323H124.299H124.275H124.251H124.228H124.204H124.18H124.156H124.132H124.108H124.085H124.061H124.037H124.013H123.989H123.965H123.941H123.918H123.894H123.87H123.846H123.822H123.798H123.775H123.751H123.727H123.703H123.679H123.655H123.631H123.608H123.584H123.56H123.536H123.512H123.488H123.465H123.441H123.417H123.393H123.369H123.345H123.321H123.298H123.274H123.25H123.226H123.202H123.178H123.155H123.131H123.107H123.083H123.059H123.035H123.011H122.988H122.964H122.94H122.916H122.892H122.868H122.845H122.821H122.797H122.773H122.749H122.725H122.701H122.678H122.654H122.63H122.606H122.582H122.558H122.535H122.511H122.487H122.463H122.439H122.415H122.391H122.368H122.344H122.32H122.296H122.272H122.248H122.225H122.201H122.177H122.153H122.129H122.105H122.081H122.058H122.034H122.01H121.986H121.962H121.938H121.915H121.891H121.867H121.843H121.819H121.795H121.771H121.748H121.724H121.7H121.676H121.652H121.628H121.605H121.581H121.557H121.533H121.509H121.485H121.461H121.438H121.414H121.39H121.366H121.342H121.318H121.295H121.271H121.247H121.223H121.199H121.175H121.151H121.128H121.104H121.08C120.629 179.658 120.252 179.841 119.996 180.141C119.75 180.429 119.643 180.791 119.643 181.13C119.643 181.47 119.75 181.832 119.996 182.119C120.252 182.419 120.629 182.602 121.08 182.602H121.104H121.128H121.151H121.175H121.199H121.223H121.247H121.271H121.295H121.318H121.342H121.366H121.39H121.414H121.438H121.461H121.485H121.509H121.533H121.557H121.581H121.605H121.628H121.652H121.676H121.7H121.724H121.748H121.771H121.795H121.819H121.843H121.867H121.891H121.915H121.938H121.962H121.986H122.01H122.034H122.058H122.081H122.105H122.129H122.153H122.177H122.201H122.225H122.248H122.272H122.296H122.32H122.344H122.368H122.391H122.415H122.439H122.463H122.487H122.511H122.535H122.558H122.582H122.606H122.63H122.654H122.678H122.701H122.725H122.749H122.773H122.797H122.821H122.845H122.868H122.892H122.916H122.94H122.964H122.988H123.011H123.035H123.059H123.083H123.107H123.131H123.155H123.178H123.202H123.226H123.25H123.274H123.298H123.321H123.345H123.369H123.393H123.417H123.441H123.465H123.488H123.512H123.536H123.56H123.584H123.608H123.631H123.655H123.679H123.703H123.727H123.751H123.775H123.798H123.822H123.846H123.87H123.894H123.918H123.941H123.965H123.989H124.013H124.037H124.061H124.085H124.108H124.132H124.156H124.18H124.204H124.228H124.251H124.275H124.299H124.323H124.347H124.371H124.394H124.418H124.442H124.466H124.49H124.514H124.538H124.561H124.585H124.609H124.633H124.657H124.681H124.704H124.728H124.752H124.776H124.8H124.824H124.848H124.871H124.895H124.919H124.943H124.967H124.991H125.014H125.038H125.062H125.086H125.11H125.134H125.158H125.181H125.205H125.229H125.253H125.277H125.301H125.324H125.348H125.372H125.396H125.42H125.444H125.468H125.491H125.515H125.539H125.563H125.587H125.611H125.634H125.658H125.682H125.706H125.73H125.754H125.778H125.801H125.825H125.849H125.873H125.897H125.921H125.944H125.968H125.992H126.016H126.04H126.064H126.088H126.111H126.135H126.159H126.183H126.207H126.231H126.254H126.278H126.302H126.326H126.35H126.374H126.398H126.421H126.445H126.469H126.493H126.517H126.541H126.564H126.588H126.612H126.636H126.66H126.684H126.708H126.731H126.755H126.779H126.803H126.827H126.851H126.874H126.898H126.922H126.946H126.97H126.994H127.018H127.041H127.065H127.089H127.113H127.137H127.161H127.184H127.208H127.232H127.256H127.28H127.304H127.328H127.351H127.375H127.399H127.423H127.447H127.471H127.494H127.518H127.542H127.566H127.59H127.614H127.638H127.661H127.685H127.709H127.733H127.757H127.781H127.804H127.828H127.852H127.876H127.9H127.924H127.948H127.971H127.995H128.019H128.043H128.067H128.091H128.114H128.138H128.162H128.186H128.21H128.234H128.258H128.281H128.305H128.329H128.353H128.377H128.401H128.424H128.448H128.472H128.496H128.52H128.544H128.568H128.591H128.615H128.639H128.663H128.687H128.711H128.734H128.758H128.782H128.806H128.83H128.854H128.878H128.901H128.925H128.949H128.973H128.997H129.021H129.044H129.068H129.092H129.116H129.14H129.164H129.188H129.211H129.235H129.259H129.283H129.307H129.331H129.354H129.378H129.402H129.426H129.45H129.474H129.498H129.521H129.545H129.569H129.593H129.617H129.641H129.664H129.688H129.712H129.736H129.76H129.784H129.808H129.831H129.855H129.879H129.903H129.927H129.951H129.974H129.998H130.022H130.046H130.07H130.094H130.118H130.141H130.165H130.189H130.213H130.237H130.261H130.284H130.308H130.332H130.356H130.38H130.404H130.427H130.451H130.475H130.499H130.523H130.547H130.571H130.594H130.618H130.642H130.666H130.69H130.714H130.737H130.761H130.785H130.809H130.833H130.857H130.881H130.904H130.928H130.952H130.976H131H131.024H131.047H131.071H131.095H131.119H131.143H131.167H131.191H131.214H131.238H131.262H131.286H131.31H131.334H131.357H131.381H131.405H131.429H131.453H131.477H131.501H131.524H131.548H131.572H131.596H131.62H131.644H131.667H131.691H131.715H131.739H131.763H131.787H131.811H131.834H131.858H131.882H131.906H131.93H131.954H131.977H132.001H132.025H132.049H132.073H132.097H132.121H132.144H132.168H132.192H132.216H132.24H132.264H132.287H132.311H132.335H132.359H132.383H132.407H132.431H132.454H132.478H132.502H132.526H132.55H132.574H132.597H132.621H132.645H132.669H132.693H132.717H132.741H132.764H132.788H132.812H132.836H132.86H132.884H132.907H132.931H132.955H132.979H133.003H133.027H133.051H133.074H133.098H133.122H133.146H133.17H133.194H133.217H133.241H133.265H133.289C133.742 182.602 134.124 182.425 134.387 182.126C134.639 181.839 134.752 181.474 134.752 181.13C134.752 180.786 134.639 180.422 134.387 180.135C134.124 179.836 133.742 179.658 133.289 179.658Z"></path>
<path fill="#FF8BA5" d="M208.527 72.1193C209.014 70.3105 209.292 68.4322 209.292 66.4495C209.292 55.3535 200.909 46.3793 190.544 46.3793C187.552 46.3793 184.77 47.1098 182.265 48.4316C180.387 39.4574 172.909 32.7441 163.969 32.7441C157.534 32.7441 151.83 36.2225 148.456 41.5096C145.047 36.6747 139.621 33.5442 133.499 33.5442C124.559 33.5442 117.046 40.2574 115.202 49.2316C112.698 47.9098 109.881 47.1794 106.924 47.1794C96.5584 47.1794 88.1755 56.1535 88.1755 67.2495C88.1755 68.9192 88.3842 70.554 88.7321 72.1193C79.0274 72.8845 71.375 81.5456 71.375 92.1199C71.375 103.216 79.7579 112.19 90.1234 112.19H207.344C217.71 112.19 226.093 103.216 226.093 92.1199C226.058 81.4761 218.301 72.7801 208.527 72.1193Z"></path>
<path fill="#161616" d="M139.117 89.5859C139.256 90.2816 139.569 90.9425 139.917 91.5338C140.787 92.9599 142.074 94.0034 143.604 94.6295C145.726 95.4991 148.37 95.5687 150.561 94.9426C152.3 94.4556 153.761 93.4469 154.839 91.986C155.361 91.2903 155.813 90.4555 155.987 89.5859C156.231 88.5076 154.561 88.0206 154.318 89.1337C154.283 89.3076 154.213 89.4468 154.178 89.6207C154.144 89.6903 154.109 89.7598 154.074 89.8642C154.074 89.8642 154.178 89.6903 154.074 89.8294C154.039 89.8642 154.039 89.9337 154.004 89.9685C153.9 90.1772 153.796 90.4207 153.657 90.5946C153.587 90.7338 153.518 90.8381 153.413 90.9425C153.378 91.012 153.344 91.0468 153.309 91.1164C153.239 91.2207 153.378 91.012 153.239 91.2207C153.031 91.4642 152.787 91.7077 152.544 91.9512C152.474 92.0208 152.439 92.0555 152.37 92.0903C152.335 92.1251 152.126 92.2642 152.265 92.1947C152.091 92.299 151.952 92.4382 151.778 92.5425C151.465 92.7512 151.048 92.9599 150.77 93.0643C148.891 93.7947 146.665 93.8295 144.752 93.2382C144.056 93.0295 143.291 92.6469 142.735 92.2295C142.561 92.0903 142.248 91.8121 142.039 91.5686C141.935 91.4642 141.83 91.3251 141.726 91.1859C141.83 91.2903 141.761 91.2207 141.691 91.1512C141.656 91.0816 141.587 91.012 141.552 90.9425C141.378 90.699 141.239 90.4555 141.135 90.212C141.065 90.1077 141.03 90.0033 140.995 89.8642C140.995 89.8642 141.065 90.0381 140.995 89.8642C140.995 89.8294 140.961 89.7946 140.961 89.725C140.891 89.5163 140.821 89.3424 140.787 89.1337C140.682 88.6815 140.126 88.4033 139.708 88.5424C139.221 88.6467 139.013 89.1337 139.117 89.5859Z"></path>
<path fill="#ED5274" d="M116.351 104.119C120.616 104.119 124.073 100.662 124.073 96.3973C124.073 92.1325 120.616 88.6753 116.351 88.6753C112.086 88.6753 108.629 92.1325 108.629 96.3973C108.629 100.662 112.086 104.119 116.351 104.119Z"></path>
<path fill="#ED5274" d="M179.238 104.119C183.502 104.119 186.96 100.662 186.96 96.3973C186.96 92.1325 183.502 88.6753 179.238 88.6753C174.973 88.6753 171.516 92.1325 171.516 96.3973C171.516 100.662 174.973 104.119 179.238 104.119Z"></path>
<path fill="#161616" d="M127.306 93.162C132.281 93.162 136.315 89.1285 136.315 84.153C136.315 79.1775 132.281 75.144 127.306 75.144C122.33 75.144 118.297 79.1775 118.297 84.153C118.297 89.1285 122.33 93.162 127.306 93.162Z"></path>
<path fill="#161616" d="M167.482 93.162C172.458 93.162 176.491 89.1285 176.491 84.153C176.491 79.1775 172.458 75.144 167.482 75.144C162.507 75.144 158.473 79.1775 158.473 84.153C158.473 89.1285 162.507 93.162 167.482 93.162Z"></path>
<path fill="#ED5274" d="M116.945 68.3468C116.553 67.449 116.989 66.4003 117.887 66.0086L123.172 63.7997C124.07 63.408 125.118 63.844 125.51 64.7417C125.902 65.6395 125.466 66.6882 124.568 67.0799L119.283 69.2888C118.375 69.6473 117.303 69.255 116.945 68.3468Z"></path>
<path fill="#ED5274" d="M176.909 68.1451C177.301 67.2473 176.865 66.1987 175.967 65.807L170.681 63.598C169.784 63.2063 168.735 63.6423 168.343 64.5401C167.952 65.4379 168.388 66.4865 169.285 66.8782L174.571 69.0872C175.479 69.4457 176.55 69.0533 176.909 68.1451Z"></path>
<circle fill="white" transform="rotate(-6.12615 127.162 83.8047)" r="11.3261" cy="83.8047" cx="127.162"></circle>
<circle fill="#111111" transform="rotate(-6.12615 127.161 83.8054)" r="9.06089" cy="83.8054" cx="127.161"></circle>
<circle fill="white" transform="rotate(-6.12615 122.253 80.5345)" r="3.77537" cy="80.5345" cx="122.253"></circle>
<circle fill="white" transform="rotate(-6.12615 132.982 88.4969)" r="2.26522" cy="88.4969" cx="132.982"></circle>
<circle fill="white" transform="rotate(-6.12615 167.47 83.8047)" r="11.3261" cy="83.8047" cx="167.47"></circle>
<circle fill="#111111" transform="rotate(-6.12615 167.469 83.8054)" r="9.06089" cy="83.8054" cx="167.469"></circle>
<circle fill="white" transform="rotate(-6.12615 162.561 80.5345)" r="3.77537" cy="80.5345" cx="162.561"></circle>
<circle fill="white" transform="rotate(-6.12615 173.291 88.4969)" r="2.26522" cy="88.4969" cx="173.291"></circle>
<circle fill="#FFD913" r="18.0003" cy="18.0003" cx="209.594"></circle>
<path fill="#FFD913" d="M190.606 36.4757L195.343 27.0005L203.594 33.0006L192.618 38.4882C191.329 39.1329 189.961 37.7651 190.606 36.4757Z"></path>
<path fill="white" d="M209.445 11.1947C210.873 11.1947 212.015 11.5867 212.869 12.3708C213.737 13.1548 214.171 14.2258 214.171 15.5838C214.171 16.9978 213.723 18.0619 212.827 18.7759C211.931 19.4899 210.74 19.8469 209.256 19.8469L209.172 21.5059H207.093L206.988 18.2089H207.681C209.039 18.2089 210.075 18.0269 210.789 17.6628C211.518 17.2988 211.882 16.6058 211.882 15.5838C211.882 14.8418 211.665 14.2608 211.23 13.8408C210.81 13.4208 210.222 13.2108 209.466 13.2108C208.71 13.2108 208.115 13.4138 207.681 13.8198C207.247 14.2258 207.03 14.7928 207.03 15.5208H204.783C204.783 14.6808 204.972 13.9318 205.35 13.2738C205.728 12.6158 206.267 12.1047 206.967 11.7407C207.681 11.3767 208.507 11.1947 209.445 11.1947ZM208.101 26.147C207.667 26.147 207.303 26 207.009 25.706C206.715 25.412 206.568 25.048 206.568 24.614C206.568 24.18 206.715 23.816 207.009 23.522C207.303 23.2279 207.667 23.0809 208.101 23.0809C208.521 23.0809 208.878 23.2279 209.172 23.522C209.466 23.816 209.613 24.18 209.613 24.614C209.613 25.048 209.466 25.412 209.172 25.706C208.878 26 208.521 26.147 208.101 26.147Z"></path>
<rect fill="#ED5274" height="69" width="4" y="112" x="160"></rect>
<rect fill="#ED5274" height="69" width="4" y="112" x="131"></rect>
</svg>
