<svg width="101" height="66" viewBox="0 0 101 66" fill="none" xmlns="http://www.w3.org/2000/svg">
<path d="M14.7782 3.63604C16.466 1.94821 18.7552 1 21.1421 1H99C99.5523 1 100 1.44772 100 2V64C100 64.5523 99.5523 65 99 65H2C1.44772 65 1 64.5523 1 64V21.1421C1 18.7552 1.94821 16.466 3.63604 14.7782L14.7782 3.63604Z" stroke="#FFD400" stroke-width="2"/>
<path d="M3.63604 14.7782L14.7782 3.63604C16.466 1.94821 18.7552 1 21.1421 1H26.3112C20.5402 1 15.7503 5.45992 15.3391 11.2163L15.126 14.1998C15.0906 14.6959 14.6959 15.0906 14.1998 15.126L11.2163 15.3391C5.45992 15.7503 1 20.5402 1 26.3112V21.1421C1 18.7552 1.94821 16.466 3.63604 14.7782Z" stroke="#FFD400" stroke-width="2"/>
</svg>
