<svg width="76" height="25" viewBox="0 0 76 25" fill="none" xmlns="http://www.w3.org/2000/svg">
<path d="M66.3488 0.905257L66.5868 1.03484L66.5539 1.10444L56.4121 22.4478C55.7538 23.7907 54.7206 24.5 53.4237 24.5C52.1713 24.5 51.1218 23.7887 50.389 22.4435L40.2941 1.03524L40.5354 0.90212C41.2573 0.485126 42.1293 0.387299 42.927 0.63275C43.7522 0.88722 44.4165 1.46968 44.7968 2.27269C47.3996 7.56461 52.0022 17.4319 53.3511 20.3301L53.4171 20.4726L62.0204 2.3417C62.4223 1.50889 63.1092 0.905845 63.9538 0.643925C64.762 0.395533 65.612 0.488263 66.3488 0.905257ZM0.666016 4.08309C0.666016 2.13399 2.142 0.548352 3.95605 0.548352H4.20092V20.9334C4.20092 22.8308 2.6944 24.4334 0.911088 24.4334H0.666016V4.08309ZM9.1977 12.5531L23.5903 22.8624C23.0552 23.6378 22.2101 24.1956 21.3022 24.3647C20.5053 24.5128 19.7306 24.3483 19.1227 23.9005L6.25128 14.4161C5.66438 13.9836 5.32473 13.3151 5.32036 12.5821C5.316 11.8489 5.64733 11.176 6.22947 10.7363L18.8392 1.20347C19.3753 0.79843 20.012 0.586699 20.6747 0.586699C20.8559 0.586699 21.0385 0.602775 21.2219 0.63473C22.113 0.789804 22.9213 1.31286 23.4601 2.07882C19.8772 4.79232 9.47529 12.3509 9.3702 12.428L9.1977 12.5531ZM33.6988 0.548391H33.9435V20.9334C33.9435 22.8306 32.437 24.4333 30.6539 24.4333H30.4086V4.08313C30.4086 2.13403 31.8846 0.548391 33.6988 0.548391ZM75.088 0.548391H75.3327V20.9334C75.3327 22.8306 73.8262 24.4333 72.043 24.4333H71.798V4.08313C71.798 2.13403 73.274 0.548391 75.088 0.548391Z" fill="white" fill-opacity="0.8"/>
</svg>
