<svg width="57" height="55" viewBox="0 0 57 55" fill="none" xmlns="http://www.w3.org/2000/svg">
<g opacity="0.2">
<path d="M10.3907 37.6213C6.90238 38.7414 2.96366 36.1897 1.59432 31.9225C-0.184067 26.3828 1.00852 20.3813 4.49756 19.2619C7.98593 18.1417 12.5782 22.7306 14.2272 27.8673C15.5965 32.1345 13.8798 36.5012 10.3907 37.6213Z" fill="white"/>
<path d="M42.051 50.7701C36.94 51.6328 34.5656 49.7346 31.2879 50.2872C28.0095 50.8405 26.3902 53.4126 21.2792 54.2747C14.5883 55.4029 8.2224 47.9345 13.3632 41.419C19.7521 33.3228 20.4496 24.3774 26.7376 23.3169C33.0263 22.2564 36.6196 30.4771 45.3111 36.0297C52.3048 40.498 48.7412 49.6418 42.051 50.7701Z" fill="white"/>
<path d="M26.5006 11.9139C26.0604 6.53746 28.5499 0.54134 32.2007 0.24201C35.853 -0.0566473 39.2493 5.03267 39.724 10.831C40.0897 15.298 37.4262 19.1615 33.7746 19.4602C30.123 19.7595 26.8663 16.3809 26.5006 11.9139Z" fill="white"/>
<path d="M10.3735 15.7825C8.92023 10.1494 10.4589 4.22708 14.0068 3.31216C17.5541 2.39655 21.8728 7.2441 23.2204 12.4675C24.3406 16.8071 22.3725 21.0669 18.8253 21.9825C15.2773 22.8981 11.4937 20.1221 10.3735 15.7825Z" fill="white"/>
<path d="M46.8724 31.4664C43.2093 31.5531 40.1544 27.9909 40.0481 23.5104C39.9208 18.1177 42.7542 12.276 46.4167 12.19C50.0797 12.1033 53.1753 17.3809 53.3128 23.1969C53.4184 27.6774 50.5348 31.3798 46.8724 31.4664Z" fill="white"/>
</g>
</svg>
