<?xml version="1.0" encoding="UTF-8"?>
<svg id="Layer_2" data-name="Layer 2" xmlns="http://www.w3.org/2000/svg" viewBox="0 0 88.22 87.88">
  <g id="Layer_1-2" data-name="Layer 1">
    <path d="M44.09,0C19.63,0,0,19.82,0,43.94s19.63,43.94,44.09,43.94,44.12-19.82,44.12-43.94S68.56,0,44.09,0ZM44.09,3.84c21.92,0,39.88,17.82,39.88,40.09s-17.95,40.09-39.88,40.09S4.16,66.21,4.16,43.94,22.17,3.84,44.09,3.84ZM25.12,37.97c-1.1,0-2,.91-1.99,2.01,0,.64.31,1.24.83,1.61l18.91,14.66c.72.55,1.72.55,2.44,0l18.91-14.66c.88-.67,1.05-1.93.38-2.81s-1.93-1.05-2.81-.38h0l-17.69,13.75-17.69-13.75c-.36-.29-.82-.45-1.28-.44Z" fill='#008cff'/>
  </g>
</svg>