<svg xmlns="http://www.w3.org/2000/svg" fill="none" viewBox="0 0 41 40" height="40" width="41">
<path fill="#FF8833" d="M23.1069 19.9998L32.5349 29.4279C33.1858 30.0788 33.1858 31.1341 32.5349 31.7849C31.8841 32.4358 30.8288 32.4358 30.1779 31.7849L20.7498 22.3569L11.3217 31.7849C10.6709 32.4358 9.61559 32.4358 8.96472 31.7849C8.31384 31.1341 8.31384 30.0788 8.96472 29.4279L18.3928 19.9998L8.96472 10.5717C8.31384 9.92087 8.31384 8.86559 8.96472 8.21472C9.61559 7.56384 10.6709 7.56384 11.3217 8.21472L20.7498 17.6428L30.1779 8.21472C30.8288 7.56384 31.8841 7.56384 32.5349 8.21472C33.1858 8.86559 33.1858 9.92087 32.5349 10.5717L23.1069 19.9998Z" clip-rule="evenodd" fill-rule="evenodd"></path>
</svg>
