<svg width="54" height="55" viewBox="0 0 54 55" fill="none" xmlns="http://www.w3.org/2000/svg">
<rect x="0.75" y="1" width="52.5" height="52.5" rx="26.25" stroke="#FF1A26" stroke-width="1.5"/>
<path fill-rule="evenodd" clip-rule="evenodd" d="M28.0263 30.1552L33.8938 24.2876L32.8332 23.227L26.9656 29.0945L28.0263 30.1552ZM23.7836 30.1552L14.2716 39.6672L15.3323 40.7279L24.8443 31.2158L25.9049 32.2765L15.8626 42.3189C15.5697 42.6118 15.0948 42.6118 14.8019 42.3189L12.6806 40.1975C12.3877 39.9046 12.3877 39.4298 12.6806 39.1369L22.723 29.0945L23.7836 30.1552ZM25.9049 28.0339L31.7725 22.1663L30.7118 21.1057L24.8443 26.9732L25.9049 28.0339ZM32.3027 9.96851L25.9387 16.3325L38.6667 29.0604L45.0306 22.6964L40.2577 17.9235L41.3182 16.863C41.6111 16.5701 41.6111 16.0952 41.3182 15.8023L39.1969 13.681C38.904 13.3881 38.4292 13.3881 38.1363 13.681L37.0757 14.7415L32.3027 9.96851ZM39.7273 16.3326L39.197 16.8628L38.1364 15.8022L38.6666 15.272L39.7273 16.3326Z" fill="#FF1A26"/>
<path d="M7.9082 8.15796L46.092 46.3417" stroke="#FF1A26" stroke-width="3"/>
</svg>
