<svg width="54" height="55" viewBox="0 0 54 55" fill="none" xmlns="http://www.w3.org/2000/svg">
<rect x="0.75" y="1" width="52.5" height="52.5" rx="26.25" stroke="#FF1A26" stroke-width="1.5"/>
<path fill-rule="evenodd" clip-rule="evenodd" d="M33.8754 36.2538C34.246 35.5973 34.5776 34.8914 34.8526 34.1441C36.0384 30.9191 35.9239 27.3302 34.7692 24.1224C33.6167 20.9201 31.4253 18.0882 28.453 16.3669C25.0725 14.4101 21.6182 13.9616 18.3991 14.7194C16.912 15.0695 15.4797 15.6769 14.1327 16.5112L15.6023 17.9807C16.6431 17.3853 17.734 16.9466 18.8571 16.6823C21.591 16.0385 24.5404 16.428 27.444 18.109C29.9948 19.586 31.8803 22.0303 32.8776 24.8004C33.877 27.5786 33.9801 30.6773 32.9609 33.4505C32.792 33.909 32.5994 34.3485 32.3882 34.7667L33.8754 36.2538ZM30.6866 33.065C30.8068 32.7809 30.9131 32.4926 31.0057 32.2012C31.4878 30.6824 31.597 29.0868 31.3628 27.5563C31.1285 26.0213 30.5507 24.5399 29.6596 23.2537C28.1988 21.1438 26.0366 19.7549 23.5524 19.2537C21.4412 18.8282 19.4035 19.1258 17.5496 19.928L19.1106 21.489C20.3963 21.0651 21.763 20.9435 23.1579 21.2247C25.1214 21.62 26.8516 22.7323 28.0042 24.3969C28.7163 25.4248 29.1796 26.6159 29.3681 27.856C29.5535 29.0673 29.4775 30.3167 29.1197 31.4982L30.6866 33.065ZM27.6308 34.2519L29.0581 35.6792C28.5041 36.3193 27.8515 36.9094 27.0963 37.4321C26.6392 37.7478 26.0126 37.633 25.6972 37.1757C25.3817 36.7186 25.4962 36.0921 25.9533 35.7764C26.6072 35.3238 27.165 34.8098 27.6308 34.2519ZM25.7873 32.4084C25.5233 32.6848 25.234 32.9512 24.9246 33.2085C23.8378 34.113 23.2933 34.9728 23.1069 35.7478C22.8913 36.6414 23.1631 37.4618 23.6086 38.1017C24.4145 39.2599 25.492 39.9272 26.8798 39.7241C28.3614 39.5073 29.7 38.4276 30.6838 37.3049L32.1085 38.7296C30.8412 40.1476 29.1893 41.3748 27.2994 41.6956C25.0902 42.0699 23.2172 41.0704 21.9523 39.2525C21.2204 38.2008 20.7801 36.8253 21.1517 35.2826C21.4328 34.1135 22.1834 32.8753 23.64 31.6634C23.905 31.4428 24.1489 31.2173 24.3655 30.9866L25.7873 32.4084ZM27.3295 29.7079C27.5928 28.5011 27.3592 27.1944 26.4187 25.7708C25.6669 24.6336 24.4811 23.78 22.957 23.5721C22.4202 23.499 21.845 23.5077 21.2368 23.6153L23.3659 25.7443C23.9435 25.9749 24.4093 26.3828 24.7393 26.8821C24.8655 27.0732 24.9724 27.259 25.0612 27.4396L27.3295 29.7079ZM19.7027 26.3238L18.2358 24.8569C15.671 26.4614 14.1744 28.5153 13.3876 30.8635C12.5761 33.2853 12.5431 35.9773 12.8733 38.7873C12.9363 39.3401 13.4359 39.7372 13.9888 39.6742C14.5417 39.6112 14.9387 39.1115 14.8757 38.5588C14.5754 36.006 14.5941 33.5946 15.2956 31.502C15.9753 29.4703 17.3246 27.697 19.6973 26.327C19.6991 26.3259 19.7009 26.3249 19.7027 26.3238ZM16.3261 22.9472L14.887 21.5081C14.8196 21.5599 14.7525 21.6123 14.6859 21.6654C12.2388 23.6144 10.3461 26.4558 9.41198 29.4002C9.25831 29.8846 9.1268 30.3947 9.01969 30.9268C8.91091 31.471 9.2639 32.0005 9.80806 32.1093C10.3521 32.2181 10.8819 31.8652 10.9907 31.3211C11.0743 30.9059 11.19 30.4662 11.3357 30.0074C12.1544 27.426 13.8072 24.9405 15.9399 23.2421C16.067 23.1409 16.1957 23.0426 16.3261 22.9472ZM13.1409 19.7619L11.7138 18.3349C10.9031 19.0651 10.1378 19.886 9.4269 20.7888C9.08295 21.2264 9.15889 21.86 9.59638 22.204C10.0337 22.5479 10.6676 22.472 11.0115 22.0345C11.6742 21.1928 12.387 20.4323 13.1409 19.7619ZM21.2283 27.8494L22.6909 29.312C22.6897 29.3127 22.6885 29.3134 22.6874 29.314C22.3354 29.5171 21.9981 29.7428 21.6764 29.9882C20.045 31.2328 19.0788 32.8692 18.7822 34.6384C18.4813 36.4304 18.856 38.3739 19.9138 40.2063C20.1377 40.5947 20.4001 40.9881 20.702 41.3827C21.0392 41.8245 20.9539 42.4565 20.5125 42.7938C20.07 43.131 19.438 43.0464 19.1007 42.6045C18.7602 42.1578 18.45 41.6906 18.171 41.2074C16.8749 38.96 16.4178 36.5508 16.7947 34.3072C17.1758 32.0411 18.398 29.9572 20.4552 28.3878C20.6965 28.2031 20.9543 28.0235 21.2283 27.8494ZM39.3668 18.7661C37.6427 15.7494 35.2429 13.1885 32.6329 11.9075C32.1343 11.6638 31.927 11.0619 32.1718 10.5635C32.4154 10.0651 33.0171 9.8586 33.5158 10.1023C36.5048 11.5688 39.2095 14.4271 41.1168 17.765C43.0273 21.1055 44.161 24.9596 44.0039 28.4081C43.9799 28.9632 43.5103 29.3936 42.9554 29.3698C42.3995 29.346 41.9696 28.8764 41.9935 28.3212C42.133 25.2627 41.1013 21.7998 39.3668 18.7661ZM22.6685 12.3779C24.7601 12.5993 26.7121 13.1955 28.4759 14.0812C31.6627 15.6818 34.2434 18.2289 35.9364 21.2289C37.6251 24.2202 38.4287 27.6609 38.0685 31.0585C37.8853 32.7867 37.4001 34.5037 36.5767 36.1434C36.3288 36.6396 36.5298 37.2434 37.0264 37.4915C37.5219 37.7396 38.1257 37.5382 38.3746 37.0421C39.3115 35.1761 39.8634 33.2249 40.0716 31.2634C40.4755 27.4485 39.5761 23.5914 37.6864 20.2435C35.802 16.9043 32.9276 14.0681 29.3753 12.2839C27.3982 11.291 25.213 10.6233 22.8727 10.3755C22.3198 10.3188 21.8264 10.7212 21.7691 11.2742C21.7128 11.8271 22.1158 12.3212 22.6685 12.3779Z" fill="#FF1A26"/>
<path d="M7.9082 8.15796L46.092 46.3417" stroke="#FF1A26" stroke-width="3"/>
</svg>
