<svg width="54" height="55" viewBox="0 0 54 55" fill="none" xmlns="http://www.w3.org/2000/svg">
<rect x="0.75" y="1.5" width="52.5" height="52.5" rx="26.25" stroke="#FF1A26" stroke-width="1.5"/>
<path fill-rule="evenodd" clip-rule="evenodd" d="M34.4525 37.0809L46.5 29.25L33.0686 35.6971L34.4525 37.0809ZM30.202 37.0731L27.75 38.25L22.5 46.5L31.5 39L31.8812 38.7522L30.202 37.0731ZM26.1169 28.7453L42 15.75L23.4353 26.0637L26.1169 28.7453ZM21.191 28.0621L23.9898 30.8609L14.25 41.25L21.191 28.0621ZM18.1918 20.8202L30 9.75L16.2729 18.9014L18.1918 20.8202ZM14.0867 20.9577L16.4516 23.3226L12 30L14.0867 20.9577Z" fill="#FF1A26"/>
<path d="M7.9082 8.65796L46.092 46.8417" stroke="#FF1A26" stroke-width="3"/>
</svg>
