<svg width="36" height="36" viewBox="0 0 36 36" fill="none" xmlns="http://www.w3.org/2000/svg">
<rect x="0.749998" y="-0.749998" width="34.5" height="34.5" rx="17.25" transform="matrix(1 0 0 -1 0 34.5)" stroke="#FFD400" stroke-width="1.5"/>
<path d="M18.75 24C18.75 24.4142 18.4142 24.75 18 24.75C17.5858 24.75 17.25 24.4142 17.25 24H18.75ZM17.4697 11.4697C17.7626 11.1768 18.2374 11.1768 18.5303 11.4697L23.3033 16.2427C23.5962 16.5356 23.5962 17.0104 23.3033 17.3033C23.0104 17.5962 22.5355 17.5962 22.2426 17.3033L18 13.0607L13.7574 17.3033C13.4645 17.5962 12.9896 17.5962 12.6967 17.3033C12.4038 17.0104 12.4038 16.5356 12.6967 16.2427L17.4697 11.4697ZM17.25 24V12H18.75V24H17.25Z" fill="#FFD400"/>
</svg>
