<svg width="74" height="68" viewBox="0 0 74 68" fill="none" xmlns="http://www.w3.org/2000/svg">
<path fill-rule="evenodd" clip-rule="evenodd" d="M39.2844 49.1855L41.4105 48.8107C41.9772 48.7107 42.3554 48.1707 42.2554 47.6039C42.1555 47.0372 41.6155 46.659 41.0487 46.759L38.9226 47.1339C38.3558 47.2338 37.9777 47.7738 38.0777 48.3406C38.1776 48.9074 38.7176 49.2855 39.2844 49.1855ZM49.1291 52.5003L68.2304 49.1322L68.2311 49.1348C71.4343 48.57 73.5801 45.5023 73.0157 42.3017L66.4447 5.03527C65.8799 1.83208 62.8147 -0.314137 59.6116 0.250671L5.57253 9.77921C2.36934 10.344 0.223122 13.4091 0.78793 16.6123L7.35855 53.8761C7.92335 57.0793 10.9885 59.2255 14.1917 58.6607L33.293 55.2927L34.9517 64.6995L30.4969 65.485C29.9302 65.585 29.552 66.125 29.652 66.6918C29.7519 67.2585 30.2919 67.6366 30.8587 67.5367L55.6043 63.1734C56.1711 63.0735 56.5492 62.5334 56.4492 61.9667C56.3493 61.3999 55.8093 61.0218 55.2425 61.1217L50.7878 61.9072L49.1291 52.5003ZM35.3444 54.9309L47.0774 52.8621L48.7361 62.269L37.0031 64.3378L35.3444 54.9309ZM2.8394 16.2509C2.47401 14.1786 3.86447 12.1961 5.93408 11.8312L59.9702 2.30317C62.0424 1.93778 64.0249 3.32825 64.3899 5.39785L69.8956 36.6222L8.34509 47.4752L2.8394 16.2509ZM9.41041 53.5169L8.70677 49.5264L70.2601 38.6729L70.9638 42.6634C71.3292 44.7356 69.9413 46.7177 67.8691 47.0831L13.8301 56.6116C11.7578 56.977 9.77578 55.5891 9.41041 53.5169ZM47.2639 23.9229C47.5375 23.6933 47.6679 23.335 47.6059 22.9832C47.5438 22.6314 47.2988 22.3394 46.9631 22.2172L29.0595 15.7008C28.7238 15.5786 28.3484 15.6448 28.0747 15.8745C27.8011 16.1041 27.6707 16.4623 27.7327 16.8141L31.0412 35.5773C31.1032 35.9291 31.3482 36.2211 31.6839 36.3433C32.0197 36.4655 32.3951 36.3993 32.6688 36.1697L47.2639 23.9229ZM32.71 33.5242L30.0031 18.1726L44.6515 23.5042L32.71 33.5242Z" fill="white"/>
</svg>
