<svg width="54" height="67" viewBox="0 0 54 67" fill="none" xmlns="http://www.w3.org/2000/svg">
<path fill-rule="evenodd" clip-rule="evenodd" d="M20.3684 9.25054L21.2104 14.0258L21.2065 14.0219C17.2066 14.8827 13.6025 16.6196 10.5534 18.9919L7.34176 15.1657C8.24597 13.8271 8.19864 12.0008 7.10939 10.7027C6.26199 9.68861 4.92481 9.20399 3.62044 9.43399C2.98212 9.54654 2.38094 9.82617 1.88222 10.2458C1.12121 10.8827 0.654683 11.7787 0.569536 12.7655C0.482317 13.7552 0.786738 14.7174 1.42322 15.4759C2.27018 16.4876 3.6078 16.9747 4.91217 16.7447C5.21125 16.692 5.50162 16.6045 5.7778 16.4806L8.99287 20.3114C2.47902 26.2385 -0.959733 35.2775 0.679504 44.574C3.2193 58.978 16.9977 68.6322 31.3991 66.1084L31.4544 66.0986C45.838 63.5491 55.4777 49.7886 52.9641 35.4013L52.9491 35.3158C51.2981 26.0392 44.9834 18.7383 36.8462 15.4022L38.5572 10.7028C38.8591 10.7248 39.1623 10.7102 39.4614 10.6574C40.7658 10.4274 41.8561 9.51214 42.308 8.2689C43.0054 6.34491 42.0123 4.21101 40.0879 3.51118C39.4762 3.28991 38.8152 3.23025 38.1769 3.34281C36.8724 3.57282 35.7817 4.48554 35.3297 5.72879C34.7497 7.31856 35.3303 9.05357 36.6378 10.0021L34.9285 14.696C31.2542 13.5091 27.2714 13.1126 23.2206 13.6688L22.3786 8.8935L26.3999 8.18444C27.6339 7.96685 28.462 6.78426 28.2439 5.5477L27.7454 2.72025C27.5278 1.4862 26.3452 0.658142 25.1111 0.875739L15.0579 2.64839C13.8214 2.86643 12.9933 4.04902 13.2113 5.28558L13.7099 8.11303C13.9279 9.34959 15.1105 10.1776 16.3471 9.95961L20.3684 9.25054ZM23.9908 18.0369L23.5756 15.6819C36.1722 13.9916 48.0277 22.2928 50.7482 34.7084L48.3932 35.1237C47.8378 35.2216 47.4672 35.7508 47.5651 36.3063C47.6631 36.8617 48.1923 37.2323 48.7477 37.1343L51.1027 36.7191C52.7931 49.3157 44.4919 61.1712 32.0762 63.8917L31.661 61.5367C31.5631 60.9813 31.0338 60.6107 30.4784 60.7087C29.923 60.8066 29.5524 61.3358 29.6504 61.8912L30.0656 64.2462C17.469 65.9366 5.61344 57.6354 2.89297 45.2198L5.24797 44.8045C5.80341 44.7066 6.17396 44.1774 6.07602 43.6219C5.97808 43.0665 5.44887 42.6959 4.89343 42.7939L2.53844 43.2091C0.848043 30.6125 9.14925 18.7569 21.5649 16.0365L21.9802 18.3915C22.0781 18.9469 22.6073 19.3175 23.1628 19.2195C23.7182 19.1216 24.0888 18.5924 23.9908 18.0369ZM26.0454 6.17432L21.0062 7.06286L15.9922 7.94697C15.8665 7.96913 15.7423 7.88218 15.7202 7.75652L15.2216 4.92907C15.1995 4.8034 15.2864 4.67923 15.4121 4.65707L25.4653 2.88442C25.591 2.86226 25.7151 2.94921 25.7373 3.07487L26.2359 5.90232C26.258 6.02799 26.1711 6.15216 26.0454 6.17432ZM38.2483 8.568L38.218 8.55779L38.2205 8.55737C37.3724 8.23005 36.941 7.28248 37.2515 6.42701C37.456 5.86749 37.946 5.45716 38.5341 5.35346C38.8206 5.30295 39.1184 5.33078 39.3925 5.43017C40.2568 5.74679 40.7034 6.7072 40.3893 7.57115C40.1847 8.13067 39.6948 8.541 39.1066 8.6447C38.8302 8.69345 38.5463 8.67093 38.279 8.58072L38.2483 8.568ZM3.19827 11.8122C3.42136 11.6225 3.69207 11.497 3.97859 11.4465L3.97821 11.444C4.56377 11.3407 5.16456 11.5587 5.54814 12.0145C6.1413 12.7185 6.04806 13.7767 5.34365 14.3674C5.12056 14.557 4.84985 14.6825 4.56333 14.733C3.9752 14.8367 3.37441 14.6187 2.99084 14.1629C2.70526 13.822 2.56946 13.3898 2.60766 12.9451C2.64632 12.5029 2.85481 12.0982 3.19827 11.8122ZM25.9915 40.3219C26.0875 40.8658 26.6061 41.2289 27.15 41.133L43.5635 38.2389C44.1074 38.143 44.4705 37.6243 44.3746 37.0804C43.9718 34.7957 43.1228 32.6126 41.8763 30.6559C40.6297 28.6992 39.01 27.0072 37.1095 25.6765C35.2091 24.3458 33.0651 23.4025 30.8001 22.9003C28.5351 22.3982 26.1933 22.3471 23.9086 22.7499C23.3647 22.8458 23.0015 23.3645 23.0974 23.9084L25.9915 40.3219ZM42.1999 36.4485L27.7875 38.9898L25.2462 24.5774C26.9545 24.3876 28.6847 24.4799 30.3672 24.8529C32.3758 25.2982 34.2771 26.1348 35.9624 27.3148C37.6477 28.4949 39.0841 29.9953 40.1895 31.7305C41.1154 33.184 41.794 34.7783 42.1999 36.4485Z" fill="white"/>
</svg>
