<svg width="62" height="73" viewBox="0 0 62 73" fill="none" xmlns="http://www.w3.org/2000/svg">
<path fill-rule="evenodd" clip-rule="evenodd" d="M37.3094 39.532L32.4289 38.6714C31.8621 38.5715 31.484 38.0315 31.584 37.4647C31.6839 36.8979 32.2239 36.5198 32.7907 36.6198L37.6711 37.4803L37.8565 36.4288L32.9761 35.5682C32.4093 35.4683 32.0312 34.9283 32.1311 34.3615C32.2311 33.7947 32.7711 33.4166 33.3379 33.5166L38.2183 34.3771L38.4037 33.3256L33.5233 32.465C32.9565 32.3651 32.5784 31.8251 32.6783 31.2583C32.7782 30.6915 33.3183 30.3134 33.885 30.4134L38.7655 31.2739L40.8692 19.3433L34.6193 18.2413L33.444 24.9065C33.3716 25.3168 33.0624 25.6457 32.657 25.7408C32.2515 25.8359 31.829 25.6821 31.5818 25.3449L29.237 22.1761L26.0701 24.3599C25.8413 24.5179 25.5616 24.5743 25.2974 24.5277C25.164 24.5042 25.0352 24.4551 24.9165 24.3786C24.5624 24.1522 24.3796 23.7339 24.4524 23.321L25.6281 16.6532L19.3782 15.5512L15.5888 37.0423L37.0799 40.8318L37.3101 39.5264L37.3094 39.532ZM23.4422 55.3408C16.192 54.0624 9.87307 50.0368 5.65074 44.0065C1.42806 37.9759 -0.193395 30.6616 1.085 23.4115C2.3634 16.1613 6.38903 9.84235 12.4193 5.62002C18.4499 1.39734 25.7642 -0.224119 33.0144 1.05428C40.2645 2.33268 46.5835 6.35831 50.8058 12.3886C55.0285 18.4192 56.6499 25.7335 55.3715 32.9836C54.5969 37.3768 52.8142 41.4285 50.1856 44.8785L60.0168 58.919C61.3037 60.7536 61.7957 62.9876 61.4041 65.2085C61.0125 67.4295 59.7861 69.3605 57.9493 70.6443C56.0488 71.9751 53.7824 72.4111 51.6588 72.0367C49.5353 71.6623 47.5543 70.48 46.2239 68.5768L36.3927 54.5364C32.2521 55.8239 27.835 56.116 23.4415 55.3413L23.4422 55.3408ZM48.8111 46.5444C47.4048 48.1158 45.8087 49.5347 44.0379 50.7747C42.267 52.0146 40.3878 53.0292 38.4277 53.8127L47.929 67.3821C49.9337 70.245 53.8935 70.9433 56.7562 68.9386C58.1349 67.9732 59.0574 66.5202 59.3527 64.8455C59.6476 63.1733 59.2776 61.4924 58.3127 60.1112L48.8113 46.5418L48.8111 46.5444ZM32.6528 3.10465C25.9515 1.92303 19.1897 3.4227 13.6152 7.32627C8.04066 11.2298 4.31854 17.0706 3.13692 23.7719C1.9553 30.4732 3.45497 37.235 7.35854 42.8095C11.2621 48.3841 17.1029 52.1062 23.8042 53.2878C28.0742 54.0407 32.3671 53.7056 36.3629 52.3555C36.4291 52.3249 36.4965 52.3024 36.563 52.285C38.7662 51.518 40.8784 50.4413 42.8424 49.0661C44.8064 47.691 46.5405 46.0743 48.0153 44.2638C48.0544 44.2073 48.096 44.1511 48.147 44.102C50.7823 40.809 52.568 36.8901 53.3209 32.62C54.5025 25.9187 53.0033 19.1542 49.0993 13.5823C45.1956 8.00723 39.3549 4.28568 32.6537 3.10406L32.6528 3.10465ZM24.3725 50.0649C18.5303 49.0347 13.4404 45.7918 10.0373 40.9317C6.63424 36.0715 5.32761 30.1798 6.35781 24.3373C7.38794 18.4951 10.6309 13.4052 15.491 10.0021C20.3511 6.59904 26.2429 5.29241 32.0854 6.32261C37.9276 7.35273 43.0175 10.5957 46.4206 15.4558C53.4441 25.4865 50.9977 39.3611 40.967 46.3847C36.1069 49.7878 30.215 51.0951 24.3725 50.0649ZM31.7231 8.37731C26.4298 7.44395 21.0906 8.62855 16.6866 11.7101C12.2825 14.7916 9.34284 19.4058 8.40942 24.6994C7.47601 29.9931 8.6602 35.3345 11.7422 39.7359C14.8263 44.1405 19.4383 47.0771 24.732 48.0105C30.0257 48.9439 35.3645 47.7593 39.7685 44.6777C48.8585 38.3128 51.0752 25.7414 44.7103 16.6514C41.6262 12.2469 37.0142 9.31026 31.7205 8.37685L31.7231 8.37731ZM52.4513 67.2593C51.4973 67.091 50.6652 66.5609 50.1096 65.7674C48.9626 64.1293 49.3623 61.8622 51.0005 60.7152C51.7939 60.1596 52.7571 59.946 53.7111 60.1142C54.6652 60.2824 55.4972 60.8126 56.0528 61.606C57.1998 63.2442 56.8001 65.5113 55.1619 66.6583C54.3686 67.2138 53.4054 67.4275 52.4513 67.2593ZM53.3494 62.166C52.9442 62.0945 52.5314 62.1857 52.1936 62.4223C51.4967 62.9102 51.3262 63.8771 51.8142 64.574C52.2873 65.2497 53.2875 65.4261 53.9633 64.9529C54.6602 64.4649 54.8306 63.4981 54.3427 62.8012C54.1061 62.4634 53.752 62.237 53.3468 62.1655L53.3494 62.166ZM37.7441 43.0673L14.2013 38.9161C13.9294 38.8682 13.6868 38.7143 13.5284 38.4881C13.3699 38.2618 13.3083 37.9812 13.3563 37.7093L17.5075 14.1665C17.6074 13.5997 18.1475 13.2216 18.7142 13.3216L42.2544 17.4723C42.8212 17.5723 43.1993 18.1123 43.0994 18.6791L38.9481 42.2219C38.8482 42.7886 38.3082 43.1668 37.7414 43.0668L37.7441 43.0673ZM29.6544 19.7219C29.9083 19.7667 30.1459 19.9038 30.3099 20.1284L31.8107 22.1594L32.565 17.8817L27.6795 17.0202L26.9365 21.2339L28.8817 19.8898C29.1166 19.7276 29.3928 19.6758 29.6544 19.7219ZM25.2537 37.4064L18.1499 36.1538C17.5831 36.0539 17.205 35.5139 17.3049 34.9471L17.9412 31.3387C18.0411 30.7719 18.5812 30.3938 19.1479 30.4937L26.2517 31.7463C26.8185 31.8462 27.1966 32.3862 27.0966 32.953L26.4604 36.5614C26.3604 37.1282 25.8204 37.5063 25.2537 37.4064ZM19.5373 34.283L24.5921 35.1743L24.8666 33.6175L19.8118 32.7262L19.5373 34.283Z" fill="white"/>
</svg>
