<svg width="24" height="24" viewBox="0 0 24 24" fill="none" xmlns="http://www.w3.org/2000/svg">
<path d="M11.0866 2.04906C11.439 1.25857 12.561 1.25857 12.9134 2.04906L15.3565 7.5301C15.5019 7.85613 15.81 8.07998 16.165 8.11744L22.1327 8.74731C22.9934 8.83815 23.3401 9.90525 22.6972 10.4846L18.2394 14.502C17.9742 14.7409 17.8566 15.1031 17.9306 15.4523L19.1757 21.3226C19.3553 22.1693 18.4476 22.8288 17.6979 22.3964L12.4996 19.3982C12.1904 19.2198 11.8096 19.2198 11.5004 19.3982L6.30213 22.3964C5.55243 22.8288 4.6447 22.1693 4.82427 21.3226L6.06937 15.4523C6.14344 15.1031 6.02575 14.7409 5.76059 14.502L1.30279 10.4846C0.659875 9.90525 1.0066 8.83815 1.86728 8.74731L7.83505 8.11744C8.19003 8.07998 8.49813 7.85613 8.64346 7.5301L11.0866 2.04906Z" fill="#FFD400"/>
</svg>
