<svg width="96" height="96" viewBox="0 0 96 96" fill="none" xmlns="http://www.w3.org/2000/svg">
<rect width="96" height="96" rx="48" fill="#FF1A26"/>
<g clip-path="url(#clip0_2278_2992)">
<path d="M20.4496 54.4V22.7584L25.6208 27.6736H14.3056V18.56H32.5328V54.4H20.4496ZM49.8368 55.2192C47.3792 55.2192 44.8875 54.9461 42.3616 54.4C39.8357 53.8539 37.6171 53.0517 35.7056 51.9936L39.8016 43.0848C41.3376 43.9723 42.9419 44.6379 44.6144 45.0816C46.2869 45.4912 47.8741 45.696 49.376 45.696C50.7413 45.696 51.8677 45.4571 52.7552 44.9792C53.6427 44.5013 54.0864 43.8016 54.0864 42.88C54.0864 42.368 53.9328 41.9243 53.6256 41.5488C53.3184 41.1392 52.7723 40.832 51.9872 40.6272C51.2363 40.4224 50.1269 40.32 48.6592 40.32H38.2656L40.0576 18.56H63.8656V27.6736H44.3072L50.4 22.5024L49.3248 36.3776L43.232 31.2064H51.5776C55.1275 31.2064 57.9605 31.7184 60.0768 32.7424C62.2272 33.7664 63.7803 35.1488 64.736 36.8896C65.7259 38.5963 66.2208 40.5077 66.2208 42.624C66.2208 44.7403 65.6405 46.7712 64.48 48.7168C63.3536 50.6283 61.5787 52.1984 59.1552 53.4272C56.7659 54.6219 53.6597 55.2192 49.8368 55.2192Z" fill="#FFD500"/>
<path d="M83 54.1083H70.12V51.6427L79.2096 46.1595V47.4659L70.12 42.0747V39.6275L83 39.5907V42.3875L74.4072 42.4059V41.8907L81.6384 46.1963V47.5395L74.4072 51.9371V51.3115H83V54.1083ZM83 36.5349H70.12V33.5541H83V36.5349ZM83 30.4974H70.12V28.0318L79.3936 20.4326V21.6286H70.12V18.6846H83V21.1318L73.7264 28.7494V27.5534H83V30.4974Z" fill="#FFD500"/>
<path d="M16.7013 62.8994H21.2113V64.2861H16.7013V62.8994ZM16.8309 66.7874H21.9501V68.2H15.1461V59.128H21.7686V60.5407H16.8309V66.7874ZM23.8282 68.2V59.128H25.513V68.2H23.8282ZM27.9668 68.2V59.128H29.3536L35.043 66.1135H34.3561V59.128H36.028V68.2H34.6412L28.9518 61.2146H29.6387V68.2H27.9668ZM40.0011 63.3011H44.5241V64.7267H40.0011V63.3011ZM40.1437 68.2H38.4589V59.128H45.0814V60.5407H40.1437V68.2ZM45.0354 68.2L49.1178 59.128H50.7766L54.872 68.2H53.1094L49.5973 60.0223H50.2712L46.772 68.2H45.0354ZM46.9146 66.1005L47.3682 64.7786H52.267L52.7206 66.1005H46.9146ZM60.0982 68.3296C59.407 68.3296 58.7633 68.2173 58.1672 67.9927C57.5797 67.7594 57.0656 67.4354 56.6249 67.0207C56.1929 66.5973 55.856 66.1005 55.6141 65.5303C55.3721 64.96 55.2512 64.3379 55.2512 63.664C55.2512 62.9901 55.3721 62.368 55.6141 61.7978C55.856 61.2275 56.1973 60.7351 56.6379 60.3203C57.0785 59.897 57.5926 59.573 58.1801 59.3483C58.7677 59.1151 59.4113 58.9984 60.1112 58.9984C60.8542 58.9984 61.5325 59.128 62.1459 59.3872C62.7593 59.6378 63.2777 60.0136 63.7011 60.5147L62.6125 61.5386C62.2841 61.1843 61.9169 60.9208 61.5109 60.748C61.1048 60.5666 60.6641 60.4759 60.1889 60.4759C59.7137 60.4759 59.2774 60.5536 58.88 60.7091C58.4912 60.8647 58.1499 61.085 57.8561 61.3701C57.571 61.6552 57.3464 61.9922 57.1822 62.381C57.0267 62.7698 56.9489 63.1975 56.9489 63.664C56.9489 64.1306 57.0267 64.5583 57.1822 64.9471C57.3464 65.3359 57.571 65.6728 57.8561 65.9579C58.1499 66.2431 58.4912 66.4634 58.88 66.6189C59.2774 66.7744 59.7137 66.8522 60.1889 66.8522C60.6641 66.8522 61.1048 66.7658 61.5109 66.593C61.9169 66.4115 62.2841 66.1394 62.6125 65.7765L63.7011 66.8133C63.2777 67.3058 62.7593 67.6816 62.1459 67.9408C61.5325 68.2 60.8499 68.3296 60.0982 68.3296ZM71.6918 59.128H73.3766V68.2H71.6918V59.128ZM67.0002 68.2H65.3154V59.128H67.0002V68.2ZM71.8214 64.312H66.8577V62.8735H71.8214V64.312ZM77.3627 62.8994H81.8727V64.2861H77.3627V62.8994ZM77.4923 66.7874H82.6115V68.2H75.8075V59.128H82.43V60.5407H77.4923V66.7874ZM15.0387 78.2V71.816H16.2243V78.2H15.0387ZM17.951 78.2V71.816H18.9269L22.9306 76.7317H22.4472V71.816H23.6237V78.2H22.6478L18.6442 73.2843H19.1275V78.2H17.951ZM27.3134 78.2912C26.8148 78.2912 26.3375 78.2213 25.8815 78.0815C25.4255 77.9355 25.0638 77.7501 24.7962 77.5251L25.2066 76.604C25.462 76.8047 25.7782 76.9719 26.1551 77.1056C26.5321 77.2394 26.9182 77.3063 27.3134 77.3063C27.6478 77.3063 27.9183 77.2698 28.125 77.1968C28.3318 77.1239 28.4838 77.0266 28.581 76.905C28.6783 76.7773 28.727 76.6344 28.727 76.4763C28.727 76.2818 28.657 76.1267 28.5172 76.0112C28.3774 75.8896 28.195 75.7954 27.97 75.7285C27.7511 75.6555 27.5049 75.5887 27.2313 75.5279C26.9638 75.4671 26.6932 75.3971 26.4196 75.3181C26.1521 75.233 25.9058 75.1266 25.6809 74.9989C25.462 74.8651 25.2826 74.6888 25.1428 74.4699C25.003 74.2511 24.933 73.9714 24.933 73.6309C24.933 73.2843 25.0242 72.9682 25.2066 72.6824C25.3951 72.3906 25.6778 72.1595 26.0548 71.9893C26.4378 71.813 26.9212 71.7248 27.5049 71.7248C27.8879 71.7248 28.2679 71.7735 28.6449 71.8707C29.0218 71.968 29.3502 72.1079 29.6298 72.2903L29.2559 73.2114C28.9702 73.0411 28.6753 72.9165 28.3713 72.8375C28.0673 72.7523 27.7754 72.7098 27.4958 72.7098C27.1674 72.7098 26.8999 72.7493 26.6932 72.8283C26.4926 72.9074 26.3436 73.0107 26.2463 73.1384C26.1551 73.2661 26.1095 73.412 26.1095 73.5762C26.1095 73.7707 26.1764 73.9288 26.3102 74.0504C26.45 74.1659 26.6294 74.2571 26.8482 74.324C27.0732 74.3909 27.3225 74.4578 27.5961 74.5247C27.8697 74.5855 28.1402 74.6554 28.4078 74.7344C28.6814 74.8135 28.9276 74.9168 29.1465 75.0445C29.3714 75.1722 29.5508 75.3455 29.6846 75.5643C29.8244 75.7832 29.8943 76.0599 29.8943 76.3943C29.8943 76.7347 29.8001 77.0509 29.6116 77.3427C29.4292 77.6285 29.1465 77.8595 28.7634 78.0359C28.3804 78.2061 27.897 78.2912 27.3134 78.2912ZM32.2759 78.2V72.8192H30.1601V71.816H35.5774V72.8192H33.4615V78.2H32.2759ZM35.2436 78.2L38.1164 71.816H39.2838L42.1657 78.2H40.9254L38.4539 72.4453H38.9281L36.4657 78.2H35.2436ZM36.566 76.7226L36.8852 75.7923H40.3326L40.6518 76.7226H36.566ZM42.9776 78.2V71.816H44.1632V77.1968H47.5011V78.2H42.9776ZM48.4371 78.2V71.816H49.6227V77.1968H52.9606V78.2H48.4371ZM53.0027 78.2L55.8755 71.816H57.0428L59.9248 78.2H58.6844L56.2129 72.4453H56.6872L54.2248 78.2H53.0027ZM54.3251 76.7226L54.6443 75.7923H58.0916L58.4108 76.7226H54.3251ZM61.7111 78.2V72.8192H59.5952V71.816H65.0125V72.8192H62.8967V78.2H61.7111ZM65.9023 78.2V71.816H67.0879V78.2H65.9023ZM71.806 78.2912C71.3074 78.2912 70.8484 78.2091 70.4289 78.045C70.0093 77.8808 69.6445 77.6528 69.3345 77.361C69.0244 77.0631 68.7842 76.7165 68.614 76.3213C68.4437 75.92 68.3586 75.4823 68.3586 75.008C68.3586 74.5338 68.4437 74.0991 68.614 73.7039C68.7842 73.3026 69.0244 72.956 69.3345 72.6642C69.6445 72.3663 70.0093 72.1352 70.4289 71.9711C70.8484 71.8069 71.3044 71.7248 71.7969 71.7248C72.2954 71.7248 72.7514 71.8069 73.1649 71.9711C73.5844 72.1352 73.9492 72.3663 74.2593 72.6642C74.5693 72.956 74.8095 73.3026 74.9797 73.7039C75.15 74.0991 75.2351 74.5338 75.2351 75.008C75.2351 75.4823 75.15 75.92 74.9797 76.3213C74.8095 76.7226 74.5693 77.0691 74.2593 77.361C73.9492 77.6528 73.5844 77.8808 73.1649 78.045C72.7514 78.2091 72.2985 78.2912 71.806 78.2912ZM71.7969 77.2515C72.1191 77.2515 72.417 77.1968 72.6906 77.0874C72.9642 76.9779 73.2013 76.8229 73.402 76.6223C73.6026 76.4155 73.7577 76.1784 73.8671 75.9109C73.9826 75.6373 74.0404 75.3363 74.0404 75.008C74.0404 74.6797 73.9826 74.3818 73.8671 74.1143C73.7577 73.8407 73.6026 73.6035 73.402 73.4029C73.2013 73.1962 72.9642 73.0381 72.6906 72.9287C72.417 72.8192 72.1191 72.7645 71.7969 72.7645C71.4746 72.7645 71.1767 72.8192 70.9031 72.9287C70.6356 73.0381 70.3985 73.1962 70.1917 73.4029C69.9911 73.6035 69.833 73.8407 69.7175 74.1143C69.6081 74.3818 69.5533 74.6797 69.5533 75.008C69.5533 75.3303 69.6081 75.6282 69.7175 75.9018C69.833 76.1754 69.9911 76.4155 70.1917 76.6223C70.3924 76.8229 70.6295 76.9779 70.9031 77.0874C71.1767 77.1968 71.4746 77.2515 71.7969 77.2515ZM76.4918 78.2V71.816H77.4677L81.4713 76.7317H80.988V71.816H82.1645V78.2H81.1886L77.1849 73.2843H77.6683V78.2H76.4918Z" fill="#FFD500"/>
</g>
<defs>
<clipPath id="clip0_2278_2992">
<rect width="69.6" height="63.1795" fill="white" transform="translate(13.5996 16.8)"/>
</clipPath>
</defs>
</svg>
