<svg width="24" height="36" viewBox="0 0 24 36" fill="none" xmlns="http://www.w3.org/2000/svg">
<rect x="0.5" y="0.499939" width="23.0001" height="23.0001" rx="11.5" stroke="#FFD400"/>
<path d="M12.5 8C12.5 7.72386 12.2761 7.5 12 7.5C11.7239 7.5 11.5 7.72386 11.5 8H12.5ZM11.6464 16.3536C11.8417 16.5488 12.1583 16.5488 12.3536 16.3536L15.5355 13.1716C15.7308 12.9763 15.7308 12.6597 15.5355 12.4645C15.3403 12.2692 15.0237 12.2692 14.8284 12.4645L12 15.2929L9.17157 12.4645C8.97631 12.2692 8.65973 12.2692 8.46447 12.4645C8.2692 12.6597 8.2692 12.9763 8.46447 13.1716L11.6464 16.3536ZM11.5 8V16H12.5V8H11.5Z" fill="#FFD400"/>
<path opacity="0.3" fill-rule="evenodd" clip-rule="evenodd" d="M23.966 23.0895C23.6814 23.7577 23.3426 24.3971 22.955 25.0023C22.4487 30.6077 17.7373 35 12 35C6.26269 35 1.55127 30.6076 1.04504 25.0022C0.657411 24.397 0.318561 23.7575 0.0340325 23.0894C0.0114797 23.39 0 23.6937 0 24C0 30.6274 5.37258 36 12 36C18.6274 36 24 30.6274 24 24C24 23.6937 23.9885 23.3901 23.966 23.0895Z" fill="#FFD400"/>
<path opacity="0.6" fill-rule="evenodd" clip-rule="evenodd" d="M23.966 17.0896C23.6814 17.7577 23.3426 18.3971 22.955 19.0023C22.4487 24.6077 17.7373 29 12 29C6.26267 29 1.55124 24.6076 1.04503 19.0021C0.657409 18.3969 0.318562 17.7575 0.0340362 17.0894C0.011481 17.39 0 17.6936 0 18C0 24.6274 5.37258 30 12 30C18.6274 30 24 24.6274 24 18C24 17.6937 23.9885 17.3901 23.966 17.0896Z" fill="#FFD400"/>
</svg>
