<svg width="54" height="54" viewBox="0 0 54 54" fill="none" xmlns="http://www.w3.org/2000/svg">
<rect x="0.75" y="0.75" width="52.5" height="52.5" rx="26.25" stroke="#FF1A26" stroke-width="1.5"/>
<path fill-rule="evenodd" clip-rule="evenodd" d="M30 5.25C30.8284 5.25 31.5 4.57843 31.5 3.75C31.5 2.92157 30.8284 2.25 30 2.25C29.1716 2.25 28.5 2.92157 28.5 3.75C28.5 4.57843 29.1716 5.25 30 5.25ZM30 6.75C31.6569 6.75 33 5.40685 33 3.75C33 2.09315 31.6569 0.75 30 0.75C28.3431 0.75 27 2.09315 27 3.75C27 5.40685 28.3431 6.75 30 6.75ZM46.5 23.25C46.5 24.0784 45.8284 24.75 45 24.75C44.1716 24.75 43.5 24.0784 43.5 23.25C43.5 22.4216 44.1716 21.75 45 21.75C45.8284 21.75 46.5 22.4216 46.5 23.25ZM48 23.25C48 24.9069 46.6569 26.25 45 26.25C43.3431 26.25 42 24.9069 42 23.25C42 21.5931 43.3431 20.25 45 20.25C46.6569 20.25 48 21.5931 48 23.25ZM20.8277 26.9487C20.5764 27.4252 20.0761 27.75 19.5 27.75C18.6716 27.75 18 27.0784 18 26.25C18 25.6739 18.3248 25.1736 18.8013 24.9223L17.7164 23.8375C16.9784 24.384 16.5 25.2611 16.5 26.25C16.5 27.9069 17.8431 29.25 19.5 29.25C20.4889 29.25 21.366 28.7716 21.9125 28.0336L20.8277 26.9487ZM24 45.75C24 46.5784 23.3284 47.25 22.5 47.25C21.6716 47.25 21 46.5784 21 45.75C21 44.9216 21.6716 44.25 22.5 44.25C23.3284 44.25 24 44.9216 24 45.75ZM25.5 45.75C25.5 47.4069 24.1569 48.75 22.5 48.75C20.8431 48.75 19.5 47.4069 19.5 45.75C19.5 44.0931 20.8431 42.75 22.5 42.75C24.1569 42.75 25.5 44.0931 25.5 45.75ZM30 15.75C30 16.5784 29.3284 17.25 28.5 17.25C27.6716 17.25 27 16.5784 27 15.75C27 14.9216 27.6716 14.25 28.5 14.25C29.3284 14.25 30 14.9216 30 15.75ZM21 11.25C21.8284 11.25 22.5 10.5784 22.5 9.75C22.5 8.92157 21.8284 8.25 21 8.25C20.1716 8.25 19.5 8.92157 19.5 9.75C19.5 10.5784 20.1716 11.25 21 11.25ZM37.5 27.75C37.5 28.5784 36.8284 29.25 36 29.25C35.1716 29.25 34.5 28.5784 34.5 27.75C34.5 26.9216 35.1716 26.25 36 26.25C36.8284 26.25 37.5 26.9216 37.5 27.75ZM39 14.25C39.8284 14.25 40.5 13.5784 40.5 12.75C40.5 11.9216 39.8284 11.25 39 11.25C38.1716 11.25 37.5 11.9216 37.5 12.75C37.5 13.5784 38.1716 14.25 39 14.25ZM21 33.75C21 34.5784 20.3284 35.25 19.5 35.25C18.6716 35.25 18 34.5784 18 33.75C18 32.9216 18.6716 32.25 19.5 32.25C20.3284 32.25 21 32.9216 21 33.75ZM10.5 26.25C11.3284 26.25 12 25.5784 12 24.75C12 23.9216 11.3284 23.25 10.5 23.25C9.67157 23.25 9 23.9216 9 24.75C9 25.5784 9.67157 26.25 10.5 26.25ZM30 38.25C30 39.0784 29.3284 39.75 28.5 39.75C27.6716 39.75 27 39.0784 27 38.25C27 37.4216 27.6716 36.75 28.5 36.75C29.3284 36.75 30 37.4216 30 38.25ZM45 36.75C45.8284 36.75 46.5 36.0784 46.5 35.25C46.5 34.4216 45.8284 33.75 45 33.75C44.1716 33.75 43.5 34.4216 43.5 35.25C43.5 36.0784 44.1716 36.75 45 36.75ZM10.5 35.25C10.5 36.0784 9.82843 36.75 9 36.75C8.17157 36.75 7.5 36.0784 7.5 35.25C7.5 34.4216 8.17157 33.75 9 33.75C9.82843 33.75 10.5 34.4216 10.5 35.25Z" fill="#FF1A26"/>
<path d="M7.9082 7.90796L46.092 46.0917" stroke="#FF1A26" stroke-width="3"/>
</svg>
