<svg width="33" height="33" viewBox="0 0 33 33" fill="none" xmlns="http://www.w3.org/2000/svg">
<g clip-path="url(#clip0_2001_2690)">
<path d="M16.9336 32.5508C25.7701 32.5508 32.9336 25.3873 32.9336 16.5508C32.9336 7.71422 25.7701 0.550781 16.9336 0.550781C8.09704 0.550781 0.933594 7.71422 0.933594 16.5508C0.933594 25.3873 8.09704 32.5508 16.9336 32.5508Z" fill="#008CFF"/>
<path d="M16.7216 24.6868C15.4736 24.6868 14.3336 24.4828 13.3016 24.0748C12.2696 23.6668 11.3816 23.0968 10.6376 22.3648C9.89359 21.6328 9.31759 20.7688 8.90959 19.7728C8.50159 18.7648 8.29759 17.6668 8.29759 16.4788C8.29759 15.2908 8.50159 14.1988 8.90959 13.2028C9.31759 12.2068 9.89359 11.3428 10.6376 10.6108C11.3936 9.87878 12.2936 9.31478 13.3376 8.91878C14.3816 8.52278 15.5336 8.32478 16.7936 8.32478C18.0296 8.32478 19.1576 8.51678 20.1776 8.90078C21.1976 9.28478 22.0796 9.83078 22.8236 10.5388C23.5796 11.2348 24.1616 12.0688 24.5696 13.0408C24.9776 14.0008 25.1816 15.0628 25.1816 16.2268C25.1816 17.2468 25.0556 18.1228 24.8036 18.8548C24.5516 19.5868 24.1856 20.1568 23.7056 20.5648C23.2376 20.9608 22.6616 21.1588 21.9776 21.1588C21.3056 21.1588 20.7656 20.9548 20.3576 20.5468C19.9616 20.1388 19.7636 19.5568 19.7636 18.8008V17.5768L19.8536 16.4788L19.6916 14.4088V12.0148H21.2576V18.4948C21.2576 18.9748 21.3536 19.3108 21.5456 19.5028C21.7496 19.6948 21.9956 19.7908 22.2836 19.7908C22.6316 19.7908 22.9316 19.6528 23.1836 19.3768C23.4476 19.1008 23.6396 18.6988 23.7596 18.1708C23.8916 17.6308 23.9576 16.9888 23.9576 16.2448C23.9576 15.2368 23.7836 14.3248 23.4356 13.5088C23.0996 12.6808 22.6076 11.9668 21.9596 11.3668C21.3236 10.7668 20.5676 10.3108 19.6916 9.99878C18.8276 9.67478 17.8616 9.51278 16.7936 9.51278C15.7256 9.51278 14.7476 9.68678 13.8596 10.0348C12.9836 10.3708 12.2276 10.8508 11.5916 11.4748C10.9556 12.0868 10.4636 12.8188 10.1156 13.6708C9.77959 14.5228 9.61159 15.4588 9.61159 16.4788C9.61159 17.5108 9.77959 18.4588 10.1156 19.3228C10.4516 20.1748 10.9316 20.9068 11.5556 21.5188C12.1916 22.1428 12.9416 22.6228 13.8056 22.9588C14.6816 23.3068 15.6536 23.4808 16.7216 23.4808C17.2736 23.4808 17.8556 23.4148 18.4676 23.2828C19.0796 23.1628 19.6556 22.9648 20.1956 22.6888L20.5916 23.8408C20.0396 24.1168 19.4156 24.3268 18.7196 24.4708C18.0236 24.6148 17.3576 24.6868 16.7216 24.6868ZM16.3976 21.1588C15.5456 21.1588 14.7896 20.9608 14.1296 20.5648C13.4696 20.1568 12.9476 19.6048 12.5636 18.9088C12.1796 18.2128 11.9876 17.4208 11.9876 16.5328C11.9876 15.6328 12.1796 14.8408 12.5636 14.1568C12.9476 13.4608 13.4696 12.9208 14.1296 12.5368C14.7896 12.1408 15.5456 11.9428 16.3976 11.9428C17.2256 11.9428 17.9516 12.1228 18.5756 12.4828C19.1996 12.8308 19.6856 13.3468 20.0336 14.0308C20.3936 14.7148 20.5736 15.5488 20.5736 16.5328C20.5736 17.5168 20.3996 18.3508 20.0516 19.0348C19.7036 19.7188 19.2176 20.2468 18.5936 20.6188C17.9696 20.9788 17.2376 21.1588 16.3976 21.1588ZM16.6496 19.7548C17.2376 19.7548 17.7596 19.6288 18.2156 19.3768C18.6836 19.1128 19.0496 18.7408 19.3136 18.2608C19.5896 17.7688 19.7276 17.1928 19.7276 16.5328C19.7276 15.8608 19.5896 15.2848 19.3136 14.8048C19.0496 14.3248 18.6836 13.9588 18.2156 13.7068C17.7596 13.4548 17.2376 13.3288 16.6496 13.3288C16.0496 13.3288 15.5156 13.4608 15.0476 13.7248C14.5916 13.9768 14.2316 14.3428 13.9676 14.8228C13.7156 15.3028 13.5896 15.8728 13.5896 16.5328C13.5896 17.1808 13.7156 17.7448 13.9676 18.2248C14.2316 18.7048 14.5916 19.0828 15.0476 19.3588C15.5156 19.6228 16.0496 19.7548 16.6496 19.7548Z" fill="white"/>
</g>
<defs>
<clipPath id="clip0_2001_2690">
<rect width="32" height="32" fill="white" transform="translate(0.933594 0.550781)"/>
</clipPath>
</defs>
</svg>
