<svg width="33" height="33" viewBox="0 0 33 33" fill="none" xmlns="http://www.w3.org/2000/svg">
<g clip-path="url(#clip0_2001_2684)">
<path d="M16.9336 32.5508C25.7701 32.5508 32.9336 25.3873 32.9336 16.5508C32.9336 7.71422 25.7701 0.550781 16.9336 0.550781C8.09704 0.550781 0.933594 7.71422 0.933594 16.5508C0.933594 25.3873 8.09704 32.5508 16.9336 32.5508Z" fill="url(#paint0_linear_2001_2684)"/>
<path fill-rule="evenodd" clip-rule="evenodd" d="M24.6299 9.05094C22.7136 7.13304 20.1652 6.07629 17.45 6.0752C11.8554 6.0752 7.30218 10.6267 7.29994 16.2213C7.29919 18.0096 7.76658 19.7553 8.65479 21.294L7.21484 26.552L12.5955 25.1411C14.078 25.9494 15.7471 26.3754 17.4459 26.3761H17.4501C17.4498 26.3761 17.4504 26.3761 17.4501 26.3761C23.044 26.3761 27.5977 21.824 27.6 16.2294C27.6011 13.5182 26.5463 10.9688 24.6299 9.05094ZM17.4501 24.6624H17.4466C15.9329 24.6618 14.4481 24.2553 13.1529 23.4868L12.8448 23.304L9.65184 24.1413L10.5041 21.0292L10.3035 20.7102C9.45904 19.3674 9.013 17.8154 9.01365 16.2219C9.01552 11.5719 12.8 7.78892 17.4534 7.78892C19.7067 7.78978 21.8249 8.66817 23.4177 10.2623C25.0105 11.8563 25.8872 13.9753 25.8863 16.2288C25.8844 20.8791 22.0999 24.6624 17.4501 24.6624ZM22.0775 18.3461C21.8239 18.2192 20.577 17.6058 20.3446 17.5212C20.1121 17.4366 19.943 17.3943 19.774 17.6481C19.6049 17.9019 19.1189 18.473 18.9709 18.6422C18.823 18.8114 18.6751 18.8326 18.4215 18.7056C18.1678 18.5788 17.3507 18.311 16.382 17.4473C15.6281 16.7751 15.119 15.9447 14.9711 15.6909C14.8231 15.4371 14.9554 15.2999 15.0823 15.1735C15.1964 15.0599 15.3359 14.8774 15.4627 14.7293C15.5895 14.5813 15.6318 14.4755 15.7163 14.3063C15.8009 14.1371 15.7586 13.9891 15.6952 13.8621C15.6318 13.7352 15.1246 12.4873 14.9133 11.9797C14.7074 11.4853 14.4983 11.5522 14.3426 11.5445C14.1949 11.5371 14.0256 11.5356 13.8566 11.5356C13.6875 11.5356 13.4127 11.599 13.1803 11.8528C12.9478 12.1066 12.2926 12.72 12.2926 13.9679C12.2926 15.2158 13.2014 16.4214 13.3282 16.5906C13.455 16.7598 15.1165 19.3207 17.6606 20.4189C18.2657 20.6801 18.7381 20.836 19.1064 20.9529C19.714 21.1458 20.2669 21.1186 20.7038 21.0534C21.1911 20.9806 22.2043 20.44 22.4157 19.8478C22.627 19.2556 22.627 18.748 22.5636 18.6422C22.5002 18.5365 22.3311 18.473 22.0775 18.3461Z" fill="white"/>
</g>
<defs>
<linearGradient id="paint0_linear_2001_2684" x1="16.9336" y1="30.226" x2="16.9336" y2="-1.77402" gradientUnits="userSpaceOnUse">
<stop stop-color="#27CD44"/>
<stop offset="1" stop-color="#5FFB7C"/>
</linearGradient>
<clipPath id="clip0_2001_2684">
<rect width="32" height="32" fill="white" transform="translate(0.933594 0.550781)"/>
</clipPath>
</defs>
</svg>
