
<svg xmlns="http://www.w3.org/2000/svg" viewBox="0 25.9 64 9">
  <g id="icomoon-ignore"></g>
  <!-- ті самі чорні <path> як вище -->
  <path fill="black" fill-opacity="0.4" d="M18.022 25.983h-5.707v2.854h5.707v-2.854z"/>
  <path fill="black" fill-opacity="0.4" d="M0.903 25.983v2.854h2.864v5.729h2.843v-5.73h2.863v-2.854h-8.57z"/>
  <path fill="black" fill-opacity="0.4" d="M9.474 34.567h8.57v-2.854h-5.727v-2.875l-2.843 0v5.729z"/>
  <path fill="black" fill-opacity="0.4" d="M25.321 28.15h-4.201v1.188h1.4v3.729h1.4v-3.729h1.4v-1.188z"/>
  <path fill="black" fill-opacity="0.4" d="M26.891 29.296c-0.997 0-1.718 0.646-1.718 1.917 0 1.125 0.615 1.917 1.761 1.917 0.594 0 1.061-0.146 1.527-0.417l-0.488-0.813c-0.382 0.188-0.637 0.25-0.976 0.25-0.36 0-0.594-0.188-0.636-0.583h2.206c0-0.063 0-0.146 0-0.25 0-1.354-0.636-2.021-1.676-2.021zM26.361 30.796c0.042-0.375 0.212-0.563 0.509-0.563 0.382 0 0.509 0.188 0.573 0.563h-1.082z"/>
  <path fill="black" fill-opacity="0.4" d="M31.006 32.108c-0.361 0-0.531-0.313-0.531-0.896s0.17-0.917 0.488-0.917c0.276 0 0.403 0.146 0.573 0.479l0.891-0.667c-0.339-0.521-0.742-0.833-1.442-0.833-1.209 0-1.782 0.771-1.782 1.917 0 1.25 0.658 1.938 1.761 1.938 0.657 0 1.082-0.25 1.506-0.875l-0.806-0.625c-0.233 0.354-0.403 0.479-0.657 0.479z"/>
  <path fill="black" fill-opacity="0.4" d="M35.461 29.296c-0.445 0-0.7 0.146-0.954 0.333v-1.688l-1.294 0.5v4.625h1.294v-2.104c0-0.458 0.17-0.583 0.445-0.583 0.255 0 0.424 0.125 0.424 0.604v2.083h1.294v-2.25c0-0.979-0.403-1.521-1.209-1.521z"/>
  <path fill="black" fill-opacity="0.4" d="M39.767 31.963c-0.594 0-0.848-0.604-0.848-1.354 0-0.771 0.255-1.354 0.827-1.354 0.467 0 0.636 0.292 0.806 0.75l1.251-0.479c-0.339-0.938-0.827-1.458-2.058-1.458-1.337 0-2.291 0.958-2.291 2.542 0 1.458 0.785 2.542 2.291 2.542 1.188 0 1.739-0.625 2.079-1.271l-1.166-0.604c-0.255 0.458-0.446 0.688-0.891 0.688z"/>
  <path fill="black" fill-opacity="0.4" d="M43.925 29.65v-0.271h-1.294v3.688h1.294v-2.021c0-0.458 0.191-0.604 0.509-0.604 0.255 0 0.445 0.125 0.594 0.313l0.297-1.313c-0.148-0.083-0.34-0.146-0.615-0.146-0.318 0-0.573 0.146-0.785 0.354z"/>
  <path fill="black" fill-opacity="0.4" d="M48.104 31.483c0 0.458-0.17 0.583-0.424 0.583s-0.424-0.125-0.424-0.604v-2.083h-1.294v2.25c0 0.979 0.403 1.521 1.209 1.521 0.445 0 0.7-0.146 0.933-0.333v0.25h1.294v-3.688h-1.294v2.104z"/>
  <path fill="black" fill-opacity="0.4" d="M52.559 29.296c-0.445 0-0.7 0.146-0.955 0.333v-0.25h-1.272v3.688h1.294v-2.104c0-0.458 0.17-0.583 0.446-0.583 0.255 0 0.424 0.125 0.424 0.604v2.083h1.294v-2.25c0-0.979-0.403-1.521-1.23-1.521z"/>
  <path fill="black" fill-opacity="0.4" d="M56.334 32.108c-0.361 0-0.53-0.313-0.53-0.896s0.17-0.917 0.488-0.917c0.276 0 0.403 0.146 0.573 0.479l0.891-0.667c-0.339-0.521-0.743-0.833-1.443-0.833-1.209 0-1.782 0.771-1.782 1.917 0 1.25 0.657 1.938 1.761 1.938 0.657 0 1.082-0.25 1.506-0.875l-0.806-0.625c-0.233 0.354-0.403 0.479-0.657 0.479z"/>
  <path fill="black" fill-opacity="0.4" d="M60.791 29.296c-0.445 0-0.7 0.146-0.954 0.333v-1.688l-1.294 0.5v4.625h1.294v-2.104c0-0.458 0.17-0.583 0.445-0.583 0.255 0 0.424 0.125 0.424 0.604v2.083h1.294v-2.25c0-0.979-0.403-1.521-1.209-1.521z"/>
</svg>
