
<svg xmlns="http://www.w3.org/2000/svg" viewBox="0 200 512 150">
  <path fill="black" fill-opacity="0.4" d="M290.249 236.197c0-13.277 0.259-25.639 1.031-37.087l-39.544 6.639v3.206l3.881 0.458c2.838 0.228 4.652 1.145 5.683 2.518 1.037 1.602 1.808 3.892 2.327 7.325 0.519 6.639 1.037 21.748 0.777 45.556 0 23.579-0.259 38.459-0.777 44.183 14.216 2.747 25.329 3.892 33.603 3.892 15.505 0 27.654-3.892 36.44-11.904 8.786-7.784 13.438-18.773 13.438-32.279 0-10.76-3.357-19.688-10.077-26.785-6.726-7.096-15.253-10.53-25.335-10.53-6.719 0-13.697 1.603-21.446 4.808zM291.019 306.705c-0.512-7.325-1.031-29.303-1.031-65.245 2.327-0.688 5.423-1.145 9.305-1.145 6.2 0 11.113 2.746 14.728 8.471 3.621 5.724 5.43 12.59 5.43 21.29 0 10.76-2.067 19.458-6.2 26.784-4.134 7.096-9.305 10.76-15.765 10.76-2.075-0.457-4.14-0.688-6.466-0.916zM103.381 201.399h-103.379v4.579l5.43 0.458c4.133 0.686 6.978 2.06 8.787 4.12 1.808 2.288 2.845 5.952 3.104 10.988 2.067 24.726 2.067 47.846 0 69.136-0.518 5.036-1.556 8.7-3.104 10.988-1.808 2.288-4.652 3.662-8.787 4.12l-5.43 0.686v4.579h66.68v-4.579l-6.978-0.457c-4.133-0.457-6.978-2.061-8.786-4.12-1.807-2.29-2.845-5.952-3.103-10.988-0.771-9.158-1.289-19.686-1.289-31.363l13.956 0.228c7.496 0.228 12.66 5.264 15.246 15.337h5.171v-37.315h-5.171c-2.587 9.844-7.49 14.879-15.246 15.11l-13.956 0.228c0-20.603 0.519-35.256 1.289-44.184h20.422c14.468 0 24.291 8.243 29.98 24.726l6.201-1.602-1.037-30.677zM91.239 271.908c0 11.904 3.875 21.748 11.372 29.533 7.49 7.784 18.609 11.447 32.566 11.447s25.328-3.892 33.596-11.904c8.274-7.784 12.148-17.628 12.148-29.533s-3.875-21.748-11.372-29.533c-7.496-7.784-18.608-11.447-32.566-11.447s-25.328 3.892-33.602 11.905c-8.268 7.784-12.144 17.628-12.144 29.532zM148.873 245.811c3.099 6.639 4.393 15.338 4.393 25.869 0 24.265-5.689 36.17-16.802 36.17-5.683 0-10.082-3.433-13.178-10.303-3.103-6.868-4.392-15.566-4.392-25.868 0-24.037 5.683-35.941 16.795-35.941 5.689-0.228 10.083 3.206 13.185 10.072zM367.263 301.441c8.534 7.554 19.387 11.447 32.313 11.447 8.009 0 14.986-1.373 21.188-4.35 6.207-2.747 11.12-6.181 14.474-10.303l-2.587-2.747c-5.683 3.892-12.148 5.724-19.64 5.724-10.341 0-18.35-2.976-23.779-9.158-5.688-6.18-8.268-13.965-7.756-24.037h55.309c0-10.988-3.099-19.917-9.558-27.013-6.466-6.869-15.512-10.303-27.142-10.303-14.468 0-25.588 4.12-33.596 12.133-8.015 8.013-11.89 17.856-11.89 29.533 0 11.904 4.134 21.519 12.66 29.074zM386.39 243.979c2.845-5.495 6.46-8.242 11.372-8.242 7.756 0 11.632 8.698 11.632 26.327l-27.395 0.457c0.259-6.868 1.549-13.049 4.392-18.543zM506.312 234.823c-6.978-2.746-15.765-4.35-26.359-4.35-10.853 0-19.387 2.518-25.847 7.325s-9.824 10.76-9.824 17.857c0 6.18 2.067 10.988 5.948 14.423 3.875 3.433 10.077 6.409 18.091 8.928 7.238 2.29 12.402 4.579 14.986 6.639 2.587 2.29 4.14 4.808 4.14 8.243 0 3.205-1.296 6.18-4.14 8.47-2.587 2.519-6.2 3.663-10.853 3.663-11.372 0-19.899-7.325-25.847-21.978l-4.392 1.146 1.037 22.892c9.305 3.205 19.64 4.808 31.010 4.808 11.89 0 20.934-2.29 27.654-7.096 6.719-4.579 10.082-11.217 10.082-19.459 0-5.495-1.549-10.074-4.911-13.506-3.357-3.435-8.786-6.409-16.543-9.158-8.527-2.747-14.468-5.264-17.572-7.554s-4.652-5.036-4.652-8.47c0-3.434 1.031-6.181 3.357-8.471s5.171-3.206 8.793-3.206c10.336 0 17.832 6.639 22.484 19.688l4.392-1.145-1.037-19.688zM257.682 232.762c-3.621-1.602-7.496-2.288-11.89-2.288s-8.786 1.602-13.697 4.806c-4.911 3.206-8.534 7.554-11.372 13.506l0.259-18.314-39.285 6.868v3.206l3.875 0.228c4.911 0.458 7.756 3.892 8.268 10.073 1.555 14.194 1.555 29.303 0 45.327-0.512 6.181-3.357 9.385-8.268 10.074l-3.875 0.457v4.351h54.79v-4.351l-6.978-0.457c-4.911-0.457-7.756-3.892-8.268-10.074-1.555-13.277-1.815-27.471-0.518-42.121 1.549-2.29 4.911-3.663 10.077-4.121 5.171-0.457 11.119 0.916 17.32 4.121l9.564-21.291z"/>
</svg>

