<svg xmlns="http://www.w3.org/2000/svg" fill="none" viewBox="0 0 327 130" height="130" width="327">
<path fill="black" d="M19.4193 29.9504C19.7783 29.0443 20.1371 28.1298 20.4882 27.2237C20.6989 26.6901 20.9095 26.1482 21.1202 25.6231C21.1669 25.513 21.1669 25.3861 21.1202 25.2761C19.5286 21.2451 17.9476 17.2085 16.3769 13.1664C16.3474 13.1002 16.3214 13.0324 16.2988 12.9632C16.3524 12.9474 16.409 12.9474 16.4626 12.9632H20.5038C20.616 12.9513 20.719 13.0307 20.7457 13.1495L23.2265 20.0341C23.2265 20.085 23.2265 20.1443 23.2967 20.2289L23.3671 20.068C24.2096 17.7647 25.047 15.4613 25.8791 13.158C25.9337 13.014 25.9883 12.9632 26.1287 12.9632H30.2246L29.8969 13.81L23.7882 29.764C23.7552 29.8198 23.7363 29.8841 23.7337 29.9503L19.4193 29.9504Z"></path>
<path fill="black" d="M47.1782 14.1486C47.349 13.931 47.534 13.7273 47.7321 13.5389C48.5465 12.8582 49.5755 12.5538 50.5954 12.692C51.5437 12.7415 52.433 13.2059 53.0608 13.9791C53.5745 14.647 53.9093 15.4557 54.028 16.3163C54.0981 16.7895 54.1295 17.2683 54.1217 17.7475C54.1217 20.2203 54.1217 22.6929 54.1217 25.1657C54.1217 25.3349 54.0749 25.3689 53.9266 25.3689C52.694 25.3689 51.4691 25.3689 50.2365 25.3689C50.0961 25.3689 50.0648 25.3266 50.0648 25.1825V18.6536C50.0756 18.3332 50.0387 18.0129 49.9556 17.7052C49.8326 17.1504 49.3953 16.7438 48.8712 16.6975C48.3436 16.6029 47.8142 16.8552 47.5215 17.3411C47.3383 17.6479 47.2308 18.0008 47.2094 18.3657C47.2094 18.6114 47.2094 18.8484 47.2094 19.094C47.2094 21.1094 47.2094 23.1277 47.2094 25.1487C47.2094 25.3097 47.2094 25.3519 47.0144 25.3519C45.7895 25.3519 44.5568 25.3519 43.3243 25.3519C43.1994 25.3519 43.1604 25.3519 43.1604 25.174C43.1604 19.3254 43.1604 13.4739 43.1604 7.61955C43.1604 7.4841 43.1604 7.4502 43.3164 7.4502H47.0221C47.1549 7.4502 47.1938 7.4502 47.1938 7.62809C47.1938 9.72822 47.1938 11.8622 47.1938 13.9199L47.1782 14.1486Z"></path>
<path fill="black" d="M41.8069 13.1326C41.8069 13.0225 41.8069 12.9378 41.6665 12.9462H38.031C37.9218 12.9462 37.8905 12.9462 37.8905 13.0987C37.8905 13.412 37.8905 13.7338 37.8905 14.0387C37.7735 13.9201 37.6643 13.81 37.5472 13.7084C36.599 12.8336 35.3391 12.4668 34.1147 12.7092C32.7096 12.8992 31.4421 13.7192 30.6195 14.9702C29.4948 16.5934 29.084 18.6712 29.4961 20.6523C29.7446 22.312 30.6142 23.7863 31.899 24.7254C33.2286 25.7332 34.9317 25.9616 36.4472 25.3352C37.0165 25.1194 37.5135 24.7242 37.8749 24.2004C37.8749 24.5561 37.8749 24.861 37.8749 25.1659C37.8749 25.3013 37.8749 25.3522 38.0388 25.3522C39.2402 25.3522 40.4417 25.3522 41.6431 25.3522C41.7756 25.3522 41.7913 25.3099 41.7913 25.1743C41.7913 24.6747 41.7913 24.1835 41.7913 23.684L41.8069 13.1326ZM35.6281 21.7023C34.3355 21.7023 33.2876 20.5649 33.2876 19.1618C33.2876 17.7588 34.3355 16.6214 35.6281 16.6214C36.9208 16.6214 37.9686 17.7588 37.9686 19.1618C37.9685 20.5649 36.9207 21.7023 35.6281 21.7023Z"></path>
<path fill="black" d="M67.1412 18.1971C66.9313 16.2195 65.8488 14.4761 64.239 13.5227C63.0045 12.7624 61.5679 12.4816 60.1667 12.7267C58.5287 12.9271 57.0459 13.8718 56.0864 15.3264C55.2332 16.6098 54.8472 18.1901 55.0019 19.7637C55.0889 21.1683 55.6113 22.4995 56.4842 23.5406C57.6611 24.9354 59.3374 25.7078 61.0794 25.6576C61.2354 25.6576 61.3914 25.6576 61.5396 25.6576C61.6879 25.6576 61.8986 25.6576 62.078 25.5983C65.3159 25.1351 67.595 21.9105 67.1682 18.3959C67.1601 18.3294 67.1512 18.2631 67.1412 18.1971ZM61.0715 21.6606C59.779 21.6606 58.731 20.5232 58.731 19.1201C58.731 17.717 59.779 16.5796 61.0715 16.5796C62.3642 16.5796 63.412 17.7169 63.412 19.1201C63.4604 20.4708 62.4908 21.6081 61.2466 21.6606C61.1883 21.6631 61.1299 21.6631 61.0715 21.6606Z"></path>
<path fill="black" d="M80.0998 18.3915C79.9766 16.8639 79.3276 15.4428 78.2821 14.4114C76.8643 12.972 74.9033 12.344 72.9927 12.7177C70.0127 13.1494 67.8122 15.9507 67.8905 19.2128C67.8905 19.3313 67.8905 19.526 67.8905 19.7209C67.8905 19.9156 67.8905 19.8987 67.8905 19.9834C68.0749 21.9876 69.1498 23.7677 70.7692 24.751C72.0266 25.5542 73.5036 25.8537 74.9431 25.5977C76.5372 25.3884 77.9789 24.4679 78.9218 23.0573C79.855 21.7256 80.277 20.0536 80.0998 18.3915ZM74.0303 21.6602C72.7381 21.6879 71.6697 20.5732 71.6442 19.1703C71.6186 17.7676 72.6457 16.6079 73.9379 16.5803C75.2304 16.5526 76.2987 17.6674 76.3242 19.0702C76.3249 19.1065 76.3247 19.1428 76.324 19.179C76.3414 20.5305 75.3462 21.6415 74.1011 21.6604C74.0775 21.6606 74.0539 21.6606 74.0303 21.6602Z"></path>
<path fill="black" d="M82.1091 18.6876L82.6162 17.3497L86.3376 7.61137C86.3376 7.5182 86.4 7.45047 86.5248 7.45047H91.2057C91.0107 7.95853 90.8235 8.46667 90.6284 8.9662C89.4114 12.1447 88.1969 15.3258 86.985 18.5099C86.9583 18.6276 86.8537 18.7043 86.7432 18.6877L82.1091 18.6876Z"></path>
<path fill="black" d="M83.2664 25.5726C81.8275 25.5869 80.6502 24.332 80.6371 22.7701C80.6369 22.7446 80.6369 22.7188 80.6375 22.6933C80.6501 21.0706 81.8723 19.7662 83.3673 19.78C83.3754 19.78 83.3833 19.7801 83.3913 19.7802C84.8217 19.7613 85.9954 21.0045 86.0129 22.5572C86.0131 22.5855 86.0131 22.614 86.0127 22.6425C86.0129 24.2607 84.8045 25.5726 83.3136 25.5729C83.2979 25.5729 83.2823 25.5727 83.2664 25.5726Z"></path>
<path fill="black" d="M147.687 22.2221C147.633 22.3411 147.602 22.4706 147.595 22.6027C147.333 23.9035 146.496 24.98 145.36 25.4785C144.609 25.8522 143.798 26.06 142.972 26.0903C141.261 26.2165 139.546 25.8991 137.969 25.1644C137.65 24.9992 137.346 24.8172 137.042 24.6356C137.042 24.6356 136.951 24.5199 137.042 24.4373C137.513 23.4122 137.984 22.371 138.441 21.3459C138.441 21.2139 138.562 21.2467 138.638 21.3459C139.518 21.8719 140.475 22.2296 141.467 22.4041C141.941 22.4789 142.422 22.4789 142.896 22.4041C143.014 22.3908 143.128 22.3511 143.231 22.2883C143.424 22.199 143.514 21.956 143.431 21.7462C143.393 21.6483 143.321 21.5699 143.231 21.5283C142.988 21.3851 142.726 21.2847 142.455 21.2307C141.641 21.0519 140.838 20.8141 140.053 20.5197C139.5 20.3028 138.985 19.9841 138.532 19.5777C137.842 18.8964 137.478 17.9098 137.543 16.8999C137.535 15.1387 138.583 13.5774 140.128 13.0483C140.957 12.7225 141.833 12.5657 142.714 12.5855C144.358 12.615 145.975 13.0502 147.443 13.8583C147.549 13.8583 147.549 13.9575 147.443 14.0567C147.047 15.0817 146.637 16.0898 146.242 17.1148C146.242 17.2469 146.15 17.2637 146.029 17.214C145.32 16.8079 144.562 16.5129 143.778 16.3378C143.28 16.2126 142.766 16.1791 142.257 16.2386C142.141 16.248 142.03 16.2939 141.938 16.371C141.77 16.4748 141.711 16.7066 141.807 16.8893C141.838 16.9491 141.883 16.9982 141.938 17.0325C142.151 17.1472 142.376 17.2361 142.607 17.2968C143.48 17.5232 144.338 17.8101 145.177 18.1561C145.727 18.3805 146.24 18.6985 146.698 19.0984C147.249 19.5856 147.608 20.2834 147.702 21.0487C147.702 21.0487 147.702 21.1314 147.702 21.1645L147.687 22.2221Z"></path>
<path fill="black" d="M127.744 18.9992C127.487 19.787 127.245 20.6065 127.003 21.3782C126.595 22.7284 126.172 24.0789 125.764 25.4291C125.742 25.5476 125.635 25.6259 125.523 25.606H122.197C122.102 25.6262 122.008 25.5623 121.986 25.4612L118.162 13.3083C118.162 13.1474 118.162 13.1151 118.283 13.1312H122.273C122.409 13.1312 122.469 13.1312 122.5 13.2921C123.074 15.3498 123.663 17.3913 124.238 19.4329C124.238 19.4329 124.238 19.5294 124.238 19.5616L124.691 18.0827C125.19 16.4751 125.674 14.8675 126.203 13.2599C126.203 13.1312 126.203 13.067 126.414 13.067H129.256C129.392 13.067 129.437 13.067 129.482 13.2438C130.102 15.2692 130.707 17.295 131.326 19.3204C131.326 19.3204 131.326 19.4329 131.326 19.5133C131.376 19.4371 131.407 19.3485 131.417 19.2562L133.14 13.2597C133.14 13.115 133.231 13.0508 133.397 13.0508H137.251C137.447 13.0508 137.447 13.0508 137.387 13.2437L133.533 25.461C133.54 25.5584 133.471 25.6435 133.379 25.6504C133.343 25.6532 133.307 25.6432 133.276 25.6217H129.981C129.86 25.6217 129.8 25.6217 129.77 25.461L127.82 19.1918C127.82 19.1921 127.805 19.0472 127.744 18.9992Z"></path>
<path fill="black" d="M98.0595 14.456C98.2494 14.1421 98.4775 13.8574 98.7373 13.6087C99.3074 13.0367 100.041 12.6917 100.816 12.6309C102.873 12.2953 104.802 13.7905 105.17 16.004C105.28 16.5391 105.33 17.0857 105.321 17.6333V25.39C105.321 25.5367 105.321 25.5855 105.155 25.5855H101.193C101.057 25.5855 101.027 25.5855 101.027 25.4062V18.8066C101.036 18.4745 100.99 18.1436 100.892 17.8288C100.726 17.2636 100.25 16.8718 99.7014 16.8517C99.1664 16.7805 98.6441 17.0629 98.3755 17.5682C98.1665 17.9416 98.057 18.3703 98.0593 18.8066V25.4713C98.0593 25.6182 98.0593 25.6506 97.9086 25.6506H93.9314C93.7957 25.6506 93.7656 25.6506 93.7656 25.4713C93.7656 21.3761 93.7656 17.2752 93.7656 13.1687C93.7656 13.022 93.7656 13.0056 93.9314 13.0056H97.8937C98.0292 13.0056 98.0742 13.0056 98.0595 13.1852V14.456Z"></path>
<path fill="black" d="M118.308 17.4686C117.942 15.588 116.768 14.009 115.147 13.2173C113.988 12.6399 112.696 12.4513 111.438 12.6759C109.459 12.9587 107.746 14.2968 106.877 16.2374C106.187 17.7186 106.003 19.4164 106.361 21.03C106.692 23.2231 108.147 25.0233 110.115 25.6746C111.737 26.2648 113.494 26.2648 115.116 25.6746C116.346 25.2274 117.39 24.3268 118.065 23.1305C118.065 23.0485 118.157 22.9994 118.065 22.9335L114.615 21.5224C114.562 21.4633 114.476 21.4614 114.421 21.5178C114.42 21.5194 114.418 21.521 114.417 21.5224C113.841 22.3119 112.884 22.6541 111.985 22.3922C111.217 22.2285 110.617 21.5804 110.465 20.7509C110.465 20.6031 110.465 20.5375 110.617 20.5375H118.308C118.567 20.5375 118.567 20.5375 118.582 20.2585C118.631 19.3187 118.539 18.3762 118.308 17.4686ZM114.174 17.8625H110.556C110.404 17.8625 110.389 17.8625 110.419 17.6816C110.575 16.8799 111.186 16.2732 111.939 16.172C112.424 16.0767 112.925 16.1514 113.368 16.3854C113.847 16.6217 114.192 17.0916 114.295 17.6492C114.386 17.7476 114.386 17.8297 114.204 17.8297L114.174 17.8625Z"></path>
<path fill="black" d="M248.918 14.8672C248.918 12.7666 248.959 10.8109 249.081 9L242.825 10.0503V10.5573L243.439 10.6298C243.888 10.666 244.175 10.8109 244.338 11.0282C244.502 11.2817 244.624 11.6439 244.706 12.1871C244.788 13.2374 244.87 15.6278 244.829 19.3944C244.829 23.1247 244.788 25.4789 244.706 26.3843C246.955 26.8189 248.713 27 250.022 27C252.475 27 254.397 26.3843 255.787 25.1167C257.177 23.8853 257.913 22.1469 257.913 20.0101C257.913 18.3078 257.382 16.8954 256.319 15.7726C255.255 14.6499 253.906 14.1066 252.311 14.1066C251.248 14.1066 250.144 14.3602 248.918 14.8672ZM249.04 26.0221C248.959 24.8632 248.877 21.3863 248.877 15.7002C249.245 15.5915 249.735 15.5191 250.349 15.5191C251.33 15.5191 252.107 15.9537 252.679 16.8592C253.252 17.7646 253.538 18.8511 253.538 20.2274C253.538 21.9296 253.211 23.3058 252.557 24.4648C251.903 25.5875 251.085 26.167 250.063 26.167C249.735 26.0946 249.408 26.0583 249.04 26.0221ZM219.355 9.36217H203V10.0865L203.859 10.159C204.513 10.2676 204.963 10.4849 205.249 10.8109C205.535 11.173 205.699 11.7525 205.74 12.5493C206.067 16.4608 206.067 20.1187 205.74 23.4869C205.658 24.2837 205.494 24.8632 205.249 25.2254C204.963 25.5875 204.513 25.8048 203.859 25.8773L203 25.9859V26.7103H213.549V25.9859L212.445 25.9135C211.791 25.841 211.341 25.5875 211.055 25.2616C210.769 24.8994 210.605 24.3199 210.564 23.5231C210.442 22.0744 210.36 20.4085 210.36 18.5614L212.568 18.5976C213.754 18.6338 214.571 19.4306 214.98 21.0241H215.798V15.1207H214.98C214.571 16.6781 213.795 17.4748 212.568 17.5111L210.36 17.5473C210.36 14.2877 210.442 11.9698 210.564 10.5573H213.795C216.084 10.5573 217.638 11.8612 218.538 14.4688L219.519 14.2153L219.355 9.36217ZM217.434 20.5171C217.434 22.4004 218.047 23.9577 219.233 25.1891C220.418 26.4205 222.177 27 224.385 27C226.593 27 228.392 26.3843 229.7 25.1167C231.009 23.8853 231.622 22.328 231.622 20.4447C231.622 18.5614 231.009 17.004 229.823 15.7726C228.637 14.5412 226.879 13.9618 224.671 13.9618C222.463 13.9618 220.664 14.5775 219.355 15.8451C218.047 17.0765 217.434 18.6338 217.434 20.5171ZM226.552 16.3883C227.042 17.4386 227.247 18.8149 227.247 20.4809C227.247 24.3199 226.347 26.2032 224.589 26.2032C223.69 26.2032 222.994 25.66 222.504 24.5734C222.013 23.4869 221.809 22.1107 221.809 20.4809C221.809 16.6781 222.708 14.7948 224.466 14.7948C225.366 14.7586 226.061 15.3018 226.552 16.3883ZM261.102 25.1891C262.452 26.3843 264.169 27 266.214 27C267.481 27 268.585 26.7827 269.566 26.3119C270.548 25.8773 271.325 25.334 271.856 24.6821L271.447 24.2475C270.548 24.8632 269.525 25.1529 268.34 25.1529C266.704 25.1529 265.437 24.6821 264.578 23.7042C263.678 22.7264 263.27 21.495 263.351 19.9014H272.101C272.101 18.163 271.611 16.7505 270.589 15.6278C269.566 14.5412 268.135 13.998 266.295 13.998C264.006 13.998 262.247 14.6499 260.98 15.9175C259.712 17.1851 259.099 18.7425 259.099 20.5895C259.099 22.4728 259.753 23.994 261.102 25.1891ZM264.128 16.0986C264.578 15.2294 265.15 14.7948 265.927 14.7948C267.154 14.7948 267.767 16.171 267.767 18.9598L263.433 19.0322C263.474 17.9457 263.678 16.9678 264.128 16.0986ZM283.1 14.6499C281.996 14.2153 280.606 13.9618 278.93 13.9618C277.213 13.9618 275.863 14.3602 274.841 15.1207C273.819 15.8813 273.287 16.8229 273.287 17.9457C273.287 18.9235 273.614 19.6841 274.228 20.2274C274.841 20.7706 275.822 21.2414 277.09 21.6398C278.235 22.002 279.052 22.3642 279.461 22.6901C279.87 23.0523 280.116 23.4507 280.116 23.994C280.116 24.501 279.911 24.9718 279.461 25.334C279.052 25.7324 278.48 25.9135 277.744 25.9135C275.945 25.9135 274.596 24.7545 273.655 22.4366L272.96 22.6177L273.124 26.2394C274.596 26.7465 276.231 27 278.03 27C279.911 27 281.342 26.6378 282.405 25.8773C283.468 25.1529 284 24.1026 284 22.7988C284 21.9296 283.755 21.2052 283.223 20.662C282.692 20.1187 281.833 19.6479 280.606 19.2133C279.257 18.7787 278.317 18.3803 277.826 18.0181C277.335 17.6559 277.09 17.2213 277.09 16.6781C277.09 16.1348 277.253 15.7002 277.621 15.338C277.989 14.9759 278.439 14.831 279.012 14.831C280.647 14.831 281.833 15.8813 282.569 17.9457L283.264 17.7646L283.1 14.6499ZM243.766 14.3239C243.193 14.0704 242.58 13.9618 241.885 13.9618C241.19 13.9618 240.495 14.2153 239.718 14.7223C238.941 15.2294 238.368 15.9175 237.919 16.8592L237.96 13.9618L231.745 15.0483V15.5553L232.358 15.5915C233.135 15.664 233.585 16.2072 233.666 17.1851C233.912 19.4306 233.912 21.8209 233.666 24.3561C233.585 25.334 233.135 25.841 232.358 25.9497L231.745 26.0221V26.7103H240.413V26.0221L239.309 25.9497C238.532 25.8773 238.082 25.334 238.001 24.3561C237.755 22.2555 237.714 20.0101 237.919 17.6922C238.164 17.33 238.696 17.1127 239.513 17.0402C240.331 16.9678 241.272 17.1851 242.253 17.6922L243.766 14.3239Z"></path>
<path fill="black" d="M90.2357 53.8003C91.1681 53.8009 92.1001 53.7992 93.0326 53.8009C93.3893 54.9154 93.752 56.0276 94.1088 57.1421C94.1366 57.2269 94.1699 57.3101 94.2065 57.3926C94.554 56.1984 94.8785 54.9974 95.2171 53.8009C96.1786 53.7997 97.14 53.8003 98.1015 53.8003C98.102 56.0059 98.1026 58.2116 98.1009 60.4172C97.4072 60.4178 96.7134 60.4166 96.0196 60.4178C96.0327 59.1649 96.0743 57.9126 96.0726 56.6603C95.9923 56.7702 95.9617 56.9063 95.9218 57.035C95.5657 58.1626 95.2046 59.2879 94.85 60.4161C94.3464 60.4189 93.8422 60.4166 93.3385 60.4172C92.9949 59.3204 92.654 58.223 92.311 57.1261C92.2591 56.9655 92.223 56.797 92.1405 56.6495C92.1514 57.9052 92.2033 59.1609 92.2301 60.4166C91.5653 60.4178 90.8999 60.4172 90.2351 60.4172C90.2357 58.2116 90.2346 56.0059 90.2357 53.8003Z"></path>
<path fill="black" d="M101.043 53.8001C101.8 53.8018 102.558 53.7995 103.315 53.8012C104.139 56.0069 104.966 58.2114 105.789 60.4176C105.014 60.4176 104.238 60.4181 103.463 60.4176C103.354 60.0947 103.239 59.7746 103.136 59.4506C102.464 59.4398 101.791 59.4494 101.119 59.4454C101.012 59.7695 100.91 60.0947 100.803 60.4181C100.049 60.417 99.2946 60.4181 98.5408 60.4176C99.3744 58.2114 100.207 56.0052 101.043 53.8001ZM101.629 57.7438C101.971 57.7449 102.313 57.7449 102.655 57.7438C102.486 57.2028 102.318 56.6612 102.148 56.1208C101.971 56.6606 101.803 57.2028 101.629 57.7438Z"></path>
<path fill="black" d="M106.232 53.8005C106.92 53.8005 107.608 53.8005 108.297 53.8005C108.299 54.6178 108.295 55.4344 108.299 56.2516C108.879 55.4418 109.424 54.5984 110.019 53.8051C110.853 53.7943 111.686 53.804 112.52 53.8005C111.727 54.812 110.928 55.8188 110.136 56.8308C110.971 58.025 111.803 59.221 112.636 60.4175C111.762 60.418 110.888 60.4175 110.014 60.4175C109.443 59.5348 108.878 58.6481 108.306 57.7665C108.301 58.6498 108.305 59.5336 108.304 60.4175C107.613 60.418 106.923 60.4175 106.232 60.4175C106.231 58.2118 106.231 56.0062 106.232 53.8005Z"></path>
<path fill="black" d="M113.072 53.8006C114.528 53.8006 115.985 53.8006 117.442 53.8006C117.442 54.418 117.442 55.0347 117.442 55.6515C116.655 55.652 115.869 55.6515 115.083 55.652C115.082 55.8417 115.082 56.0313 115.083 56.221C115.821 56.2215 116.56 56.2204 117.298 56.2215C117.298 56.7979 117.298 57.3742 117.298 57.9505C116.56 57.9517 115.821 57.9505 115.083 57.9511C115.082 58.1561 115.082 58.3611 115.083 58.5667C115.921 58.5673 116.758 58.5661 117.596 58.5667C117.595 59.184 117.596 59.8008 117.595 60.4181C116.087 60.4176 114.58 60.4176 113.072 60.4176C113.071 58.2119 113.071 56.0063 113.072 53.8006Z"></path>
<path fill="black" d="M98.2781 61.6636C99.5329 61.1345 101.063 61.4227 102.058 62.3817C101.617 62.8533 101.172 63.3214 100.731 63.7941C100.445 63.4427 100.012 63.2189 99.5673 63.2263C99.4341 63.2348 99.2926 63.2582 99.185 63.3442C99.0659 63.4541 99.1036 63.6824 99.2543 63.7388C99.829 64.0036 100.467 64.1192 101.002 64.4757C101.406 64.7303 101.751 65.1301 101.849 65.6216C101.965 66.2577 101.818 66.9525 101.413 67.4502C100.939 68.0504 100.19 68.342 99.4608 68.3853C98.4322 68.44 97.379 68.0909 96.5896 67.3978C97.0233 66.9052 97.4582 66.4137 97.8925 65.9223C98.2503 66.2901 98.7294 66.5624 99.2418 66.5669C99.3827 66.5641 99.5362 66.5453 99.6537 66.4547C99.7886 66.3329 99.7356 66.092 99.5821 66.0145C99.1762 65.7702 98.7086 65.6774 98.2803 65.4872C97.8925 65.3209 97.5095 65.0902 97.2642 64.7252C96.9561 64.2827 96.9146 63.6955 97.0141 63.1733C97.149 62.4842 97.6652 61.9278 98.2781 61.6636Z"></path>
<path fill="black" d="M90.1472 61.5851C90.8596 61.5851 91.5724 61.5846 92.2848 61.5857C92.2837 62.8574 92.2859 64.1285 92.2837 65.4002C92.2815 65.7236 92.3995 66.091 92.6901 66.2504C93.0512 66.4725 93.5844 66.3803 93.8144 66.0015C93.9203 65.8222 93.9695 65.6109 93.9679 65.4013C93.9668 64.1296 93.9684 62.8574 93.9673 61.5857C94.6764 61.5846 95.3855 61.5851 96.0951 61.5851C96.094 62.9513 96.0962 64.3176 96.094 65.6832C96.0847 66.4412 95.7881 67.214 95.2145 67.6963C94.5781 68.2499 93.7166 68.4242 92.907 68.3917C92.1324 68.3661 91.3255 68.1052 90.7885 67.497C90.3406 66.9993 90.1505 66.3017 90.1472 65.6308C90.1472 64.2822 90.1472 62.9337 90.1472 61.5851Z"></path>
<path fill="black" d="M102.716 61.5851C104.173 61.5851 105.63 61.5846 107.086 61.5857C107.085 62.2036 107.086 62.8215 107.086 63.4394C106.301 63.44 105.516 63.4394 104.731 63.4394C104.73 63.6279 104.729 63.8164 104.731 64.0049C105.468 64.006 106.205 64.0049 106.943 64.0055C106.943 64.5835 106.943 65.161 106.943 65.739C106.205 65.7396 105.468 65.7379 104.73 65.7396C104.73 65.9435 104.73 66.1468 104.73 66.3506C105.567 66.3518 106.403 66.3501 107.239 66.3512C107.24 66.9691 107.24 67.587 107.239 68.2055C105.732 68.206 104.224 68.2055 102.716 68.2055C102.715 65.9987 102.716 63.7919 102.716 61.5851Z"></path>
<path fill="black" d="M92.7632 69.2477C93.7973 69.0746 94.927 69.2665 95.7765 69.9328C96.3856 70.4021 96.8002 71.1219 96.9422 71.8953C97.105 72.7871 96.9826 73.7518 96.5249 74.5332C96.1283 75.216 95.4809 75.7263 94.7549 75.9689C93.8667 76.2701 92.8796 76.2468 92.0066 75.8994C91.2932 75.6118 90.6808 75.0537 90.3306 74.343C89.9127 73.4978 89.8406 72.4819 90.0941 71.573C90.3077 70.8019 90.8124 70.1253 91.4778 69.721C91.87 69.4744 92.3131 69.3275 92.7632 69.2477ZM93.2581 71.2455C92.8271 71.3121 92.4475 71.6402 92.3131 72.0735C92.1055 72.7006 92.2442 73.5041 92.7861 73.9022C93.2445 74.2342 93.9246 74.1818 94.319 73.7638C94.779 73.2792 94.8467 72.4745 94.555 71.8793C94.3135 71.4033 93.7612 71.1481 93.2581 71.2455Z"></path>
<path fill="black" d="M97.8992 75.9927C97.9003 73.7859 97.8981 71.5791 97.9003 69.3729C99.3293 69.3729 100.758 69.3723 102.188 69.3729C102.188 69.9936 102.188 70.6138 102.188 71.2346C101.456 71.2351 100.725 71.2334 99.9925 71.2351C99.9925 71.4646 99.9925 71.6942 99.9925 71.9242C100.638 71.9259 101.283 71.9237 101.928 71.9254C101.933 72.5307 101.919 73.1367 101.936 73.742C101.292 73.7631 100.647 73.7449 100.003 73.7512C100.002 74.4983 100.003 75.2455 100.003 75.9932C99.3015 75.9932 98.6 75.9938 97.8992 75.9927Z"></path>
<path fill="black" d="M102.707 74.6933C104.202 74.6927 105.698 74.6933 107.193 74.6927C107.193 75.1876 107.193 75.6825 107.193 76.1774C105.698 76.1774 104.202 76.1768 102.707 76.1774C102.706 75.6825 102.707 75.1881 102.707 74.6933Z"></path>
<path fill="black" d="M81.78 76.2025C83.8646 74.0282 85.9498 71.8545 88.0354 69.6813C88.036 71.855 88.036 74.0293 88.0354 76.2031C87.1415 76.2029 86.2476 76.2029 85.3537 76.203C84.1625 76.2031 82.9713 76.2032 81.78 76.2025Z"></path>
<path fill="black" d="M74.5776 61.7487C73.8452 61.7481 73.1127 61.7474 72.3801 61.7488V67.9164C74.2604 67.9169 76.1407 67.9175 78.0204 67.9164C78.0194 67.1249 78.0199 66.3335 78.0205 65.5421C78.0214 64.276 78.0223 63.01 78.0166 61.7442C76.8703 61.7508 75.724 61.7498 74.5776 61.7487Z"></path>
<path fill="black" d="M53.8394 53.837C53.7782 53.8342 53.7285 53.8581 53.6902 53.9099C51.5997 56.0926 49.5075 58.2732 47.4152 60.4538C46.6103 61.2927 45.8054 62.1315 45.0006 62.9706C45.0001 67.3613 44.9995 71.7521 45.0006 76.1429C49.7594 76.1422 54.5182 76.1425 59.277 76.1427C65.9404 76.1431 72.6038 76.1435 79.2674 76.1412C79.9061 75.475 80.5446 74.8087 81.1832 74.1424C83.4542 71.7727 85.7254 69.4028 88.0018 67.0384C88.0028 64.3976 88.0026 61.7567 88.0024 59.1157C88.0023 57.356 88.0022 55.5963 88.0024 53.8365C85.1547 53.8365 82.307 53.8364 79.4593 53.8364C70.9193 53.8363 62.3793 53.8362 53.8394 53.837ZM62.9587 64.7722C62.9585 63.5387 62.9583 62.3052 62.96 61.0719C62.9529 60.8236 63.1261 60.5889 63.355 60.5263C63.5855 60.4676 63.8663 60.5115 64.0127 60.7239C64.1268 60.8694 64.1238 61.0573 64.1209 61.2373C64.1202 61.2779 64.1196 61.318 64.1203 61.3572C64.1195 62.9974 64.1196 64.6379 64.1197 66.2783C64.1197 66.8244 64.1197 67.3705 64.1197 67.9166C65.9121 67.9172 67.7044 67.9172 69.4967 67.9166C69.4973 66.7759 69.4973 65.6351 69.4973 64.4942C69.4973 63.3533 69.4973 62.2123 69.4978 61.0713C69.4842 60.7535 69.771 60.4813 70.0714 60.5047C70.3746 60.4722 70.6729 60.7433 70.6548 61.0667C70.6553 62.045 70.6551 63.0233 70.6549 64.0016C70.6546 65.3989 70.6543 66.7962 70.6559 68.1934C70.6456 68.6603 70.2479 69.0738 69.7994 69.0829C68.3697 69.0805 66.9401 69.0809 65.5104 69.0814C64.9385 69.0816 64.3666 69.0818 63.7947 69.0818C63.3517 69.0647 62.9627 68.6518 62.9578 68.1888C62.9591 67.0499 62.9589 65.9111 62.9587 64.7722ZM59.3976 63.0971C59.9558 62.3704 60.514 61.6438 61.0732 60.9181C61.237 60.6989 61.502 60.5758 61.7669 60.5838C61.8068 60.5858 61.8485 60.5844 61.8907 60.583C62.0225 60.5788 62.1592 60.5743 62.2619 60.6692C62.4094 60.8014 62.3984 61.0531 62.2679 61.1943C62.0046 61.537 61.7414 61.8797 61.4782 62.2224C60.551 63.4295 59.6237 64.6367 58.6958 65.8436C58.5297 66.0498 58.244 66.1842 57.9889 66.0908C57.8354 66.0424 57.7015 65.9405 57.6016 65.8106C56.8601 64.8745 56.117 63.9392 55.3741 63.0041C55.2429 62.8389 55.1117 62.6738 54.9805 62.5087C54.98 63.4305 54.9801 64.3525 54.9802 65.2745C54.9803 66.3808 54.9803 67.4873 54.9795 68.5937C54.9898 68.8722 54.768 69.1296 54.5031 69.1552C54.1901 69.2241 53.8279 68.9958 53.8246 68.6433C53.8216 67.1228 53.8221 65.6024 53.8225 64.0821C53.8228 63.0985 53.8231 62.1151 53.8224 61.1317C53.8148 60.8822 53.9967 60.6487 54.2294 60.5969C54.6009 60.5337 54.9953 60.6971 55.2291 61.0047C55.7875 61.7098 56.3452 62.4157 56.9029 63.1215C57.3212 63.651 57.7396 64.1806 58.1582 64.7098C58.5717 64.1724 58.9847 63.6348 59.3976 63.0971ZM71.2208 61.4671C71.2301 61.0263 71.5852 60.6334 72.0047 60.5878C73.1412 60.5829 74.2778 60.5836 75.4146 60.5843C76.3842 60.5849 77.3538 60.5856 78.3235 60.5827C78.7747 60.5867 79.1767 61.0035 79.1838 61.4745C79.1833 63.5993 79.1833 65.724 79.1838 67.8488C79.1832 67.8944 79.184 67.9403 79.1848 67.9865C79.1876 68.1492 79.1904 68.3138 79.1325 68.4673C79.015 68.817 78.6807 69.0778 78.3235 69.0823C76.2465 69.0806 74.169 69.0795 72.0921 69.0829C71.6376 69.0858 71.2279 68.6683 71.2202 68.1945C71.2219 65.9518 71.2213 63.7092 71.2208 61.4671ZM61.5426 63.2357C61.646 63.0956 61.7507 62.9536 61.8991 62.8646C62.1302 62.7445 62.382 62.9848 62.3651 63.2325C62.3698 64.407 62.369 65.5814 62.3683 66.7558C62.3679 67.3685 62.3675 67.9811 62.3678 68.5937C62.3826 68.924 62.0739 69.1985 61.7642 69.1609C61.467 69.1792 61.1895 68.9041 61.2108 68.5909C61.2106 67.948 61.2107 67.3051 61.2107 66.6621C61.2108 65.8053 61.2109 64.9485 61.2103 64.0919C61.2037 63.8276 61.2878 63.564 61.449 63.3595C61.4808 63.3194 61.5117 63.2776 61.5426 63.2357Z" clip-rule="evenodd" fill-rule="evenodd"></path>
<path fill="black" d="M218.903 56H207.601V61.6529H218.903V56Z"></path>
<path fill="black" d="M185 56V61.6529H190.672V73H196.302V61.6529H201.973V56H185Z"></path>
<path fill="black" d="M201.973 72.9996H218.946V67.3466H207.603V61.6525L201.973 61.6529L201.973 72.9996Z"></path>
<path fill="black" d="M233.358 60.291H225.039V62.6429H227.812V70.0288H230.585V62.6429H233.358V60.291Z"></path>
<path fill="black" d="M236.468 62.5608C234.493 62.5608 233.065 63.8399 233.065 66.3569C233.065 68.5851 234.283 70.153 236.552 70.153C237.728 70.153 238.653 69.8642 239.577 69.3278L238.611 67.7186C237.854 68.0899 237.35 68.2137 236.678 68.2137C235.964 68.2137 235.502 67.8424 235.418 67.0584H239.787C239.787 66.9346 239.787 66.7695 239.787 66.5632C239.787 63.8812 238.527 62.5608 236.468 62.5608ZM235.418 65.5317C235.502 64.789 235.838 64.4176 236.426 64.4176C237.182 64.4176 237.434 64.789 237.56 65.5317H235.418Z"></path>
<path fill="black" d="M244.617 68.1309C243.902 68.1309 243.566 67.5119 243.566 66.3566C243.566 65.2013 243.902 64.5411 244.533 64.5411C245.079 64.5411 245.331 64.8299 245.667 65.4901L247.431 64.1697C246.759 63.1382 245.961 62.5192 244.575 62.5192C242.18 62.5192 241.045 64.0459 241.045 66.3153C241.045 68.7911 242.348 70.1527 244.533 70.1527C245.835 70.1527 246.675 69.6576 247.516 68.4197L245.919 67.1818C245.457 67.8833 245.121 68.1309 244.617 68.1309Z"></path>
<path fill="black" d="M253.44 62.5606C252.558 62.5606 252.054 62.8494 251.55 63.2208V59.8786L248.987 60.8689V70.029H251.55V65.8616C251.55 64.9538 251.886 64.7062 252.432 64.7062C252.936 64.7062 253.272 64.9538 253.272 65.9028V70.029H255.835V65.5727C255.835 63.6334 255.037 62.5606 253.44 62.5606Z"></path>
<path fill="black" d="M261.968 67.8422C260.792 67.8422 260.288 66.6456 260.288 65.1601C260.288 63.6334 260.792 62.4781 261.926 62.4781C262.85 62.4781 263.186 63.0558 263.523 63.9635L266.001 63.0145C265.329 61.1577 264.363 60.1262 261.926 60.1262C259.279 60.1262 257.389 62.0242 257.389 65.1601C257.389 68.0485 258.943 70.1941 261.926 70.1941C264.279 70.1941 265.371 68.9562 266.043 67.6771L263.733 66.4805C263.229 67.3883 262.85 67.8422 261.968 67.8422Z"></path>
<path fill="black" d="M270.203 63.2623V62.7259H267.64V70.0292H270.203V66.0268C270.203 65.1191 270.581 64.8302 271.211 64.8302C271.715 64.8302 272.093 65.0778 272.387 65.4492L272.976 62.8496C272.682 62.6846 272.303 62.5608 271.757 62.5608C271.127 62.5608 270.623 62.8496 270.203 63.2623Z"></path>
<path fill="black" d="M278.479 66.8931C278.479 67.8008 278.143 68.0484 277.639 68.0484C277.135 68.0484 276.799 67.8008 276.799 66.8518V62.7256H274.236V67.1819C274.236 69.1212 275.034 70.194 276.631 70.194C277.513 70.194 278.017 69.9052 278.479 69.5338V70.029H281.042V62.7256H278.479V66.8931Z"></path>
<path fill="black" d="M287.303 62.5608C286.421 62.5608 285.917 62.8496 285.412 63.221V62.7259H282.892V70.0292H285.454V65.8618C285.454 64.954 285.791 64.7064 286.337 64.7064C286.841 64.7064 287.177 64.954 287.177 65.903V70.0292H289.74V65.5729C289.74 63.6336 288.942 62.5608 287.303 62.5608Z"></path>
<path fill="black" d="M294.78 68.1309C294.066 68.1309 293.73 67.5119 293.73 66.3566C293.73 65.2013 294.066 64.5411 294.696 64.5411C295.242 64.5411 295.494 64.8299 295.83 65.4901L297.595 64.1697C296.923 63.1382 296.124 62.5192 294.738 62.5192C292.343 62.5192 291.209 64.0459 291.209 66.3153C291.209 68.7911 292.511 70.1527 294.696 70.1527C295.998 70.1527 296.839 69.6576 297.679 68.4197L296.082 67.1818C295.62 67.8833 295.284 68.1309 294.78 68.1309Z"></path>
<path fill="black" d="M303.605 62.5606C302.723 62.5606 302.219 62.8494 301.715 63.2208V59.8786L299.152 60.8689V70.029H301.715V65.8616C301.715 64.9538 302.051 64.7062 302.597 64.7062C303.101 64.7062 303.437 64.9538 303.437 65.9028V70.029H306V65.5727C306 63.6334 305.202 62.5606 303.605 62.5606Z"></path>
<path fill="black" d="M15.6951 116.335L17.3782 116.069V100.705L15.5 100.464L15.5976 98.7998H27.3547L27.062 103.455L24.7203 103.382L24.5739 100.464H20.9395V107.386H22.525L22.8909 105.794L24.5252 105.843V110.618H22.8909L22.5006 108.978H20.9151V116.31H24.5739L24.9154 113.127L27.3791 113.199L27.5742 118.047H15.622L15.6951 116.335Z"></path>
<path fill="black" d="M28.6679 118.071L28.7411 116.648L30.0583 116.383V106.687L28.5216 106.542V105.095L32.3755 104.54L32.6682 105.36V105.915C33.5952 104.95 34.7172 104.371 36.1563 104.371C38.2541 104.371 39.8152 105.625 39.8152 108.11V116.358L41.2056 116.624L41.1324 118.047H36.5466V108.833C36.5466 107.507 36.0588 106.759 34.8392 106.759C34.4245 106.759 34.1318 106.831 33.8147 106.952C33.6195 107.121 33.4244 107.362 33.2537 107.579V116.407L34.644 116.672L34.5465 118.095H28.6679V118.071Z"></path>
<path fill="black" d="M102.361 118.071L102.41 116.648L103.727 116.383V106.687L102.19 106.542V105.095L106.044 104.54L106.337 105.36V105.915C107.264 104.95 108.386 104.371 109.825 104.371C111.923 104.371 113.484 105.625 113.484 108.11V116.358L114.874 116.624L114.801 118.047H110.24V108.833C110.24 107.507 109.752 106.759 108.532 106.759C108.117 106.759 107.825 106.831 107.508 106.952C107.313 107.121 107.117 107.362 106.947 107.579V116.407L108.337 116.672L108.239 118.095H102.361V118.071Z"></path>
<path fill="black" d="M48.4787 117.805C47.9421 118.022 46.9908 118.263 45.7468 118.263C44.1125 118.263 42.6002 117.54 42.6002 115.176V106.686L41.039 106.445L41.1122 104.757L42.8685 104.684L43.6246 102.104L45.8687 102.007V104.781H48.2836L48.1128 106.469L45.8931 106.71V115.2C45.8931 115.9 46.2834 116.358 47.0152 116.358H48.3323L48.4787 117.805Z"></path>
<path fill="black" d="M139.778 118.071L139.827 116.672L141.071 116.383V106.687L139.607 106.542V105.095L143.608 104.54L143.876 105.481V105.794C144.925 105.022 146.34 104.516 148.047 104.516L148.633 105.022L148.218 108.688L146.023 108.616L145.803 106.662C145.291 106.735 144.803 106.88 144.388 107.169V116.407L145.779 116.696L145.681 118.095H139.778V118.071Z"></path>
<path fill="black" d="M82.3298 118.071L82.403 116.672L83.647 116.383V106.687L82.1835 106.542V105.095L86.1838 104.54L86.4521 105.481V105.794C87.501 105.022 88.9157 104.516 90.6232 104.516L91.2086 105.022L90.7452 108.688L88.5499 108.616L88.3303 106.662C87.8181 106.735 87.3302 106.88 86.9156 107.169V116.407L88.3059 116.696L88.2084 118.095H82.3298V118.071Z"></path>
<path fill="black" d="M49.4491 118.071L49.5223 116.672L50.7663 116.383V106.687L49.3028 106.542V105.095L53.3031 104.54L53.5714 105.481V105.794C54.6203 105.022 56.035 104.516 57.7181 104.516L58.3035 105.022L57.8889 108.688L55.6936 108.616L55.474 106.662C54.9618 106.735 54.4739 106.88 54.0593 107.169V116.407L55.4496 116.696L55.3521 118.095H49.4491V118.071Z"></path>
<path fill="black" d="M62.0897 112.161C62.0897 114.477 63.1142 116.262 65.1388 116.262C66.1876 116.262 67.017 116.045 67.9927 115.586L68.5537 116.865C67.5536 117.661 66.0901 118.264 64.2606 118.264C60.6994 118.264 58.6504 115.225 58.6504 111.317C58.6504 107.989 60.1383 104.347 64.2119 104.347C67.7731 104.347 69.1147 107.603 69.1147 111.221L68.7732 112.089L62.0897 112.161ZM62.0409 110.618L66.1389 110.425C66.0657 108.809 65.7242 106.252 64.1143 106.252C63.724 106.252 63.4557 106.325 62.9679 106.566C62.3093 107.675 62.0409 109.677 62.0409 110.618Z"></path>
<path fill="black" d="M118.774 112.161C118.774 114.477 119.798 116.262 121.823 116.262C122.872 116.262 123.701 116.045 124.677 115.586L125.238 116.865C124.238 117.661 122.774 118.264 120.945 118.264C117.384 118.264 115.335 115.225 115.335 111.317C115.335 107.989 116.823 104.347 120.896 104.347C124.457 104.347 125.799 107.603 125.799 111.221L125.457 112.089L118.774 112.161ZM118.725 110.618L122.823 110.425C122.75 108.809 122.408 106.252 120.799 106.252C120.408 106.252 120.14 106.325 119.652 106.566C118.993 107.675 118.725 109.677 118.725 110.618Z"></path>
<path fill="black" d="M94.9725 112.161C94.9725 114.477 95.997 116.262 98.0215 116.262C99.0704 116.262 99.8997 116.045 100.875 115.586L101.436 116.865C100.436 117.661 98.9728 118.264 97.1434 118.264C93.5821 118.264 91.5332 115.225 91.5332 111.317C91.5332 107.989 93.0211 104.347 97.0946 104.347C100.656 104.347 101.997 107.603 101.997 111.221L101.656 112.089L94.9725 112.161ZM94.9237 110.618L99.0216 110.425C98.9484 108.809 98.6069 106.252 96.997 106.252C96.6068 106.252 96.3384 106.325 95.8506 106.566C95.192 107.675 94.8993 109.677 94.9237 110.618Z"></path>
<path fill="black" d="M135.021 118.071L134.68 116.913C133.777 117.758 132.899 118.264 131.533 118.264C129.435 118.264 127.557 117.227 127.557 114.357V106.349L126.02 106.204V104.926L130.46 104.42L130.801 105.577V113.971C130.801 115.442 131.411 116.214 132.606 116.214C132.948 116.214 133.387 116.166 133.777 116.021C133.997 115.804 134.216 115.539 134.387 115.273V106.349L132.801 106.204V104.926L137.29 104.42L137.631 105.577V116.383L139.021 116.648L138.851 118.071H135.021Z"></path>
<path fill="black" d="M75.7753 116.334C75.0679 116.334 74.5069 116.214 74.0678 115.973V107.458C74.2629 107.169 74.4825 106.904 74.702 106.662C75.1167 106.518 75.4826 106.469 75.9216 106.469C77.751 106.469 78.0681 108.303 78.0681 111.583C78.0681 114.742 77.5803 115.611 77.4583 115.973C76.9461 116.214 76.4095 116.334 75.7753 116.334ZM81.2391 111.004C81.2391 106.928 80.0195 104.371 76.9705 104.371C74.9459 104.371 73.9946 105.529 73.6043 106.011V105.553L73.2629 104.395L69.2869 104.95V106.349L70.8236 106.542V122.991L69.5064 123.257L69.4333 124.631H75.3118L75.4094 123.257L74.019 122.991V117.781C74.58 118.095 75.3606 118.288 76.2143 118.288C81.1903 118.288 81.2391 113.295 81.2391 111.004Z"></path>
<path fill="black" d="M180.895 101.018H192.778C192.776 102.676 192.78 104.337 192.776 105.995C193.324 105.997 193.871 106 194.421 106C194.423 107.109 194.423 108.218 194.417 109.327C194.975 109.327 195.534 109.327 196.092 109.325C196.11 109.891 196.118 110.458 196.127 111.022C196.686 111.022 197.247 111.02 197.807 111.02C197.814 111.584 197.82 112.15 197.827 112.717C197.257 112.719 196.69 112.721 196.123 112.723C196.118 113.287 196.116 113.852 196.11 114.416C195.545 114.416 194.979 114.416 194.414 114.418C194.423 115.521 194.419 116.621 194.425 117.724C193.878 117.756 193.328 117.778 192.78 117.795C192.774 119.354 192.778 120.912 192.778 122.472H180.895C180.897 120.905 180.886 119.339 180.904 117.773C180.354 117.737 179.804 117.715 179.252 117.709C179.252 116.613 179.252 115.516 179.252 114.42C178.667 114.416 178.085 114.412 177.5 114.405V109.338C178.089 109.331 178.678 109.327 179.268 109.327C179.241 111.024 179.25 112.721 179.259 114.418C179.807 114.418 180.354 114.418 180.902 114.418C180.891 115.519 180.902 116.617 180.884 117.715C182.012 117.745 183.14 117.709 184.268 117.72C184.288 118.292 184.292 118.867 184.295 119.442C185.99 119.44 187.685 119.442 189.381 119.44C189.383 118.867 189.385 118.292 189.4 117.717C190.526 117.722 191.652 117.724 192.78 117.717C192.778 116.619 192.78 115.519 192.776 114.418C193.324 114.416 193.871 114.416 194.419 114.414C194.377 112.715 194.524 111.003 194.335 109.31C193.816 109.323 193.297 109.327 192.778 109.333C192.778 108.222 192.778 107.113 192.778 106.002C191.643 105.993 190.509 106 189.374 105.995C189.381 105.453 189.383 104.91 189.383 104.367C188.8 104.367 188.22 104.367 187.637 104.365C187.622 107.149 187.631 109.936 187.633 112.721C187.103 112.721 186.573 112.721 186.043 112.721C186.036 109.936 186.056 107.149 186.032 104.365C185.456 104.367 184.877 104.367 184.301 104.365C184.292 104.908 184.29 105.453 184.29 105.997C183.16 105.997 182.028 105.995 180.897 106.002C180.893 107.111 180.893 108.218 180.9 109.327C180.354 109.329 179.811 109.329 179.268 109.327C179.244 108.218 179.252 107.107 179.255 105.997C179.804 105.997 180.352 105.997 180.902 105.997C180.889 104.339 180.897 102.679 180.895 101.018Z"></path>
<path fill="black" d="M201.977 107.083C202.617 107.081 203.257 107.081 203.898 107.085C203.892 108.323 203.901 109.561 203.888 110.798C205.752 110.809 207.613 110.801 209.477 110.805C209.484 109.563 209.475 108.323 209.482 107.081C210.121 107.081 210.761 107.081 211.401 107.085C211.392 110.191 211.392 113.298 211.401 116.404C210.761 116.409 210.121 116.409 209.482 116.409C209.477 115.179 209.482 113.95 209.48 112.721C207.616 112.721 205.752 112.719 203.888 112.723C203.898 113.95 203.894 115.179 203.896 116.406C203.25 116.415 202.606 116.413 201.962 116.387C201.997 113.285 201.967 110.183 201.977 107.083Z"></path>
<path fill="black" d="M213.21 107.081C216.349 107.081 219.486 107.081 222.625 107.081C222.627 110.189 222.629 113.3 222.625 116.409C221.985 116.409 221.345 116.409 220.706 116.404C220.715 115.177 220.708 113.95 220.715 112.723C218.851 112.719 216.984 112.719 215.123 112.723C215.127 113.95 215.12 115.177 215.129 116.404C214.489 116.409 213.85 116.409 213.21 116.409C213.206 113.3 213.208 110.189 213.21 107.081ZM215.125 109.011C215.125 109.608 215.123 110.204 215.12 110.801C216.984 110.807 218.848 110.805 220.712 110.801C220.71 110.204 220.71 109.608 220.71 109.011C218.848 109.009 216.987 109.009 215.125 109.011Z"></path>
<path fill="black" d="M224.423 107.085C227.566 107.083 230.709 107.07 233.852 107.091C233.846 107.731 233.846 108.37 233.841 109.009C231.342 109.012 228.843 109.009 226.346 109.009C226.341 110.833 226.341 112.656 226.346 114.48C228.843 114.48 231.342 114.478 233.841 114.48C233.846 115.122 233.846 115.763 233.848 116.404C230.707 116.411 227.564 116.411 224.423 116.404C224.431 113.298 224.431 110.191 224.423 107.085Z"></path>
<path fill="black" d="M235.651 107.085C236.29 107.081 236.93 107.081 237.572 107.081C237.572 108.321 237.578 109.558 237.563 110.798C238.807 110.807 240.051 110.803 241.298 110.803C241.289 110.166 241.291 109.528 241.319 108.893C241.933 108.898 242.548 108.9 243.164 108.893C243.157 108.291 243.155 107.686 243.157 107.083C243.797 107.081 244.434 107.081 245.076 107.083C245.076 107.724 245.076 108.368 245.067 109.009C244.447 109.009 243.83 109.009 243.214 109.009C243.223 109.651 243.214 110.294 243.168 110.936C242.575 110.82 241.968 110.822 241.365 110.837C241.346 111.453 241.346 112.071 241.359 112.689C241.974 112.686 242.592 112.684 243.21 112.684C243.212 113.283 243.212 113.881 243.214 114.48C243.832 114.48 244.447 114.48 245.067 114.48C245.076 115.121 245.076 115.765 245.076 116.406C244.434 116.409 243.797 116.409 243.157 116.406C243.155 115.804 243.157 115.199 243.164 114.594C242.548 114.589 241.933 114.591 241.319 114.596C241.293 113.971 241.289 113.345 241.295 112.721C240.049 112.723 238.803 112.712 237.558 112.727C237.583 113.954 237.569 115.181 237.572 116.409C236.932 116.409 236.292 116.409 235.653 116.406C235.653 113.3 235.659 110.194 235.651 107.085Z"></path>
<path fill="black" d="M246.879 107.085C250.02 107.078 253.163 107.078 256.304 107.085C256.304 107.726 256.3 108.37 256.284 109.011C253.807 109.007 251.33 109.009 248.852 109.011C248.852 109.608 248.85 110.204 248.848 110.801C250.088 110.807 251.327 110.803 252.569 110.803C252.574 111.44 252.578 112.079 252.587 112.716C251.341 112.725 250.094 112.716 248.848 112.723C248.85 113.309 248.85 113.892 248.852 114.478C251.332 114.48 253.811 114.478 256.289 114.48C256.3 115.121 256.302 115.763 256.304 116.404C253.163 116.413 250.022 116.406 246.881 116.406C246.879 113.3 246.883 110.193 246.879 107.085Z"></path>
<path fill="black" d="M258.155 107.085C261.276 107.076 264.4 107.085 267.521 107.081C267.523 108.96 267.526 110.841 267.521 112.721C266.899 112.721 266.277 112.721 265.657 112.723C265.662 113.309 265.662 113.894 265.657 114.48C266.273 114.48 266.89 114.48 267.508 114.476C267.523 115.121 267.526 115.765 267.521 116.409C266.882 116.409 266.242 116.409 265.602 116.404C265.605 115.799 265.607 115.194 265.611 114.591C264.991 114.591 264.369 114.591 263.749 114.591C263.743 113.969 263.743 113.349 263.758 112.727C262.531 112.714 261.303 112.723 260.076 112.721C260.074 113.95 260.078 115.179 260.074 116.409C259.434 116.409 258.795 116.409 258.155 116.404C258.164 113.298 258.164 110.191 258.155 107.085ZM260.078 109.009C260.074 109.608 260.074 110.206 260.078 110.805C261.923 110.801 263.767 110.809 265.609 110.801C265.607 110.204 265.607 109.608 265.607 109.011C263.762 109.009 261.92 109.011 260.078 109.009Z"></path>
<path fill="black" d="M269.383 107.083C272.526 107.083 275.667 107.074 278.808 107.085C278.802 110.191 278.802 113.298 278.808 116.404C278.149 116.409 277.49 116.409 276.83 116.406C276.835 113.944 276.828 111.479 276.835 109.014C274.988 109.007 273.142 109.007 271.295 109.014C271.308 111.479 271.3 113.944 271.302 116.406C270.662 116.409 270.023 116.409 269.383 116.406C269.385 113.298 269.385 110.189 269.383 107.083Z"></path>
<path fill="black" d="M280.615 107.083C283.757 107.081 286.898 107.077 290.039 107.085C290.03 110.192 290.03 113.298 290.039 116.405C286.898 116.413 283.757 116.407 280.615 116.409C280.615 113.3 280.615 110.192 280.615 107.083ZM282.528 109.016C282.536 110.835 282.536 112.655 282.528 114.474C284.39 114.487 286.251 114.476 288.115 114.48C288.12 112.657 288.118 110.833 288.115 109.01C286.254 109.014 284.39 109.003 282.528 109.016Z"></path>
<path fill="black" d="M291.84 107.081C294.977 107.081 298.116 107.081 301.255 107.081C301.257 110.189 301.257 113.3 301.255 116.409C298.116 116.409 294.979 116.409 291.84 116.409C291.836 113.3 291.836 110.189 291.84 107.081ZM293.755 109.011C293.752 110.833 293.757 112.652 293.75 114.473C295.614 114.486 297.476 114.476 299.34 114.48C299.342 112.659 299.338 110.835 299.342 109.014C297.48 109.005 295.616 109.011 293.755 109.011Z"></path>
<path fill="black" d="M303.063 107.085C306.202 107.076 309.343 107.083 312.484 107.08C312.49 110.189 312.482 113.295 312.488 116.402C311.848 116.408 311.207 116.411 310.567 116.406C310.571 113.943 310.565 111.478 310.571 109.013C308.71 109.005 306.848 109.013 304.986 109.009C304.979 111.476 304.986 113.941 304.982 116.408C304.342 116.408 303.7 116.408 303.063 116.404C303.072 113.298 303.072 110.191 303.063 107.085Z"></path>
<path fill="white" d="M184.301 104.365C184.877 104.367 185.456 104.367 186.032 104.365C186.056 107.149 186.036 109.936 186.043 112.721C186.573 112.721 187.103 112.721 187.633 112.721C187.631 109.936 187.622 107.149 187.637 104.365C188.22 104.367 188.8 104.367 189.383 104.367C189.383 104.91 189.381 105.453 189.374 105.995C190.509 106 191.643 105.993 192.778 106.002C192.778 107.113 192.778 108.222 192.778 109.333C193.297 109.327 193.816 109.323 194.335 109.31C194.524 111.003 194.377 112.715 194.419 114.414C193.871 114.416 193.324 114.416 192.776 114.418C192.78 115.519 192.778 116.619 192.78 117.717C191.652 117.724 190.526 117.722 189.4 117.717C189.385 118.292 189.383 118.867 189.381 119.44C187.685 119.442 185.99 119.44 184.295 119.442C184.292 118.867 184.288 118.292 184.268 117.72C183.14 117.709 182.012 117.745 180.884 117.715C180.902 116.617 180.891 115.519 180.902 114.418C180.354 114.418 179.807 114.418 179.259 114.418C179.25 112.721 179.241 111.024 179.268 109.327C179.811 109.329 180.354 109.329 180.9 109.327C180.893 108.218 180.893 107.111 180.897 106.002C182.028 105.995 183.16 105.997 184.29 105.997C184.29 105.453 184.292 104.908 184.301 104.365Z"></path>
</svg>
