<svg width="101" height="21" viewBox="0 0 101 21" fill="none" xmlns="http://www.w3.org/2000/svg">
<path fill-rule="evenodd" clip-rule="evenodd" d="M42.2339 4.24631C42.2339 4.24631 44.7496 5.52884 45.0532 5.78189C45.374 6.03495 45.2049 6.20389 45.2049 6.20389C45.2049 6.20389 45.087 6.37214 44.7999 6.43971C44.5122 6.49005 44.5978 6.72656 44.5978 6.72656L44.564 12.7165C45.7459 13.8805 46.8602 13.2564 46.8602 13.2564C47.2824 13.122 47.2321 12.7503 47.2321 12.7503C47.2321 12.7503 47.3169 7.11545 47.2824 6.92928C47.2486 6.72725 47.0803 6.72725 47.0803 6.72725C47.0803 6.72725 46.0336 6.06874 45.8646 5.95152C45.6783 5.83361 45.8811 5.64813 45.8811 5.64813C45.8811 5.64813 47.6536 4.41662 47.9076 4.18011C48.1608 3.96084 48.3636 4.0953 48.3636 4.0953C48.3636 4.0953 51.2843 5.73225 51.6217 5.98531C51.9591 6.23837 51.7907 6.32249 51.7907 6.32249L50.9634 7.14924C50.7944 7.31818 50.8786 7.46987 50.8786 7.46987L50.8448 13.0041C50.6253 14.4211 48.3967 14.6245 48.3967 14.6245C45.7121 14.6583 44.4632 13.5109 44.4632 13.5109C43.3993 12.8524 42.167 13.3075 42.167 13.3075C40.5973 13.8474 40.4787 14.8603 40.4787 14.8603C40.4276 15.5864 41.2383 15.9401 41.2383 15.9401C42.2346 16.5814 43.6863 16.1759 43.6863 16.1759C44.9186 15.7546 46.8264 15.1134 46.8264 15.1134C48.0249 14.8603 48.9701 15.0623 48.9701 15.0623C50.0506 15.2995 50.4729 15.8056 50.4729 15.8056C51.1649 16.5138 51.1145 17.4247 51.1145 17.4247C51.1649 19.4167 48.7169 20.0911 48.7169 20.0911C47.6198 20.3104 47.3163 20.0573 47.3163 20.0573C46.5393 19.8877 47.3666 19.8043 47.3666 19.8043C47.3666 19.8043 45.948 19.8877 47.4846 19.8201C49.0212 19.7705 49.1902 19.0285 49.1902 19.0285C49.7477 18.0321 48.8866 17.8639 48.8866 17.8639C47.7047 17.6957 46.4221 18.6569 46.4221 18.6569C43.5518 19.9387 41.3742 18.8761 41.3742 18.8761C39.1456 18.0156 39.4327 16.3621 39.4327 16.3621C39.483 14.2197 40.834 13.3764 40.834 13.3764L40.7498 6.74518C40.6822 6.57624 40.5132 6.5259 40.5132 6.5259C40.5132 6.5259 39.5845 6.15424 39.4327 5.95221C39.2974 5.74949 39.5168 5.66536 39.5168 5.66536L41.6613 4.24768C41.9131 3.89257 42.2339 4.24631 42.2339 4.24631ZM0.634327 3.23407C0.313491 3.0148 0.668135 2.89689 0.668135 2.89689L3.89305 0.534543H12.4183C14.2585 0.70279 14.1067 3.06513 14.1067 3.06513L14.0729 11.7705C11.0846 12.3442 9.64946 14.8762 9.64946 14.8762C6.86337 14.0832 2.08602 14.7913 2.08602 14.7913C1.66376 14.8251 1.95079 14.5045 1.95079 14.5045C3.60533 11.6023 6.77919 11.6871 6.77919 11.6871C6.98411 11.6829 7.18489 11.6884 7.38015 11.7009L7.39671 3.32233L0.634327 3.23407ZM4.88868 3.7064C5.5131 3.41955 5.39511 3.84155 5.39511 3.84155V8.68345C5.34475 10.7252 3.74057 11.8395 3.74057 11.8395C3.26794 12.4807 1.4616 13.2227 1.4616 13.2227C0.837178 13.4585 1.20838 12.851 1.20838 12.851C1.79899 11.9746 1.79899 11.3492 1.79899 11.3492V5.52884C1.79899 5.3599 1.86661 5.29233 1.86661 5.29233L4.88868 3.7064ZM7.6658 11.725C9.14165 11.8732 10.2242 12.3959 10.2242 12.3959L10.2021 8.65243L10.1794 8.66966C10.1759 8.66553 8.99468 7.10718 7.67132 8.7269L7.6658 11.725ZM10.1994 8.27318L10.1904 6.70311C9.73847 7.1258 8.68489 7.8367 7.67477 6.52039L7.67132 8.29801C8.78355 7.16993 9.78401 7.87256 10.1994 8.27318ZM10.1876 6.29353L10.1725 3.67261C10.2904 3.23407 9.68327 3.35198 9.68327 3.35198L7.68167 3.32578L7.67684 6.01427C8.80908 7.8898 10.0717 6.43488 10.1876 6.29353ZM33.4879 2.18805C33.4879 2.18805 37.202 0.990324 37.6746 0.872413C38.1638 0.754503 38.1307 0.990327 38.1307 0.990327C38.1307 0.990327 38.03 11.5519 38.1141 11.9236C38.1983 12.2952 38.3674 12.1946 38.3674 12.1946C38.3674 12.1946 39.2284 12.802 39.414 12.8855C39.6169 12.9703 39.5155 13.1723 39.5155 13.1723L37.4221 14.7927C37.4221 14.7927 34.0116 13.2909 33.7418 13.1227C33.4044 12.8855 33.6238 12.751 33.6238 12.751L34.2317 12.1435C34.2317 12.1435 34.3324 3.50506 34.1641 3.04927C33.995 2.59349 33.4548 2.40801 33.4548 2.40801C33.3361 2.22183 33.4879 2.18805 33.4879 2.18805ZM29.3184 3.9767C29.4364 4.26354 29.74 4.2132 29.74 4.2132C31.0909 3.6733 31.6312 2.39077 31.6312 2.39077C31.9686 1.12547 31.1751 0.788294 31.1751 0.788294C30.4658 0.3663 29.9428 0.703481 29.9428 0.703481C29.1321 1.14202 28.9127 1.98601 28.9127 1.98601C28.7105 3.09961 29.3184 3.9767 29.3184 3.9767ZM28.7105 4.55039C28.7105 4.55039 26.5158 5.9005 26.3467 6.15355C26.1777 6.40661 26.3136 6.52521 26.3136 6.52521C26.3136 6.52521 27.2589 7.11545 27.5121 7.21682C27.7819 7.30094 27.6804 7.43609 27.6804 7.43609L27.748 11.8229C27.7819 11.9415 27.748 12.2442 27.748 12.2442C27.748 12.2442 27.3762 12.5483 27.174 12.7172C26.938 12.9193 27.1229 13.1227 27.1229 13.1227L30.5169 14.8265C30.5169 14.8265 32.8124 13.173 33.0153 13.0889C33.2174 13.0041 33.0153 12.8358 33.0153 12.8358C33.0153 12.8358 32.019 12.2621 31.8506 12.1773C31.6822 12.0925 31.7499 11.9243 31.7499 11.9243C31.7499 11.9243 31.6146 7.5871 31.7161 7.21613C31.8002 6.86171 31.9182 6.97961 31.9182 6.97961C31.9182 6.97961 32.2218 6.89549 32.4923 6.72656C32.7455 6.55762 32.5095 6.40592 32.5095 6.40592C32.5095 6.40592 29.3522 4.75311 29.1163 4.55039C28.8789 4.34766 28.7105 4.55039 28.7105 4.55039ZM14.7228 11.856C14.7145 11.8222 14.9843 14.4038 18.2934 14.8258L20.4882 13.0551C20.4882 13.0551 20.6062 12.8517 20.7752 13.0199L24.4893 14.8258L26.7517 13.0551C26.7517 13.0551 26.8532 12.8517 26.6841 12.6496L25.1137 11.6029V7.30025C25.1137 7.30025 25.0972 7.09822 25.2317 7.06443L25.8396 6.57555C25.8396 6.57555 25.941 6.40661 25.7389 6.18734C25.5526 5.95152 21.8557 4.12908 21.8557 4.12908C21.8557 4.12908 21.7205 3.92705 21.3824 4.16287C21.3824 4.16287 17.3474 5.78259 15.7605 7.85739C15.7612 7.85739 14.4951 8.6669 14.7228 11.856ZM17.8884 10.4728C17.9898 10.6576 17.2129 9.37574 17.5848 7.9753C17.5848 7.9753 17.6359 6.74379 19.0703 6.11977L21.0119 7.38506L20.9781 12.3787C20.9781 12.3787 20.7248 12.8013 20.1004 12.5145C20.1004 12.5145 18.4962 11.7215 17.8884 10.4728ZM89.3468 4.68484C89.3468 4.68484 87.1527 6.01772 86.983 6.28801C86.8147 6.54107 86.9492 6.65898 86.9492 6.65898C86.9492 6.65898 87.8951 7.24922 88.1484 7.33404C88.4181 7.41885 88.3167 7.56986 88.3167 7.56986L88.3843 11.9567C88.4181 12.0753 88.3843 12.378 88.3843 12.378C88.3843 12.378 88.0124 12.6648 87.8103 12.8344C87.5743 13.0365 87.7606 13.2385 87.7606 13.2385L91.1539 14.9596C91.1539 14.9596 93.4501 13.3061 93.6522 13.2047C93.8544 13.1213 93.6522 12.9517 93.6522 12.9517C93.6522 12.9517 92.6725 12.378 92.4876 12.2945C92.3178 12.2097 92.3855 12.0415 92.3855 12.0415C92.3855 12.0415 92.2509 7.705 92.3517 7.33404C92.4365 6.99685 92.5552 7.09821 92.5552 7.09821C92.5552 7.09821 92.8581 7.0134 93.1292 6.84516C93.3825 6.67622 93.1451 6.54176 93.1451 6.54176C93.1451 6.54176 89.9878 4.88826 89.7518 4.68554C89.5324 4.48282 89.3468 4.68484 89.3468 4.68484ZM55.7833 3.25062C55.2603 2.96377 55.6322 2.82862 55.6322 2.82862L58.2651 1.14133C58.3997 1.02342 58.5183 1.19236 58.5183 1.19236L60.916 2.5928C60.916 2.5928 64.1568 0.871724 64.3769 0.737265C64.5114 0.652453 64.6301 0.771055 64.6301 0.771055L67.3658 2.28941L70.1174 0.568333C70.4203 0.315274 70.5052 0.48352 70.5052 0.48352L73.7301 2.37353C73.9999 2.54247 73.8812 2.5928 73.8812 2.5928V11.3333C73.9999 12.4118 74.912 12.8351 74.912 12.8351C75.1652 13.0372 75.0465 13.1896 75.0465 13.1896L72.564 14.9603C70.4203 14.2342 70.2181 12.4973 70.2181 12.4973V4.14494C70.1671 3.8581 69.9649 3.79052 69.9649 3.79052L68.3076 2.94653L68.32 6.6583H70.1002L68.3283 9.21095L68.3394 12.2835L69.5778 13.1213C69.7462 13.3233 69.4771 13.3571 69.4771 13.3571L66.9097 14.9596L63.0949 12.9351C62.7402 12.6979 63.01 12.5635 63.01 12.5635L63.8373 12.0408V9.35781H62.0206L62.0275 12.802L62.6395 13.1889C62.8258 13.3909 62.6057 13.5254 62.6057 13.5254L60.0563 14.9596L56.7306 13.2047C56.4436 13.0186 56.7465 12.8682 56.7465 12.8682L57.6924 12.3283V4.60073L55.8688 3.28509L55.7833 3.25062ZM68.0785 2.84241C67.5749 2.68589 67.6528 2.99825 67.6528 2.99825L67.6866 6.38937V6.65967H68.0923L68.0785 2.84241ZM68.1006 9.35851H67.6866V11.8395C67.7025 11.907 67.906 11.9905 67.906 11.9905L68.1096 12.1291L68.1006 9.35851ZM62.0199 8.87859L63.5158 6.65898H63.8366V4.14494C63.7869 4.01048 63.6006 3.87533 63.6006 3.87533L62.0103 3.04859L62.0199 8.87859ZM61.7819 2.99411C61.3155 3.00445 61.2886 3.31888 61.2886 3.31888L61.2534 12.329C61.2534 12.3787 61.4059 12.4124 61.4059 12.4124L61.7977 12.66L61.7819 2.99411ZM75.3625 11.856C75.3543 11.8222 75.624 14.4038 78.9338 14.8258L81.1279 13.0551C81.1279 13.0551 81.2466 12.8517 81.415 13.0199L85.1291 14.8258L87.3915 13.0551C87.3915 13.0551 87.4922 12.8517 87.3239 12.6496L85.7542 11.6029V7.30025C85.7542 7.30025 85.7383 7.09822 85.8728 7.06443L86.4807 6.57555C86.4807 6.57555 86.5815 6.40661 86.38 6.18734C86.1937 5.95152 82.4961 4.12908 82.4961 4.12908C82.4961 4.12908 82.3616 3.92705 82.0228 4.16287C82.0228 4.16287 77.9879 5.78259 76.401 7.85739C76.4003 7.85739 75.1349 8.6669 75.3625 11.856ZM78.5281 10.4728C78.6289 10.6576 77.8526 9.37574 78.2252 7.9753C78.2252 7.9753 78.2749 6.74379 79.71 6.11977L81.6516 7.38506L81.6178 12.3787C81.6178 12.3787 81.3646 12.8013 80.7395 12.5145C80.7395 12.5145 79.136 11.7215 78.5281 10.4728ZM94.1249 2.18805C94.1249 2.18805 97.821 0.990324 98.3116 0.872413C98.7836 0.754503 98.767 0.990327 98.767 0.990327C98.767 0.990327 98.6662 11.6705 98.7497 12.0422C98.8346 12.4125 99.003 12.329 99.003 12.329C99.003 12.329 99.864 12.9365 100.05 13.0199C100.252 13.1047 100.151 13.3068 100.151 13.3068L98.0584 14.9272C98.0584 14.9272 94.6479 13.4254 94.3781 13.2399C94.04 13.0206 94.2594 12.8696 94.2594 12.8696L94.8673 12.2787C94.8673 12.2787 94.968 3.48851 94.7997 3.03272C94.6313 2.57694 94.0911 2.4087 94.0911 2.4087C93.9731 2.2046 94.1249 2.18805 94.1249 2.18805ZM89.9547 4.11185C90.0734 4.39869 90.3763 4.34766 90.3763 4.34766C91.7279 3.79052 92.2682 2.50868 92.2682 2.50868C92.6049 1.25993 91.8114 0.922753 91.8114 0.922753C91.1028 0.48421 90.5798 0.83794 90.5798 0.83794C89.7684 1.27648 89.5504 2.12047 89.5504 2.12047C89.3468 3.23407 89.9547 4.11185 89.9547 4.11185Z" fill="black" fill-opacity="0.4"></path>
</svg>
