<svg xmlns="http://www.w3.org/2000/svg" fill="none" viewBox="0 0 297 192" height="192" width="297">
<circle stroke-width="8.23243" stroke="#F08E48" fill="white" r="57.5556" cy="94.5556" cx="148.334"></circle>
<path stroke-width="8.23243" stroke="#8239F6" d="M205.89 94.5556C205.89 86.9973 204.401 79.513 201.508 72.53C198.616 65.547 194.376 59.2022 189.032 53.8576C183.687 48.5131 177.343 44.2736 170.36 41.3812C163.377 38.4887 155.892 37 148.334 37"></path>
<circle fill="#FFC200" r="4.60444" cy="51.9643" cx="148.334"></circle>
<circle fill="#FFC200" r="4.60444" cy="137.147" cx="148.334"></circle>
<circle fill="#FFC200" r="4.60444" cy="94.5554" cx="190.925"></circle>
<circle fill="#FFC200" r="4.60444" cy="94.5554" cx="105.743"></circle>
<circle fill="#FFC200" r="4.60444" cy="73.8355" cx="113.8"></circle>
<circle fill="#FFC200" transform="matrix(-1 0 0 1 133.369 125.635)" r="4.60444" cy="4.60444" cx="4.60444"></circle>
<circle fill="#FFC200" r="4.60444" cy="58.8711" cx="128.765"></circle>
<circle fill="#FFC200" transform="matrix(-1 0 0 1 117.253 110.671)" r="4.60444" cy="4.60444" cx="4.60444"></circle>
<circle fill="#FFC200" transform="matrix(-1 0 0 1 188.623 69.2311)" r="4.60444" cy="4.60444" cx="4.60444"></circle>
<circle fill="#FFC200" r="4.60444" cy="130.24" cx="169.055"></circle>
<circle fill="#FFC200" transform="matrix(-1 0 0 1 173.659 54.2666)" r="4.60444" cy="4.60444" cx="4.60444"></circle>
<circle fill="#FFC200" r="4.60444" cy="115.276" cx="184.018"></circle>
<path stroke-linejoin="round" stroke-linecap="round" stroke-width="4.11622" stroke="#731DE0" d="M128.112 116.333L148.334 95.7067V75.1111"></path>
<rect fill="#8239F6" rx="8" height="29" width="73" y="19" x="197"></rect>
<path fill="white" d="M206.24 42C205.872 42 205.552 41.864 205.28 41.592C205.024 41.32 204.896 41 204.896 40.632V25.848C204.896 25.48 205.024 25.16 205.28 24.888C205.552 24.616 205.872 24.48 206.24 24.48H207.008C207.376 24.48 207.696 24.616 207.968 24.888C208.24 25.16 208.376 25.48 208.376 25.848V39C208.376 39.144 208.44 39.216 208.568 39.216H214.736C215.104 39.216 215.416 39.352 215.672 39.624C215.944 39.88 216.08 40.192 216.08 40.56V40.632C216.08 41 215.944 41.32 215.672 41.592C215.416 41.864 215.104 42 214.736 42H206.24ZM222.202 31.512C221.386 31.512 220.754 31.744 220.306 32.208C219.874 32.656 219.602 33.384 219.49 34.392C219.49 34.52 219.554 34.584 219.682 34.584H224.386C224.514 34.584 224.578 34.52 224.578 34.392C224.514 32.472 223.722 31.512 222.202 31.512ZM222.802 42.24C220.706 42.24 219.09 41.696 217.954 40.608C216.834 39.504 216.274 37.888 216.274 35.76C216.274 33.648 216.778 32.04 217.786 30.936C218.794 29.832 220.25 29.28 222.154 29.28C225.706 29.28 227.53 31.296 227.626 35.328C227.642 35.712 227.506 36.032 227.218 36.288C226.93 36.544 226.594 36.672 226.21 36.672H219.658C219.514 36.672 219.458 36.744 219.49 36.888C219.602 37.96 219.954 38.744 220.546 39.24C221.154 39.72 222.034 39.96 223.186 39.96C223.906 39.96 224.706 39.84 225.586 39.6C225.874 39.52 226.138 39.568 226.378 39.744C226.634 39.92 226.762 40.16 226.762 40.464C226.762 40.832 226.65 41.16 226.426 41.448C226.218 41.72 225.938 41.888 225.586 41.952C224.69 42.144 223.762 42.24 222.802 42.24ZM234.656 36C232.368 36 231.224 36.704 231.224 38.112C231.224 38.624 231.368 39.04 231.656 39.36C231.96 39.68 232.344 39.84 232.808 39.84C233.72 39.84 234.456 39.56 235.016 39C235.576 38.424 235.856 37.64 235.856 36.648V36.216C235.856 36.072 235.784 36 235.64 36H234.656ZM231.944 42.24C230.856 42.24 229.952 41.888 229.232 41.184C228.528 40.464 228.176 39.536 228.176 38.4C228.176 37.008 228.704 35.928 229.76 35.16C230.832 34.392 232.464 34.008 234.656 34.008H235.64C235.784 34.008 235.856 33.936 235.856 33.792V33.6C235.856 32.864 235.68 32.352 235.328 32.064C234.976 31.76 234.352 31.608 233.456 31.608C232.528 31.608 231.392 31.776 230.048 32.112C229.76 32.192 229.496 32.144 229.256 31.968C229.016 31.776 228.896 31.528 228.896 31.224C228.896 30.856 229.008 30.528 229.232 30.24C229.456 29.936 229.744 29.752 230.096 29.688C231.312 29.416 232.456 29.28 233.528 29.28C235.576 29.28 237.008 29.648 237.824 30.384C238.64 31.12 239.048 32.408 239.048 34.248V40.632C239.048 41 238.912 41.32 238.64 41.592C238.384 41.864 238.072 42 237.704 42H237.44C237.056 42 236.728 41.872 236.456 41.616C236.184 41.344 236.04 41.016 236.024 40.632V40.296C236.024 40.28 236.016 40.272 236 40.272C235.968 40.272 235.952 40.28 235.952 40.296C234.976 41.592 233.64 42.24 231.944 42.24ZM242.157 42C241.789 42 241.469 41.864 241.197 41.592C240.925 41.32 240.789 41 240.789 40.632V30.888C240.789 30.52 240.925 30.2 241.197 29.928C241.469 29.656 241.789 29.52 242.157 29.52H242.637C243.005 29.52 243.325 29.656 243.597 29.928C243.869 30.2 244.005 30.52 244.005 30.888V31.896C244.005 31.912 244.013 31.92 244.029 31.92C244.061 31.92 244.077 31.912 244.077 31.896C244.541 31.256 245.149 30.736 245.901 30.336C246.653 29.92 247.477 29.664 248.373 29.568C248.709 29.536 248.997 29.648 249.237 29.904C249.477 30.144 249.597 30.432 249.597 30.768C249.597 31.104 249.477 31.392 249.237 31.632C248.997 31.872 248.709 32.008 248.373 32.04C245.541 32.264 244.125 33.704 244.125 36.36V40.632C244.125 41 243.989 41.32 243.717 41.592C243.445 41.864 243.125 42 242.757 42H242.157ZM252.366 42C251.998 42 251.678 41.864 251.406 41.592C251.134 41.32 250.998 41 250.998 40.632V30.888C250.998 30.52 251.134 30.2 251.406 29.928C251.678 29.656 251.998 29.52 252.366 29.52H252.678C253.062 29.52 253.382 29.656 253.638 29.928C253.91 30.184 254.054 30.504 254.07 30.888V31.056C254.07 31.072 254.078 31.08 254.094 31.08C254.11 31.08 254.126 31.072 254.142 31.056C255.23 29.872 256.502 29.28 257.958 29.28C259.414 29.28 260.47 29.696 261.126 30.528C261.798 31.344 262.134 32.712 262.134 34.632V40.632C262.134 41 261.998 41.32 261.726 41.592C261.454 41.864 261.134 42 260.766 42H260.358C259.99 42 259.67 41.864 259.398 41.592C259.142 41.32 259.014 41 259.014 40.632V34.872C259.014 33.672 258.854 32.856 258.534 32.424C258.23 31.976 257.678 31.752 256.878 31.752C256.222 31.752 255.614 32.032 255.054 32.592C254.494 33.152 254.214 33.752 254.214 34.392V40.632C254.214 41 254.078 41.32 253.806 41.592C253.534 41.864 253.214 42 252.846 42H252.366Z"></path>
<path fill="#8239F6" d="M213 48H223C223 55.214 218.262 59.5855 214.699 60.71C213.965 60.9416 213.476 60.1625 213.803 59.4656C215.94 54.9062 215.551 50.9262 213 48Z"></path>
<path fill="#8239F6" d="M215.776 10.468C215.664 10.556 215.544 10.568 215.416 10.504C215.296 10.44 215.236 10.34 215.236 10.204V9.724C215.236 9.276 215.416 8.912 215.776 8.632L217.06 7.648C217.42 7.376 217.828 7.24 218.284 7.24H218.644C218.828 7.24 218.984 7.308 219.112 7.444C219.248 7.58 219.316 7.74 219.316 7.924V15.316C219.316 15.5 219.248 15.66 219.112 15.796C218.984 15.932 218.828 16 218.644 16H218.284C218.1 16 217.94 15.932 217.804 15.796C217.668 15.66 217.6 15.5 217.6 15.316V9.088L217.588 9.076L217.576 9.088L215.776 10.468ZM222.708 15.94C222.516 15.892 222.356 15.788 222.228 15.628C222.108 15.46 222.048 15.272 222.048 15.064V14.944C222.048 14.784 222.112 14.656 222.24 14.56C222.376 14.464 222.52 14.44 222.672 14.488C223.272 14.672 223.788 14.764 224.22 14.764C225.492 14.764 226.128 14.188 226.128 13.036C226.128 12.084 225.668 11.608 224.748 11.608C224.508 11.608 224.28 11.652 224.064 11.74C223.48 11.98 223.068 12.1 222.828 12.1H222.744C222.56 12.1 222.404 12.032 222.276 11.896C222.148 11.76 222.088 11.6 222.096 11.416L222.276 7.924C222.292 7.732 222.364 7.572 222.492 7.444C222.628 7.308 222.792 7.24 222.984 7.24H226.728C226.912 7.24 227.068 7.308 227.196 7.444C227.332 7.58 227.4 7.74 227.4 7.924C227.4 8.108 227.332 8.268 227.196 8.404C227.068 8.532 226.912 8.596 226.728 8.596H223.932C223.86 8.596 223.824 8.632 223.824 8.704L223.728 10.612C223.728 10.62 223.732 10.624 223.74 10.624H223.752L223.764 10.612C224.164 10.42 224.596 10.324 225.06 10.324C225.924 10.324 226.592 10.56 227.064 11.032C227.544 11.504 227.784 12.172 227.784 13.036C227.784 15.092 226.612 16.12 224.268 16.12C223.732 16.12 223.212 16.06 222.708 15.94ZM232.102 16C231.918 16 231.758 15.932 231.622 15.796C231.494 15.66 231.43 15.5 231.43 15.316V10.444C231.43 10.26 231.494 10.1 231.622 9.964C231.758 9.828 231.918 9.76 232.102 9.76H232.27C232.454 9.76 232.61 9.824 232.738 9.952C232.874 10.08 232.946 10.236 232.954 10.42V10.504C232.954 10.512 232.958 10.516 232.966 10.516C232.982 10.516 232.99 10.512 232.99 10.504C233.462 9.928 233.994 9.64 234.586 9.64C234.946 9.64 235.234 9.708 235.45 9.844C235.674 9.98 235.87 10.22 236.038 10.564C236.038 10.572 236.046 10.576 236.062 10.576C236.07 10.576 236.078 10.572 236.086 10.564C236.59 9.948 237.158 9.64 237.79 9.64C238.454 9.64 238.93 9.82 239.218 10.18C239.514 10.54 239.662 11.16 239.662 12.04V15.316C239.662 15.5 239.594 15.66 239.458 15.796C239.33 15.932 239.174 16 238.99 16H238.786C238.602 16 238.442 15.932 238.306 15.796C238.17 15.66 238.102 15.5 238.102 15.316V12.28C238.102 11.696 238.046 11.312 237.934 11.128C237.822 10.944 237.606 10.852 237.286 10.852C237.078 10.852 236.87 10.948 236.662 11.14C236.454 11.332 236.35 11.524 236.35 11.716V15.316C236.35 15.5 236.282 15.66 236.146 15.796C236.01 15.932 235.85 16 235.666 16H235.462C235.278 16 235.118 15.932 234.982 15.796C234.854 15.66 234.79 15.5 234.79 15.316V12.28C234.79 11.704 234.73 11.324 234.61 11.14C234.498 10.948 234.282 10.852 233.962 10.852C233.754 10.852 233.546 10.948 233.338 11.14C233.13 11.332 233.026 11.524 233.026 11.716V15.316C233.026 15.5 232.958 15.66 232.822 15.796C232.686 15.932 232.526 16 232.342 16H232.102ZM241.586 16C241.402 16 241.242 15.932 241.106 15.796C240.97 15.66 240.902 15.5 240.902 15.316V10.444C240.902 10.26 240.97 10.1 241.106 9.964C241.242 9.828 241.402 9.76 241.586 9.76H241.898C242.082 9.76 242.242 9.828 242.378 9.964C242.514 10.1 242.582 10.26 242.582 10.444V15.316C242.582 15.5 242.514 15.66 242.378 15.796C242.242 15.932 242.082 16 241.898 16H241.586ZM241.586 8.44C241.402 8.44 241.242 8.372 241.106 8.236C240.97 8.1 240.902 7.94 240.902 7.756V7.684C240.902 7.5 240.97 7.34 241.106 7.204C241.242 7.068 241.402 7 241.586 7H241.898C242.082 7 242.242 7.068 242.378 7.204C242.514 7.34 242.582 7.5 242.582 7.684V7.756C242.582 7.94 242.514 8.1 242.378 8.236C242.242 8.372 242.082 8.44 241.898 8.44H241.586ZM244.56 16C244.376 16 244.216 15.932 244.08 15.796C243.944 15.66 243.876 15.5 243.876 15.316V10.444C243.876 10.26 243.944 10.1 244.08 9.964C244.216 9.828 244.376 9.76 244.56 9.76H244.716C244.908 9.76 245.068 9.828 245.196 9.964C245.332 10.092 245.404 10.252 245.412 10.444V10.528C245.412 10.536 245.416 10.54 245.424 10.54C245.432 10.54 245.44 10.536 245.448 10.528C245.992 9.936 246.628 9.64 247.356 9.64C248.084 9.64 248.612 9.848 248.94 10.264C249.276 10.672 249.444 11.356 249.444 12.316V15.316C249.444 15.5 249.376 15.66 249.24 15.796C249.104 15.932 248.944 16 248.76 16H248.556C248.372 16 248.212 15.932 248.076 15.796C247.948 15.66 247.884 15.5 247.884 15.316V12.436C247.884 11.836 247.804 11.428 247.644 11.212C247.492 10.988 247.216 10.876 246.816 10.876C246.488 10.876 246.184 11.016 245.904 11.296C245.624 11.576 245.484 11.876 245.484 12.196V15.316C245.484 15.5 245.416 15.66 245.28 15.796C245.144 15.932 244.984 16 244.8 16H244.56Z"></path>
<path fill="#F08E48" d="M4.45911 181.632C4.27511 181.632 4.11511 181.568 3.97911 181.44C3.84311 181.304 3.77511 181.144 3.77511 180.96V180.924C3.77511 180.74 3.84311 180.58 3.97911 180.444C4.11511 180.308 4.27511 180.24 4.45911 180.24H9.57111C9.75511 180.24 9.91511 180.308 10.0511 180.444C10.1871 180.58 10.2551 180.74 10.2551 180.924V180.96C10.2551 181.144 10.1871 181.304 10.0511 181.44C9.91511 181.568 9.75511 181.632 9.57111 181.632H7.96311C7.89911 181.632 7.86711 181.668 7.86711 181.74V188.316C7.86711 188.5 7.79911 188.66 7.66311 188.796C7.52711 188.932 7.36711 189 7.18311 189H6.84711C6.66311 189 6.50311 188.932 6.36711 188.796C6.23111 188.66 6.16311 188.5 6.16311 188.316V181.74C6.16311 181.668 6.13111 181.632 6.06711 181.632H4.45911ZM11.7484 189C11.5644 189 11.4044 188.932 11.2684 188.796C11.1404 188.66 11.0764 188.5 11.0764 188.316V180.684C11.0764 180.5 11.1404 180.34 11.2684 180.204C11.4044 180.068 11.5644 180 11.7484 180H11.9884C12.1724 180 12.3324 180.068 12.4684 180.204C12.6044 180.34 12.6724 180.5 12.6724 180.684V183.468C12.6724 183.476 12.6764 183.48 12.6844 183.48C12.6924 183.48 12.7004 183.476 12.7084 183.468C13.2684 182.916 13.8844 182.64 14.5564 182.64C15.2844 182.64 15.8124 182.848 16.1404 183.264C16.4684 183.68 16.6324 184.392 16.6324 185.4V188.316C16.6324 188.5 16.5644 188.66 16.4284 188.796C16.2924 188.932 16.1324 189 15.9484 189H15.7564C15.5724 189 15.4124 188.932 15.2764 188.796C15.1404 188.66 15.0724 188.5 15.0724 188.316V185.64C15.0724 184.944 14.9964 184.484 14.8444 184.26C14.7004 184.036 14.4244 183.924 14.0164 183.924C13.6964 183.924 13.3924 184.068 13.1044 184.356C12.8164 184.644 12.6724 184.952 12.6724 185.28V188.316C12.6724 188.5 12.6044 188.66 12.4684 188.796C12.3324 188.932 12.1724 189 11.9884 189H11.7484ZM20.0474 183.756C19.6394 183.756 19.3234 183.872 19.0994 184.104C18.8834 184.328 18.7474 184.692 18.6914 185.196C18.6914 185.26 18.7234 185.292 18.7874 185.292H21.1394C21.2034 185.292 21.2354 185.26 21.2354 185.196C21.2034 184.236 20.8074 183.756 20.0474 183.756ZM20.3474 189.12C19.2994 189.12 18.4914 188.848 17.9234 188.304C17.3634 187.752 17.0834 186.944 17.0834 185.88C17.0834 184.824 17.3354 184.02 17.8394 183.468C18.3434 182.916 19.0714 182.64 20.0234 182.64C21.7994 182.64 22.7114 183.648 22.7594 185.664C22.7674 185.856 22.6994 186.016 22.5554 186.144C22.4114 186.272 22.2434 186.336 22.0514 186.336H18.7754C18.7034 186.336 18.6754 186.372 18.6914 186.444C18.7474 186.98 18.9234 187.372 19.2194 187.62C19.5234 187.86 19.9634 187.98 20.5394 187.98C20.8994 187.98 21.2994 187.92 21.7394 187.8C21.8834 187.76 22.0154 187.784 22.1354 187.872C22.2634 187.96 22.3274 188.08 22.3274 188.232C22.3274 188.416 22.2714 188.58 22.1594 188.724C22.0554 188.86 21.9154 188.944 21.7394 188.976C21.2914 189.072 20.8274 189.12 20.3474 189.12ZM26.7083 189C26.5243 189 26.3643 188.932 26.2283 188.796C26.0923 188.66 26.0243 188.5 26.0243 188.316V183.444C26.0243 183.26 26.0923 183.1 26.2283 182.964C26.3643 182.828 26.5243 182.76 26.7083 182.76H26.9483C27.1323 182.76 27.2923 182.828 27.4283 182.964C27.5643 183.1 27.6323 183.26 27.6323 183.444V183.948C27.6323 183.956 27.6363 183.96 27.6443 183.96C27.6603 183.96 27.6683 183.956 27.6683 183.948C27.9003 183.628 28.2043 183.368 28.5803 183.168C28.9563 182.96 29.3683 182.832 29.8163 182.784C29.9843 182.768 30.1283 182.824 30.2483 182.952C30.3683 183.072 30.4283 183.216 30.4283 183.384C30.4283 183.552 30.3683 183.696 30.2483 183.816C30.1283 183.936 29.9843 184.004 29.8163 184.02C28.4003 184.132 27.6923 184.852 27.6923 186.18V188.316C27.6923 188.5 27.6243 188.66 27.4883 188.796C27.3523 188.932 27.1923 189 27.0083 189H26.7083ZM33.4382 183.756C33.0302 183.756 32.7142 183.872 32.4902 184.104C32.2742 184.328 32.1382 184.692 32.0822 185.196C32.0822 185.26 32.1142 185.292 32.1782 185.292H34.5302C34.5942 185.292 34.6262 185.26 34.6262 185.196C34.5942 184.236 34.1982 183.756 33.4382 183.756ZM33.7382 189.12C32.6902 189.12 31.8822 188.848 31.3142 188.304C30.7542 187.752 30.4742 186.944 30.4742 185.88C30.4742 184.824 30.7262 184.02 31.2302 183.468C31.7342 182.916 32.4622 182.64 33.4142 182.64C35.1902 182.64 36.1022 183.648 36.1502 185.664C36.1582 185.856 36.0902 186.016 35.9462 186.144C35.8022 186.272 35.6342 186.336 35.4422 186.336H32.1662C32.0942 186.336 32.0662 186.372 32.0822 186.444C32.1382 186.98 32.3142 187.372 32.6102 187.62C32.9142 187.86 33.3542 187.98 33.9302 187.98C34.2902 187.98 34.6902 187.92 35.1302 187.8C35.2742 187.76 35.4062 187.784 35.5262 187.872C35.6542 187.96 35.7182 188.08 35.7182 188.232C35.7182 188.416 35.6622 188.58 35.5502 188.724C35.4462 188.86 35.3062 188.944 35.1302 188.976C34.6822 189.072 34.2182 189.12 33.7382 189.12ZM38.873 186.48C38.033 186.296 37.433 186.044 37.073 185.724C36.721 185.404 36.545 184.988 36.545 184.476C36.545 183.9 36.757 183.452 37.181 183.132C37.613 182.804 38.249 182.64 39.089 182.64C39.617 182.64 40.141 182.688 40.661 182.784C40.837 182.816 40.977 182.904 41.081 183.048C41.193 183.184 41.249 183.344 41.249 183.528C41.249 183.68 41.189 183.804 41.069 183.9C40.949 183.988 40.813 184.012 40.661 183.972C40.213 183.86 39.741 183.804 39.245 183.804C38.525 183.804 38.165 184.004 38.165 184.404C38.165 184.596 38.233 184.756 38.369 184.884C38.505 185.012 38.737 185.112 39.065 185.184C39.985 185.368 40.613 185.616 40.949 185.928C41.293 186.24 41.465 186.696 41.465 187.296C41.465 187.872 41.249 188.32 40.817 188.64C40.385 188.96 39.757 189.12 38.933 189.12C38.397 189.12 37.849 189.056 37.289 188.928C37.113 188.888 36.969 188.796 36.857 188.652C36.745 188.5 36.689 188.328 36.689 188.136C36.689 187.984 36.749 187.868 36.869 187.788C36.997 187.708 37.133 187.688 37.277 187.728C37.797 187.872 38.289 187.944 38.753 187.944C39.481 187.944 39.845 187.728 39.845 187.296C39.845 187.088 39.773 186.924 39.629 186.804C39.493 186.684 39.241 186.576 38.873 186.48ZM42.2575 184.164C42.0975 184.164 41.9615 184.108 41.8495 183.996C41.7375 183.876 41.6815 183.736 41.6815 183.576C41.6815 183.416 41.7375 183.28 41.8495 183.168C41.9615 183.056 42.0975 183 42.2575 183H42.8335C42.9055 183 42.9415 182.964 42.9415 182.892V181.404C42.9415 181.22 43.0055 181.06 43.1335 180.924C43.2695 180.788 43.4295 180.72 43.6135 180.72H43.8535C44.0375 180.72 44.1975 180.788 44.3335 180.924C44.4695 181.06 44.5375 181.22 44.5375 181.404V182.892C44.5375 182.964 44.5735 183 44.6455 183H46.0135C46.1735 183 46.3095 183.056 46.4215 183.168C46.5415 183.28 46.6015 183.416 46.6015 183.576C46.6015 183.736 46.5415 183.876 46.4215 183.996C46.3095 184.108 46.1735 184.164 46.0135 184.164H44.6455C44.5735 184.164 44.5375 184.196 44.5375 184.26V186.684C44.5375 187.204 44.5935 187.54 44.7055 187.692C44.8175 187.844 45.0495 187.92 45.4015 187.92C45.5935 187.92 45.7375 187.912 45.8335 187.896C45.9935 187.88 46.1335 187.916 46.2535 188.004C46.3735 188.092 46.4335 188.212 46.4335 188.364C46.4335 188.54 46.3735 188.7 46.2535 188.844C46.1415 188.98 46.0015 189.056 45.8335 189.072C45.4815 189.104 45.2175 189.12 45.0415 189.12C44.2655 189.12 43.7215 188.956 43.4095 188.628C43.0975 188.292 42.9415 187.696 42.9415 186.84V184.26C42.9415 184.196 42.9055 184.164 42.8335 184.164H42.2575ZM53.9049 184.308C53.6729 183.972 53.3209 183.804 52.8489 183.804C52.3769 183.804 52.0209 183.972 51.7809 184.308C51.5489 184.636 51.4329 185.16 51.4329 185.88C51.4329 186.6 51.5489 187.128 51.7809 187.464C52.0209 187.792 52.3769 187.956 52.8489 187.956C53.3209 187.956 53.6729 187.792 53.9049 187.464C54.1449 187.128 54.2649 186.6 54.2649 185.88C54.2649 185.16 54.1449 184.636 53.9049 184.308ZM55.0809 188.28C54.5529 188.84 53.8089 189.12 52.8489 189.12C51.8889 189.12 51.1409 188.84 50.6049 188.28C50.0769 187.712 49.8129 186.912 49.8129 185.88C49.8129 184.848 50.0769 184.052 50.6049 183.492C51.1409 182.924 51.8889 182.64 52.8489 182.64C53.8089 182.64 54.5529 182.924 55.0809 183.492C55.6169 184.052 55.8849 184.848 55.8849 185.88C55.8849 186.912 55.6169 187.712 55.0809 188.28ZM56.6224 184.164C56.4624 184.164 56.3264 184.108 56.2144 183.996C56.1024 183.876 56.0464 183.736 56.0464 183.576C56.0464 183.416 56.1024 183.28 56.2144 183.168C56.3264 183.056 56.4624 183 56.6224 183H57.2584C57.3304 183 57.3664 182.964 57.3664 182.892V182.604C57.3664 181.74 57.5544 181.112 57.9304 180.72C58.3064 180.32 58.9024 180.12 59.7184 180.12C59.9904 180.12 60.2264 180.136 60.4264 180.168C60.5944 180.192 60.7304 180.276 60.8344 180.42C60.9464 180.556 61.0024 180.712 61.0024 180.888C61.0024 181.032 60.9424 181.148 60.8224 181.236C60.7024 181.316 60.5704 181.344 60.4264 181.32C60.2664 181.304 60.1504 181.296 60.0784 181.296C59.6704 181.296 59.3904 181.384 59.2384 181.56C59.0944 181.728 59.0224 182.06 59.0224 182.556V182.892C59.0224 182.964 59.0584 183 59.1304 183H60.3064C60.4664 183 60.6024 183.056 60.7144 183.168C60.8264 183.28 60.8824 183.416 60.8824 183.576C60.8824 183.736 60.8264 183.876 60.7144 183.996C60.6024 184.108 60.4664 184.164 60.3064 184.164H59.1304C59.0584 184.164 59.0224 184.196 59.0224 184.26V188.316C59.0224 188.5 58.9544 188.66 58.8184 188.796C58.6824 188.932 58.5224 189 58.3384 189H58.0384C57.8544 189 57.6944 188.932 57.5584 188.796C57.4304 188.66 57.3664 188.5 57.3664 188.316V184.26C57.3664 184.196 57.3304 184.164 57.2584 184.164H56.6224ZM64.8489 184.164C64.6889 184.164 64.5529 184.108 64.4409 183.996C64.3289 183.876 64.2729 183.736 64.2729 183.576C64.2729 183.416 64.3289 183.28 64.4409 183.168C64.5529 183.056 64.6889 183 64.8489 183H65.4249C65.4969 183 65.5329 182.964 65.5329 182.892V181.404C65.5329 181.22 65.5969 181.06 65.7249 180.924C65.8609 180.788 66.0209 180.72 66.2049 180.72H66.4449C66.6289 180.72 66.7889 180.788 66.9249 180.924C67.0609 181.06 67.1289 181.22 67.1289 181.404V182.892C67.1289 182.964 67.1649 183 67.2369 183H68.6049C68.7649 183 68.9009 183.056 69.0129 183.168C69.1329 183.28 69.1929 183.416 69.1929 183.576C69.1929 183.736 69.1329 183.876 69.0129 183.996C68.9009 184.108 68.7649 184.164 68.6049 184.164H67.2369C67.1649 184.164 67.1289 184.196 67.1289 184.26V186.684C67.1289 187.204 67.1849 187.54 67.2969 187.692C67.4089 187.844 67.6409 187.92 67.9929 187.92C68.1849 187.92 68.3289 187.912 68.4249 187.896C68.5849 187.88 68.7249 187.916 68.8449 188.004C68.9649 188.092 69.0249 188.212 69.0249 188.364C69.0249 188.54 68.9649 188.7 68.8449 188.844C68.7329 188.98 68.5929 189.056 68.4249 189.072C68.0729 189.104 67.8089 189.12 67.6329 189.12C66.8569 189.12 66.3129 188.956 66.0009 188.628C65.6889 188.292 65.5329 187.696 65.5329 186.84V184.26C65.5329 184.196 65.4969 184.164 65.4249 184.164H64.8489ZM70.8662 189C70.6822 189 70.5222 188.932 70.3862 188.796C70.2582 188.66 70.1942 188.5 70.1942 188.316V180.684C70.1942 180.5 70.2582 180.34 70.3862 180.204C70.5222 180.068 70.6822 180 70.8662 180H71.1062C71.2902 180 71.4502 180.068 71.5862 180.204C71.7222 180.34 71.7902 180.5 71.7902 180.684V183.468C71.7902 183.476 71.7942 183.48 71.8022 183.48C71.8102 183.48 71.8182 183.476 71.8262 183.468C72.3862 182.916 73.0022 182.64 73.6742 182.64C74.4022 182.64 74.9302 182.848 75.2582 183.264C75.5862 183.68 75.7502 184.392 75.7502 185.4V188.316C75.7502 188.5 75.6822 188.66 75.5462 188.796C75.4102 188.932 75.2502 189 75.0662 189H74.8742C74.6902 189 74.5302 188.932 74.3942 188.796C74.2582 188.66 74.1902 188.5 74.1902 188.316V185.64C74.1902 184.944 74.1142 184.484 73.9622 184.26C73.8182 184.036 73.5422 183.924 73.1342 183.924C72.8142 183.924 72.5102 184.068 72.2222 184.356C71.9342 184.644 71.7902 184.952 71.7902 185.28V188.316C71.7902 188.5 71.7222 188.66 71.5862 188.796C71.4502 188.932 71.2902 189 71.1062 189H70.8662ZM79.1652 183.756C78.7572 183.756 78.4412 183.872 78.2172 184.104C78.0012 184.328 77.8652 184.692 77.8092 185.196C77.8092 185.26 77.8412 185.292 77.9052 185.292H80.2572C80.3212 185.292 80.3532 185.26 80.3532 185.196C80.3212 184.236 79.9252 183.756 79.1652 183.756ZM79.4652 189.12C78.4172 189.12 77.6092 188.848 77.0412 188.304C76.4812 187.752 76.2012 186.944 76.2012 185.88C76.2012 184.824 76.4532 184.02 76.9572 183.468C77.4612 182.916 78.1892 182.64 79.1412 182.64C80.9172 182.64 81.8292 183.648 81.8772 185.664C81.8852 185.856 81.8172 186.016 81.6732 186.144C81.5292 186.272 81.3612 186.336 81.1692 186.336H77.8932C77.8212 186.336 77.7932 186.372 77.8092 186.444C77.8652 186.98 78.0412 187.372 78.3372 187.62C78.6412 187.86 79.0812 187.98 79.6572 187.98C80.0172 187.98 80.4172 187.92 80.8572 187.8C81.0012 187.76 81.1332 187.784 81.2532 187.872C81.3812 187.96 81.4452 188.08 81.4452 188.232C81.4452 188.416 81.3892 188.58 81.2772 188.724C81.1732 188.86 81.0332 188.944 80.8572 188.976C80.4092 189.072 79.9452 189.12 79.4652 189.12ZM85.4181 184.164C85.2581 184.164 85.1221 184.108 85.0101 183.996C84.8981 183.876 84.8421 183.736 84.8421 183.576C84.8421 183.416 84.8981 183.28 85.0101 183.168C85.1221 183.056 85.2581 183 85.4181 183H85.9941C86.0661 183 86.1021 182.964 86.1021 182.892V181.404C86.1021 181.22 86.1661 181.06 86.2941 180.924C86.4301 180.788 86.5901 180.72 86.7741 180.72H87.0141C87.1981 180.72 87.3581 180.788 87.4941 180.924C87.6301 181.06 87.6981 181.22 87.6981 181.404V182.892C87.6981 182.964 87.7341 183 87.8061 183H89.1741C89.3341 183 89.4701 183.056 89.5821 183.168C89.7021 183.28 89.7621 183.416 89.7621 183.576C89.7621 183.736 89.7021 183.876 89.5821 183.996C89.4701 184.108 89.3341 184.164 89.1741 184.164H87.8061C87.7341 184.164 87.6981 184.196 87.6981 184.26V186.684C87.6981 187.204 87.7541 187.54 87.8661 187.692C87.9781 187.844 88.2101 187.92 88.5621 187.92C88.7541 187.92 88.8981 187.912 88.9941 187.896C89.1541 187.88 89.2941 187.916 89.4141 188.004C89.5341 188.092 89.5941 188.212 89.5941 188.364C89.5941 188.54 89.5341 188.7 89.4141 188.844C89.3021 188.98 89.1621 189.056 88.9941 189.072C88.6421 189.104 88.3781 189.12 88.2021 189.12C87.4261 189.12 86.8821 188.956 86.5701 188.628C86.2581 188.292 86.1021 187.696 86.1021 186.84V184.26C86.1021 184.196 86.0661 184.164 85.9941 184.164H85.4181ZM91.7474 189C91.5634 189 91.4034 188.932 91.2674 188.796C91.1314 188.66 91.0634 188.5 91.0634 188.316V183.444C91.0634 183.26 91.1314 183.1 91.2674 182.964C91.4034 182.828 91.5634 182.76 91.7474 182.76H92.0594C92.2434 182.76 92.4034 182.828 92.5394 182.964C92.6754 183.1 92.7434 183.26 92.7434 183.444V188.316C92.7434 188.5 92.6754 188.66 92.5394 188.796C92.4034 188.932 92.2434 189 92.0594 189H91.7474ZM91.7474 181.44C91.5634 181.44 91.4034 181.372 91.2674 181.236C91.1314 181.1 91.0634 180.94 91.0634 180.756V180.684C91.0634 180.5 91.1314 180.34 91.2674 180.204C91.4034 180.068 91.5634 180 91.7474 180H92.0594C92.2434 180 92.4034 180.068 92.5394 180.204C92.6754 180.34 92.7434 180.5 92.7434 180.684V180.756C92.7434 180.94 92.6754 181.1 92.5394 181.236C92.4034 181.372 92.2434 181.44 92.0594 181.44H91.7474ZM94.7101 189C94.5261 189 94.3661 188.932 94.2301 188.796C94.1021 188.66 94.0381 188.5 94.0381 188.316V183.444C94.0381 183.26 94.1021 183.1 94.2301 182.964C94.3661 182.828 94.5261 182.76 94.7101 182.76H94.8781C95.0621 182.76 95.2181 182.824 95.3461 182.952C95.4821 183.08 95.5541 183.236 95.5621 183.42V183.504C95.5621 183.512 95.5661 183.516 95.5741 183.516C95.5901 183.516 95.5981 183.512 95.5981 183.504C96.0701 182.928 96.6021 182.64 97.1941 182.64C97.5541 182.64 97.8421 182.708 98.0581 182.844C98.2821 182.98 98.4781 183.22 98.6461 183.564C98.6461 183.572 98.6541 183.576 98.6701 183.576C98.6781 183.576 98.6861 183.572 98.6941 183.564C99.1981 182.948 99.7661 182.64 100.398 182.64C101.062 182.64 101.538 182.82 101.826 183.18C102.122 183.54 102.27 184.16 102.27 185.04V188.316C102.27 188.5 102.202 188.66 102.066 188.796C101.938 188.932 101.782 189 101.598 189H101.394C101.21 189 101.05 188.932 100.914 188.796C100.778 188.66 100.71 188.5 100.71 188.316V185.28C100.71 184.696 100.654 184.312 100.542 184.128C100.43 183.944 100.214 183.852 99.8941 183.852C99.6861 183.852 99.4781 183.948 99.2701 184.14C99.0621 184.332 98.9581 184.524 98.9581 184.716V188.316C98.9581 188.5 98.8901 188.66 98.7541 188.796C98.6181 188.932 98.4581 189 98.2741 189H98.0701C97.8861 189 97.7261 188.932 97.5901 188.796C97.4621 188.66 97.3981 188.5 97.3981 188.316V185.28C97.3981 184.704 97.3381 184.324 97.2181 184.14C97.1061 183.948 96.8901 183.852 96.5701 183.852C96.3621 183.852 96.1541 183.948 95.9461 184.14C95.7381 184.332 95.6341 184.524 95.6341 184.716V188.316C95.6341 188.5 95.5661 188.66 95.4301 188.796C95.2941 188.932 95.1341 189 94.9501 189H94.7101ZM105.694 183.756C105.286 183.756 104.97 183.872 104.746 184.104C104.53 184.328 104.394 184.692 104.338 185.196C104.338 185.26 104.37 185.292 104.434 185.292H106.786C106.85 185.292 106.882 185.26 106.882 185.196C106.85 184.236 106.454 183.756 105.694 183.756ZM105.994 189.12C104.946 189.12 104.138 188.848 103.57 188.304C103.01 187.752 102.73 186.944 102.73 185.88C102.73 184.824 102.982 184.02 103.486 183.468C103.99 182.916 104.718 182.64 105.67 182.64C107.446 182.64 108.358 183.648 108.406 185.664C108.414 185.856 108.346 186.016 108.202 186.144C108.058 186.272 107.89 186.336 107.698 186.336H104.422C104.35 186.336 104.322 186.372 104.338 186.444C104.394 186.98 104.57 187.372 104.866 187.62C105.17 187.86 105.61 187.98 106.186 187.98C106.546 187.98 106.946 187.92 107.386 187.8C107.53 187.76 107.662 187.784 107.782 187.872C107.91 187.96 107.974 188.08 107.974 188.232C107.974 188.416 107.918 188.58 107.806 188.724C107.702 188.86 107.562 188.944 107.386 188.976C106.938 189.072 106.474 189.12 105.994 189.12Z"></path>
<rect fill="#F08E48" rx="8" height="29" width="100" y="147" x="8"></rect>
<path fill="white" d="M19.208 155.216V161C19.208 161.112 19.272 161.184 19.4 161.216C20.008 161.296 20.6 161.336 21.176 161.336C22.472 161.336 23.456 161.056 24.128 160.496C24.816 159.92 25.16 159.104 25.16 158.048C25.16 155.92 23.832 154.856 21.176 154.856C20.6 154.856 20.008 154.896 19.4 154.976C19.272 155.008 19.208 155.088 19.208 155.216ZM17.24 170C16.872 170 16.552 169.864 16.28 169.592C16.024 169.32 15.896 169 15.896 168.632V153.968C15.896 153.584 16.024 153.24 16.28 152.936C16.536 152.632 16.856 152.464 17.24 152.432C18.6 152.304 19.912 152.24 21.176 152.24C23.576 152.24 25.376 152.72 26.576 153.68C27.776 154.624 28.376 156 28.376 157.808C28.376 159.808 27.792 161.32 26.624 162.344C25.472 163.368 23.76 163.88 21.488 163.88C20.96 163.88 20.264 163.848 19.4 163.784C19.272 163.784 19.208 163.848 19.208 163.976V168.632C19.208 169 19.072 169.32 18.8 169.592C18.528 169.864 18.208 170 17.84 170H17.24ZM30.4199 170C30.0519 170 29.7319 169.864 29.4599 169.592C29.1879 169.32 29.0519 169 29.0519 168.632V158.888C29.0519 158.52 29.1879 158.2 29.4599 157.928C29.7319 157.656 30.0519 157.52 30.4199 157.52H30.8999C31.2679 157.52 31.5879 157.656 31.8599 157.928C32.1319 158.2 32.2679 158.52 32.2679 158.888V159.896C32.2679 159.912 32.2759 159.92 32.2919 159.92C32.3239 159.92 32.3399 159.912 32.3399 159.896C32.8039 159.256 33.4119 158.736 34.1639 158.336C34.9159 157.92 35.7399 157.664 36.6359 157.568C36.9719 157.536 37.2599 157.648 37.4999 157.904C37.7399 158.144 37.8599 158.432 37.8599 158.768C37.8599 159.104 37.7399 159.392 37.4999 159.632C37.2599 159.872 36.9719 160.008 36.6359 160.04C33.8039 160.264 32.3879 161.704 32.3879 164.36V168.632C32.3879 169 32.2519 169.32 31.9799 169.592C31.7079 169.864 31.3879 170 31.0199 170H30.4199ZM44.4138 164C42.1258 164 40.9818 164.704 40.9818 166.112C40.9818 166.624 41.1258 167.04 41.4138 167.36C41.7178 167.68 42.1018 167.84 42.5658 167.84C43.4778 167.84 44.2138 167.56 44.7738 167C45.3338 166.424 45.6138 165.64 45.6138 164.648V164.216C45.6138 164.072 45.5418 164 45.3978 164H44.4138ZM41.7018 170.24C40.6138 170.24 39.7098 169.888 38.9898 169.184C38.2858 168.464 37.9338 167.536 37.9338 166.4C37.9338 165.008 38.4618 163.928 39.5178 163.16C40.5898 162.392 42.2218 162.008 44.4138 162.008H45.3978C45.5418 162.008 45.6138 161.936 45.6138 161.792V161.6C45.6138 160.864 45.4378 160.352 45.0858 160.064C44.7338 159.76 44.1098 159.608 43.2138 159.608C42.2858 159.608 41.1498 159.776 39.8058 160.112C39.5178 160.192 39.2538 160.144 39.0138 159.968C38.7738 159.776 38.6538 159.528 38.6538 159.224C38.6538 158.856 38.7658 158.528 38.9898 158.24C39.2138 157.936 39.5018 157.752 39.8538 157.688C41.0698 157.416 42.2138 157.28 43.2858 157.28C45.3338 157.28 46.7658 157.648 47.5818 158.384C48.3978 159.12 48.8058 160.408 48.8058 162.248V168.632C48.8058 169 48.6698 169.32 48.3978 169.592C48.1418 169.864 47.8298 170 47.4618 170H47.1978C46.8138 170 46.4858 169.872 46.2138 169.616C45.9418 169.344 45.7978 169.016 45.7818 168.632V168.296C45.7818 168.28 45.7738 168.272 45.7578 168.272C45.7258 168.272 45.7098 168.28 45.7098 168.296C44.7338 169.592 43.3978 170.24 41.7018 170.24ZM55.8989 170.24C53.9149 170.24 52.3869 169.696 51.3149 168.608C50.2429 167.504 49.7069 165.888 49.7069 163.76C49.7069 161.664 50.2189 160.064 51.2429 158.96C52.2829 157.84 53.7549 157.28 55.6589 157.28C56.5069 157.28 57.3229 157.336 58.1069 157.448C58.4749 157.496 58.7789 157.664 59.0189 157.952C59.2589 158.24 59.3789 158.576 59.3789 158.96C59.3789 159.28 59.2509 159.536 58.9949 159.728C58.7549 159.92 58.4749 159.984 58.1549 159.92C57.5309 159.792 56.8349 159.728 56.0669 159.728C55.0589 159.728 54.3069 160.048 53.8109 160.688C53.3149 161.328 53.0669 162.352 53.0669 163.76C53.0669 165.2 53.3309 166.232 53.8589 166.856C54.3869 167.48 55.2029 167.792 56.3069 167.792C57.0909 167.792 57.7709 167.72 58.3469 167.576C58.6509 167.496 58.9229 167.552 59.1629 167.744C59.4189 167.936 59.5469 168.184 59.5469 168.488C59.5469 168.872 59.4269 169.208 59.1869 169.496C58.9629 169.784 58.6669 169.96 58.2989 170.024C57.4829 170.168 56.6829 170.24 55.8989 170.24ZM61.8464 160.328C61.5264 160.328 61.2544 160.216 61.0304 159.992C60.8064 159.752 60.6944 159.472 60.6944 159.152C60.6944 158.832 60.8064 158.56 61.0304 158.336C61.2544 158.112 61.5264 158 61.8464 158H62.9984C63.1424 158 63.2144 157.928 63.2144 157.784V154.808C63.2144 154.44 63.3424 154.12 63.5984 153.848C63.8704 153.576 64.1904 153.44 64.5584 153.44H65.0384C65.4064 153.44 65.7264 153.576 65.9984 153.848C66.2704 154.12 66.4064 154.44 66.4064 154.808V157.784C66.4064 157.928 66.4784 158 66.6224 158H69.3584C69.6784 158 69.9504 158.112 70.1744 158.336C70.4144 158.56 70.5344 158.832 70.5344 159.152C70.5344 159.472 70.4144 159.752 70.1744 159.992C69.9504 160.216 69.6784 160.328 69.3584 160.328H66.6224C66.4784 160.328 66.4064 160.392 66.4064 160.52V165.368C66.4064 166.408 66.5184 167.08 66.7424 167.384C66.9664 167.688 67.4304 167.84 68.1344 167.84C68.5184 167.84 68.8064 167.824 68.9984 167.792C69.3184 167.76 69.5984 167.832 69.8384 168.008C70.0784 168.184 70.1984 168.424 70.1984 168.728C70.1984 169.08 70.0784 169.4 69.8384 169.688C69.6144 169.96 69.3344 170.112 68.9984 170.144C68.2944 170.208 67.7664 170.24 67.4144 170.24C65.8624 170.24 64.7744 169.912 64.1504 169.256C63.5264 168.584 63.2144 167.392 63.2144 165.68V160.52C63.2144 160.392 63.1424 160.328 62.9984 160.328H61.8464ZM74.5049 170C74.1369 170 73.8169 169.864 73.5449 169.592C73.2729 169.32 73.1369 169 73.1369 168.632V158.888C73.1369 158.52 73.2729 158.2 73.5449 157.928C73.8169 157.656 74.1369 157.52 74.5049 157.52H75.1289C75.4969 157.52 75.8169 157.656 76.0889 157.928C76.3609 158.2 76.4969 158.52 76.4969 158.888V168.632C76.4969 169 76.3609 169.32 76.0889 169.592C75.8169 169.864 75.4969 170 75.1289 170H74.5049ZM74.5049 154.88C74.1369 154.88 73.8169 154.744 73.5449 154.472C73.2729 154.2 73.1369 153.88 73.1369 153.512V153.368C73.1369 153 73.2729 152.68 73.5449 152.408C73.8169 152.136 74.1369 152 74.5049 152H75.1289C75.4969 152 75.8169 152.136 76.0889 152.408C76.3609 152.68 76.4969 153 76.4969 153.368V153.512C76.4969 153.88 76.3609 154.2 76.0889 154.472C75.8169 154.744 75.4969 154.88 75.1289 154.88H74.5049ZM84.4383 170.24C82.4543 170.24 80.9263 169.696 79.8543 168.608C78.7823 167.504 78.2463 165.888 78.2463 163.76C78.2463 161.664 78.7583 160.064 79.7823 158.96C80.8223 157.84 82.2943 157.28 84.1983 157.28C85.0463 157.28 85.8623 157.336 86.6463 157.448C87.0143 157.496 87.3183 157.664 87.5583 157.952C87.7983 158.24 87.9183 158.576 87.9183 158.96C87.9183 159.28 87.7903 159.536 87.5343 159.728C87.2943 159.92 87.0143 159.984 86.6943 159.92C86.0703 159.792 85.3743 159.728 84.6063 159.728C83.5983 159.728 82.8463 160.048 82.3503 160.688C81.8543 161.328 81.6063 162.352 81.6063 163.76C81.6063 165.2 81.8703 166.232 82.3983 166.856C82.9263 167.48 83.7423 167.792 84.8463 167.792C85.6303 167.792 86.3103 167.72 86.8863 167.576C87.1903 167.496 87.4623 167.552 87.7023 167.744C87.9583 167.936 88.0863 168.184 88.0863 168.488C88.0863 168.872 87.9663 169.208 87.7263 169.496C87.5023 169.784 87.2063 169.96 86.8383 170.024C86.0223 170.168 85.2223 170.24 84.4383 170.24ZM94.9218 159.512C94.1058 159.512 93.4738 159.744 93.0258 160.208C92.5938 160.656 92.3218 161.384 92.2098 162.392C92.2098 162.52 92.2738 162.584 92.4018 162.584H97.1058C97.2338 162.584 97.2978 162.52 97.2978 162.392C97.2338 160.472 96.4418 159.512 94.9218 159.512ZM95.5218 170.24C93.4258 170.24 91.8098 169.696 90.6738 168.608C89.5538 167.504 88.9938 165.888 88.9938 163.76C88.9938 161.648 89.4978 160.04 90.5058 158.936C91.5138 157.832 92.9698 157.28 94.8738 157.28C98.4258 157.28 100.25 159.296 100.346 163.328C100.362 163.712 100.226 164.032 99.9378 164.288C99.6498 164.544 99.3138 164.672 98.9298 164.672H92.3778C92.2338 164.672 92.1778 164.744 92.2098 164.888C92.3218 165.96 92.6738 166.744 93.2658 167.24C93.8738 167.72 94.7538 167.96 95.9058 167.96C96.6258 167.96 97.4258 167.84 98.3058 167.6C98.5938 167.52 98.8578 167.568 99.0978 167.744C99.3538 167.92 99.4818 168.16 99.4818 168.464C99.4818 168.832 99.3698 169.16 99.1458 169.448C98.9378 169.72 98.6578 169.888 98.3058 169.952C97.4098 170.144 96.4818 170.24 95.5218 170.24Z"></path>
<path fill="#F08E48" d="M92 148H82C82 140.786 86.7375 136.415 90.3013 135.29C91.0353 135.058 91.5237 135.838 91.197 136.534C89.0597 141.094 89.449 145.074 92 148Z"></path>
</svg>
