<svg width="34" height="24" viewBox="0 0 34 24" fill="none" xmlns="http://www.w3.org/2000/svg">
<rect x="0.5" y="0.5" width="33" height="23" rx="3.5" fill="white" stroke="#D9D9D9"/>
<path fill-rule="evenodd" clip-rule="evenodd" d="M14.615 18.4482L14.8357 16.9991L14.344 16.9873H11.9961L13.6278 6.29364C13.6329 6.26126 13.6493 6.2312 13.6733 6.20981C13.6975 6.18843 13.7282 6.1767 13.7604 6.1767H17.7193C19.0338 6.1767 19.9408 6.45933 20.4143 7.01727C20.6363 7.27902 20.7777 7.55261 20.8461 7.85357C20.9179 8.16945 20.9191 8.54679 20.8491 9.00709L20.844 9.04057V9.33555L21.066 9.46557C21.2529 9.56809 21.4016 9.6854 21.5155 9.81969C21.7054 10.0435 21.8282 10.328 21.8801 10.6652C21.9338 11.0119 21.9161 11.4247 21.8282 11.892C21.7269 12.4294 21.5632 12.8975 21.342 13.2805C21.1386 13.6334 20.8795 13.9262 20.5717 14.153C20.2779 14.3685 19.9289 14.5321 19.5343 14.6368C19.1519 14.7397 18.7158 14.7917 18.2376 14.7917H17.9295C17.7093 14.7917 17.4953 14.8737 17.3273 15.0207C17.1588 15.1707 17.0475 15.3758 17.0133 15.6L16.99 15.7305L16.6 18.2847L16.5824 18.3784C16.5776 18.4081 16.5696 18.4229 16.5578 18.4329C16.5473 18.4421 16.5321 18.4482 16.5173 18.4482H14.615Z" fill="#28356A"/>
<path fill-rule="evenodd" clip-rule="evenodd" d="M21.2761 9.07465C21.2644 9.15273 21.2508 9.23252 21.2356 9.31451C20.7136 12.0852 18.9273 13.0423 16.646 13.0423H15.4845C15.2055 13.0423 14.9703 13.2516 14.9269 13.5361L14.1638 18.5394C14.1356 18.7262 14.2748 18.8945 14.4571 18.8945H16.5173C16.7612 18.8945 16.9684 18.7113 17.0069 18.4626L17.0271 18.3545L17.415 15.8103L17.4399 15.6707C17.4779 15.4212 17.6856 15.2379 17.9295 15.2379H18.2376C20.2336 15.2379 21.7961 14.4004 22.2528 11.9765C22.4435 10.964 22.3448 10.1186 21.84 9.52396C21.6873 9.3447 21.4977 9.19586 21.2761 9.07465Z" fill="#298FC2"/>
<path fill-rule="evenodd" clip-rule="evenodd" d="M20.7288 8.84962C20.649 8.82555 20.5667 8.8038 20.4823 8.78413C20.3974 8.76494 20.3105 8.74796 20.2211 8.73305C19.9079 8.68075 19.5647 8.65594 19.1971 8.65594H16.0941C16.0176 8.65594 15.945 8.67379 15.8801 8.70604C15.7369 8.77716 15.6306 8.9172 15.6049 9.08864L14.9447 13.4102L14.9258 13.5362C14.9692 13.2517 15.2043 13.0424 15.4833 13.0424H16.6449C18.9261 13.0424 20.7124 12.0847 21.2345 9.31457C21.2501 9.23258 21.2632 9.15279 21.2749 9.07471C21.1428 9.00224 20.9998 8.94029 20.8457 8.8875C20.8077 8.87443 20.7684 8.86184 20.7288 8.84962Z" fill="#22284F"/>
<path fill-rule="evenodd" clip-rule="evenodd" d="M15.6047 9.08862C15.6304 8.91718 15.7367 8.77715 15.8799 8.70652C15.9453 8.67414 16.0174 8.6563 16.0939 8.6563H19.1969C19.5645 8.6563 19.9077 8.68123 20.2208 8.73353C20.3103 8.74831 20.3972 8.76542 20.4821 8.7846C20.5665 8.80415 20.6488 8.82603 20.7286 8.84998C20.7682 8.8622 20.8075 8.8749 20.8459 8.88749C20.9999 8.94028 21.1431 9.00272 21.2752 9.07469C21.4305 8.05082 21.2739 7.3537 20.7383 6.72245C20.1478 6.0274 19.0821 5.72998 17.7184 5.72998H13.7593C13.4808 5.72998 13.2431 5.9393 13.2001 6.22426L11.5511 17.0279C11.5186 17.2416 11.6781 17.4344 11.8866 17.4344H14.3308L15.6047 9.08862Z" fill="#28356A"/>
</svg>
