<svg width="34" height="24" viewBox="0 0 34 24" fill="none" xmlns="http://www.w3.org/2000/svg">
<rect x="0.5" y="0.5" width="33" height="23" rx="3.5" fill="white" stroke="#D9D9D9"/>
<g clip-path="url(#clip0_13031_7168)">
<path fill-rule="evenodd" clip-rule="evenodd" d="M16.3413 9.28966V11.8176H17.9003C18.2718 11.8176 18.5789 11.6925 18.8216 11.443C19.0711 11.1941 19.1962 10.8969 19.1962 10.5533C19.1962 10.2165 19.0711 9.92304 18.8216 9.67291C18.5789 9.41721 18.2718 9.28904 17.9003 9.28904H16.3413V9.28966ZM16.3413 12.7073V15.6395H15.4102V8.39996H17.8805C18.5077 8.39996 19.0402 8.60861 19.4791 9.02653C19.9249 9.44445 20.1478 9.95338 20.1478 10.5533C20.1478 11.1669 19.9249 11.6795 19.4791 12.09C19.0476 12.5017 18.5139 12.7067 17.8799 12.7067H16.3413V12.7073ZM21.0889 14.1233C21.0889 14.366 21.1917 14.5678 21.3978 14.73C21.6034 14.891 21.8448 14.9721 22.121 14.9721C22.5129 14.9721 22.8615 14.8272 23.1686 14.5381C23.4763 14.2477 23.6292 13.9072 23.6292 13.5165C23.3388 13.2874 22.9339 13.1729 22.4145 13.1729C22.0368 13.1729 21.721 13.2645 21.4684 13.4465C21.2152 13.6286 21.0889 13.8533 21.0889 14.1233ZM22.2937 10.523C22.9822 10.523 23.5252 10.7069 23.9239 11.074C24.3214 11.4418 24.5208 11.9458 24.5208 12.5859V15.6395H23.6298V14.9523H23.5896C23.2045 15.5182 22.6918 15.8017 22.0504 15.8017C21.5043 15.8017 21.0468 15.6395 20.679 15.3163C20.3112 14.9925 20.1274 14.5882 20.1274 14.1028C20.1274 13.5902 20.3212 13.1828 20.7093 12.8794C21.0975 12.576 21.6151 12.4244 22.2634 12.4244C22.8157 12.4244 23.272 12.5253 23.6292 12.7277V12.5147C23.6292 12.1916 23.501 11.9167 23.2447 11.6913C22.9978 11.4691 22.6761 11.3481 22.3439 11.3526C21.8238 11.3526 21.4127 11.5712 21.1087 12.0102L20.289 11.4938C20.7409 10.8468 21.4096 10.523 22.2937 10.523ZM29.6324 10.6852L26.5243 17.8238H25.5628L26.7168 15.3262L24.6724 10.6852H25.6847L27.1626 14.2446H27.1824L28.6201 10.6846L29.6324 10.6852Z" fill="black"/>
<path d="M10.5451 7.42096C10.0573 7.44931 9.49725 7.72107 9.16429 8.06714C8.86348 8.38191 8.62615 8.8494 8.72303 9.30167C9.25315 9.31563 9.78524 9.03683 10.1038 8.68441C10.4012 8.35483 10.6267 7.89481 10.5451 7.42096ZM10.574 9.30084C9.80865 9.30084 9.48865 9.77102 8.95853 9.77102C8.41319 9.77102 7.91466 9.33059 7.25466 9.33059C6.35689 9.33101 4.99219 10.1626 4.99219 12.1219C4.99219 13.9043 6.60735 15.8825 7.51908 15.8825C8.07289 15.888 8.20715 15.5343 8.95853 15.5305C9.71076 15.525 9.87308 15.8872 10.4277 15.8825C11.0522 15.8778 11.5399 15.1916 11.8961 14.648C12.1516 14.2587 12.2567 14.06 12.4547 13.62C10.9854 13.2477 10.693 10.8782 12.4547 10.3883C12.1222 9.82094 11.1515 9.30084 10.574 9.30084Z" fill="black"/>
</g>
<defs>
<clipPath id="clip0_13031_7168">
<rect width="25.3846" height="11" fill="white" transform="translate(4.25195 6.81219)"/>
</clipPath>
</defs>
</svg>
