<svg width="34" height="24" viewBox="0 0 34 24" fill="none" xmlns="http://www.w3.org/2000/svg">
<rect x="0.5" y="0.5" width="33" height="23" rx="3.5" fill="white" stroke="#D9D9D9"/>
<g clip-path="url(#clip0_13031_7176)">
<path fill-rule="evenodd" clip-rule="evenodd" d="M16.3433 9.28972V11.8177H17.9023C18.2738 11.8177 18.5809 11.6926 18.8236 11.4431C19.0731 11.1942 19.1981 10.897 19.1981 10.5534C19.1981 10.2166 19.0731 9.9231 18.8236 9.67297C18.5809 9.41727 18.2738 9.28911 17.9023 9.28911H16.3433V9.28972ZM16.3433 12.7074V15.6396H15.4121V8.40002H17.8825C18.5097 8.40002 19.0421 8.60867 19.4811 9.02659C19.9269 9.44451 20.1497 9.95344 20.1497 10.5534C20.1497 11.1669 19.9269 11.6796 19.4811 12.0901C19.0495 12.5018 18.5158 12.7067 17.8818 12.7067H16.3433V12.7074ZM21.0908 14.1233C21.0908 14.366 21.1936 14.5679 21.3998 14.7301C21.6053 14.8911 21.8468 14.9722 22.1229 14.9722C22.5148 14.9722 22.8634 14.8273 23.1705 14.5381C23.4782 14.2478 23.6312 13.9072 23.6312 13.5166C23.3408 13.2875 22.9359 13.173 22.4164 13.173C22.0387 13.173 21.723 13.2646 21.4704 13.4466C21.2171 13.6286 21.0908 13.8534 21.0908 14.1233ZM22.2957 10.523C22.9842 10.523 23.5271 10.7069 23.9259 11.0741C24.3233 11.4418 24.5227 11.9458 24.5227 12.586V15.6396H23.6318V14.9524H23.5915C23.2064 15.5182 22.6938 15.8018 22.0524 15.8018C21.5063 15.8018 21.0487 15.6396 20.681 15.3164C20.3132 14.9926 20.1293 14.5883 20.1293 14.1029C20.1293 13.5902 20.3231 13.1829 20.7113 12.8795C21.0995 12.5761 21.6171 12.4244 22.2653 12.4244C22.8176 12.4244 23.2739 12.5253 23.6312 12.7278V12.5148C23.6312 12.1916 23.503 11.9167 23.2467 11.6914C22.9997 11.4691 22.678 11.3482 22.3458 11.3527C21.8258 11.3527 21.4146 11.5712 21.1106 12.0102L20.2909 11.4939C20.7429 10.8469 21.4115 10.523 22.2957 10.523ZM29.6343 10.6853L26.5262 17.8239H25.5647L26.7188 15.3263L24.6744 10.6853H25.6867L27.1646 14.2447H27.1844L28.622 10.6846L29.6343 10.6853Z" fill="black"/>
<path fill-rule="evenodd" clip-rule="evenodd" d="M12.5797 12.4983C12.5797 12.2055 12.5549 11.9225 12.5079 11.6526H8.58008V13.2549H10.83C10.7839 13.5109 10.6864 13.7549 10.5434 13.9722C10.4004 14.1895 10.2148 14.3756 9.9979 14.5192V15.5593H11.3408C12.1271 14.835 12.5797 13.7638 12.5797 12.4983Z" fill="#4285F4"/>
<path fill-rule="evenodd" clip-rule="evenodd" d="M8.57843 16.5636C9.70279 16.5636 10.6488 16.1952 11.3392 15.56L9.99626 14.5192C9.62292 14.7706 9.14185 14.9173 8.57843 14.9173C7.49247 14.9173 6.56995 14.1855 6.24057 13.1998H4.85742V14.2716C5.2044 14.9609 5.73606 15.5403 6.39309 15.9451C7.05013 16.3499 7.8067 16.5643 8.57843 16.5642" fill="#34A853"/>
<path fill-rule="evenodd" clip-rule="evenodd" d="M6.24309 13.1999C6.06934 12.6833 6.06934 12.124 6.24309 11.6074V10.5357H4.85994C4.56754 11.1147 4.41547 11.7544 4.41602 12.403C4.41602 13.0748 4.57699 13.7094 4.85994 14.271L6.24309 13.1992V13.1999Z" fill="#FABB05"/>
<path fill-rule="evenodd" clip-rule="evenodd" d="M8.58172 9.88994C9.19591 9.88994 9.7457 10.1004 10.1791 10.514V10.5146L11.3678 9.32714C10.6472 8.656 9.70607 8.24365 8.58234 8.24365C7.81067 8.24355 7.05414 8.4578 6.39712 8.86251C5.74009 9.26722 5.2084 9.84648 4.86133 10.5357L6.24448 11.6074C6.57386 10.6218 7.49637 9.88994 8.58234 9.88994" fill="#E94235"/>
</g>
<defs>
<clipPath id="clip0_13031_7176">
<rect width="25.3846" height="11" fill="white" transform="translate(4.25195 6.81226)"/>
</clipPath>
</defs>
</svg>
