<svg width="34" height="24" viewBox="0 0 34 24" fill="none" xmlns="http://www.w3.org/2000/svg">
<rect width="34" height="24" rx="4.33766" fill="white"/>
<rect x="0.542208" y="0.542208" width="32.9156" height="22.9156" rx="3.79545" stroke="black" stroke-opacity="0.1" stroke-width="1.08442"/>
<path fill-rule="evenodd" clip-rule="evenodd" d="M10.751 15.8582H8.69129L7.14673 9.79236C7.07342 9.51333 6.91776 9.26665 6.68879 9.15038C6.11736 8.85821 5.48769 8.62569 4.80078 8.50841V8.27488H8.11886C8.5768 8.27488 8.92026 8.62569 8.9775 9.03311L9.7789 13.4086L11.8376 8.27488H13.8401L10.751 15.8582ZM14.985 15.8582H13.0398L14.6416 8.27488H16.5868L14.985 15.8582ZM19.1023 10.3757C19.1596 9.96725 19.503 9.73372 19.9037 9.73372C20.5334 9.67508 21.2193 9.79235 21.7917 10.0835L22.1352 8.45079C21.5628 8.21725 20.9331 8.09998 20.3617 8.09998C18.4737 8.09998 17.0998 9.15038 17.0998 10.6082C17.0998 11.7173 18.073 12.2996 18.7599 12.6504C19.503 13.0002 19.7892 13.2337 19.732 13.5835C19.732 14.1082 19.1596 14.3418 18.5881 14.3418C17.9012 14.3418 17.2143 14.1669 16.5856 13.8747L16.2422 15.5084C16.9291 15.7996 17.6723 15.9169 18.3592 15.9169C20.4762 15.9745 21.7917 14.9251 21.7917 13.35C21.7917 11.3664 19.1023 11.2502 19.1023 10.3757ZM28.5995 15.8583L27.055 8.2749H25.3959C25.0525 8.2749 24.709 8.50844 24.5945 8.85824L21.7344 15.8583H23.7369L24.1366 14.7502H26.597L26.826 15.8583H28.5995ZM25.6834 10.3171L26.2548 13.1751H24.653L25.6834 10.3171Z" fill="#172B85"/>
</svg>
