<svg width="34" height="24" viewBox="0 0 34 24" fill="none" xmlns="http://www.w3.org/2000/svg">
<rect width="34" height="24" rx="4.33766" fill="white"/>
<rect x="0.542208" y="0.542208" width="32.9156" height="22.9156" rx="3.79545" stroke="black" stroke-opacity="0.1" stroke-width="1.08442"/>
<path d="M21.5771 5.02997C25.322 5.02997 28.3584 8.02986 28.3584 11.7302C28.3583 15.4304 25.322 18.4304 21.5771 18.4304C19.8982 18.4303 18.3629 17.8256 17.1787 16.8268C15.9945 17.8254 14.4591 18.4304 12.7803 18.4304C9.03566 18.4301 6.00011 15.4302 6 11.7302C6 8.02999 9.03559 5.03019 12.7803 5.02997C14.459 5.02997 15.9945 5.63405 17.1787 6.63251C18.3629 5.63391 19.8983 5.03 21.5771 5.02997Z" fill="#ED0006"/>
<path d="M21.5781 5.02997C25.3229 5.03005 28.3584 8.0299 28.3584 11.7302C28.3583 15.4303 25.3229 18.4303 21.5781 18.4304C19.8992 18.4304 18.3639 17.8255 17.1797 16.8268C18.6368 15.598 19.5624 13.7714 19.5625 11.7302C19.5625 9.68867 18.6371 7.8614 17.1797 6.63251C18.3639 5.63397 19.8993 5.02997 21.5781 5.02997Z" fill="#F9A000"/>
<path d="M17.1787 6.63251C18.6363 7.86141 19.5615 9.68853 19.5615 11.7302C19.5615 13.7716 18.636 15.598 17.1787 16.8268C15.7218 15.598 14.7969 13.7713 14.7969 11.7302C14.7969 9.68882 15.7215 7.8614 17.1787 6.63251Z" fill="#FF5E00"/>
</svg>
