<svg width="34" height="24" viewBox="0 0 34 24" fill="none" xmlns="http://www.w3.org/2000/svg">
<rect width="34" height="24" rx="4.33766" fill="white"/>
<rect x="0.542208" y="0.542208" width="32.9156" height="22.9156" rx="3.79545" stroke="black" stroke-opacity="0.1" stroke-width="1.08442"/>
<path d="M12.6289 5C16.2898 5.00006 19.2578 8.0026 19.2578 11.7061C19.2577 15.4094 16.2897 18.4111 12.6289 18.4111C8.96802 18.4111 6.00016 15.4094 6 11.7061C6 8.00257 8.96792 5 12.6289 5Z" fill="#ED0006"/>
<path d="M21.2266 5C24.8875 5.00005 27.8555 8.0026 27.8555 11.7061C27.8553 15.4094 24.8874 18.4111 21.2266 18.4111C17.5657 18.4111 14.5978 15.4094 14.5977 11.7061C14.5977 8.00257 17.5656 5 21.2266 5Z" fill="#0099DF"/>
<path d="M16.9277 6.60205C18.3532 7.83198 19.2578 9.66173 19.2578 11.7056C19.2578 13.7492 18.3529 15.5781 16.9277 16.8081C15.5025 15.5781 14.5977 13.7492 14.5977 11.7056C14.5977 9.66168 15.5022 7.83198 16.9277 6.60205Z" fill="#6C6BBD"/>
</svg>
