<svg width="34" height="24" viewBox="0 0 34 24" fill="none" xmlns="http://www.w3.org/2000/svg">
<rect width="34" height="24" rx="4.33766" fill="white"/>
<rect x="0.542208" y="0.542208" width="32.9156" height="22.9156" rx="3.79545" stroke="black" stroke-opacity="0.1" stroke-width="1.08442"/>
<path d="M12.3125 22.9156L32.9164 16.6802V19.6623C32.9164 21.459 31.4599 22.9156 29.6632 22.9156H12.3125Z" fill="#FD6020"/>
<path d="M14.1846 9.11102C14.5504 9.11102 14.9686 9.16467 15.2822 9.37958V10.4538C15.0209 10.1315 14.6026 9.91669 14.1846 9.91669C13.3484 9.97046 12.6694 10.7231 12.7217 11.5827V11.6901C12.7219 12.5496 13.4012 13.194 14.2373 13.194C14.6552 13.1939 15.021 12.9792 15.2822 12.6569V13.7311C14.9165 13.8923 14.5508 13.9996 14.1328 13.9997C12.8263 13.9997 11.7805 12.872 11.7803 11.529C11.7803 10.1321 12.8257 9.00361 14.1846 9.11102ZM22.3887 12.3347L23.6436 9.11102H24.584L22.6504 13.9997H22.1797L20.2461 9.11102H21.1865L22.3887 12.3347ZM10.0039 9.0036C10.4741 9.00374 10.9448 9.21845 11.3105 9.54071L10.8398 10.1852C10.6309 9.97045 10.3696 9.80943 10.1084 9.80927C9.79486 9.75555 9.53279 10.0241 9.48047 10.3464C9.48047 10.615 9.63768 10.7223 10.1602 10.9372C11.2055 11.367 11.4673 11.6899 11.5195 12.3347V12.4958C11.4672 13.3554 10.7874 13.9997 9.95117 13.946C9.324 13.946 8.6964 13.6239 8.38281 13.0329L8.95801 12.4421C9.11482 12.8181 9.48132 13.0866 9.89941 13.0866H9.95117C10.2647 13.0866 10.578 12.7644 10.5781 12.3884C10.5781 12.1736 10.474 12.0124 10.3174 11.905C10.1083 11.7975 9.89851 11.6901 9.68945 11.6364C8.85343 11.3678 8.59277 10.991 8.59277 10.3464V10.2927C8.64514 9.54059 9.27227 8.94988 10.0039 9.0036ZM4.56836 9.11102C5.82251 9.16498 6.81495 10.2397 6.7627 11.529C6.76257 12.2272 6.44924 12.8717 5.92676 13.3552C5.45639 13.7312 4.88152 13.946 4.30664 13.8923H3V9.11102H4.56836ZM8.01758 13.8923H7.12891V9.11102H8.01758V13.8923ZM27.5117 9.91669H25.8916V10.9909H27.46V11.7975H25.8916V13.0866H27.5117V13.8923H25.0039V9.11102H27.5117V9.91669ZM29.3926 9.11102C30.4377 9.11103 31.0125 9.59443 31.0127 10.5075C31.0649 11.2058 30.5948 11.7974 29.9678 11.905L31.3789 13.8923H30.2812L29.0791 11.9587H28.9746V13.8923H28.0859V9.11102H29.3926ZM4.14844 9.91669H3.88672V13.0866H4.14844C4.56643 13.1402 5.03709 12.9791 5.35059 12.7106C5.66391 12.3884 5.82022 11.9585 5.82031 11.4753C5.82031 11.0455 5.66409 10.615 5.35059 10.2927C5.0371 10.0241 4.56645 9.86312 4.14844 9.91669ZM28.9727 11.3141H29.2344C29.8088 11.314 30.0701 11.0453 30.0703 10.5622C30.0703 10.1325 29.809 9.86408 29.2344 9.86395H28.9727V11.3141Z" fill="black"/>
<path fill-rule="evenodd" clip-rule="evenodd" d="M17.9471 9C16.6405 9 15.543 10.0745 15.543 11.4714C15.543 12.8146 16.5883 13.9429 17.9471 13.9966C19.306 14.0503 20.3513 12.9221 20.4036 11.5252C20.3513 10.1283 19.306 9 17.9471 9V9Z" fill="#FD6020"/>
</svg>
