<svg xmlns="http://www.w3.org/2000/svg" fill="none" viewBox="0 0 343 203" height="203" width="343">
<path fill-opacity="0.7" fill="white" d="M192.902 171.263H188.336L182.058 165.874V158.689L177.492 151.503V143.12L179.205 140.126V134.138L174.639 128.15V123.359L169.502 118.569H166.649L163.795 122.162H158.088L148.386 111.383V100.006L158.088 83.8383H163.795L167.22 80.2455H174.639L176.351 81.4431V85.6347L180.346 88.6287H184.912L187.765 85.0359H191.19L196.326 88.6287H198.609L200.892 86.8323V83.2395L198.609 80.8443H189.478L179.205 70.0658H177.492V71.8622L182.629 77.2515V80.2455H179.205L171.785 72.461H169.502L161.512 80.8443H156.376L154.664 78.4491V72.461L156.376 70.0658H158.659L162.083 71.8622L163.795 70.0658L160.942 68.2694V64.6766H163.795L172.927 56.2934V53.8982H176.351V56.2934H182.629L187.765 52.1018V47.9101L186.053 46.7125V43.7185L187.765 41.9221V38.3293H185.482L182.058 42.5209V50.9042L180.346 53.2994H178.063L176.922 52.1018V45.5149H175.21L172.927 50.3054H168.932L166.649 47.9101V43.7185L169.502 40.7245H172.356L179.205 35.3353V32.3413L187.195 26.3533H194.043L202.604 33.5389V35.9341L198.038 38.3293V40.1257L199.75 41.9221H203.745L206.599 36.5329V32.9401H209.453V35.9341H212.877L216.872 32.3413H228.286L229.998 30.5449V25.1557L232.281 23.3592H243.695L247.12 21.5628H250.544L253.968 19.1676H261.388L263.1 14.3772H266.524L268.236 17.3712H273.373V22.1616L276.797 25.7545H286.499L289.923 29.3473H292.206L293.918 27.5509H297.913V23.9581L296.201 22.1616V19.1676H301.338V24.5569L317.888 31.1437H335.01L343 37.7305V39.5269L341.859 41.3233H338.434L336.151 38.9281H333.869L329.303 44.9161H321.883L315.606 58.6886H312.752L311.04 56.2934V53.2994L315.606 43.7185H311.611L307.045 47.9101H300.767L295.06 54.497V56.2934L299.626 56.8922V59.8862L295.06 70.6646H289.923L287.07 74.2575V77.8503L289.353 81.4431V83.8383H286.499L280.221 74.8563H277.938L276.226 78.4491V81.4431L280.221 85.0359V93.4191L276.226 98.2095H269.378L267.666 100.006V105.395L269.378 108.389V113.18H266.524L264.241 110.186H262.529V113.778L264.812 118.569V125.156L267.666 128.15H270.519L275.656 131.742V134.736H269.378L265.953 131.742H262.529L260.246 128.748V122.162L258.534 119.766V105.395L254.539 98.8083H251.115L242.554 108.988V113.778L244.266 115.575V119.766H241.413V116.174L239.7 114.377L235.705 104.796V100.006L232.281 96.4131H224.291L219.155 88.6287H215.16V91.0239L222.008 100.605V103.989L211.165 110.784H208.311L206.599 107.79L198.609 93.4191H196.897V97.6107L206.599 113.778H214.018V119.766L205.458 127.551V145.515L200.892 150.904V158.09L192.902 171.263ZM213.543 79.2487L211.93 75.8633C211.802 75.5945 211.735 75.3006 211.735 75.0029V67.8923C211.735 67.0423 212.273 66.2851 213.075 66.0045L213.285 65.9312C214.322 65.5683 215.458 66.1108 215.828 67.1459L216.755 69.7394C216.832 69.9554 216.872 70.1831 216.872 70.4125V78.4961C216.872 79.4623 216.089 80.2455 215.123 80.2455C214.448 80.2455 213.833 79.8576 213.543 79.2487ZM204.318 76.0539H202.761C202.291 76.0539 201.836 75.8881 201.476 75.5857L199.737 74.1268C199.377 73.8244 198.922 73.6587 198.452 73.6587H197.754C197.206 73.6587 196.683 73.8828 196.306 74.2788L195.205 75.4337C194.828 75.8297 194.304 76.0539 193.757 76.0539H193.224C192.352 76.0539 191.581 75.4878 191.317 74.6574C191.233 74.394 191.205 74.1156 191.234 73.8407L191.636 70.0442C191.713 69.3189 192.178 68.6929 192.851 68.4106L193.142 68.2886C194.003 67.9272 194.999 68.2099 195.543 68.9697L195.728 69.2289C196.103 69.7542 196.709 70.0658 197.355 70.0658H198.525C199.517 70.0658 200.321 69.2616 200.321 68.2694V68.1852C200.321 67.2396 201.088 66.473 202.033 66.473C202.979 66.473 203.745 67.2396 203.745 68.1852V70.463C203.745 70.9768 203.943 71.4709 204.298 71.8429L205.556 73.1631C205.859 73.4812 206.028 73.9038 206.028 74.3433C206.028 75.288 205.262 76.0539 204.318 76.0539Z" clip-rule="evenodd" fill-rule="evenodd"></path>
<path fill-opacity="0.7" fill="white" d="M94.1682 18.5688V23.3592H106.724L112.431 35.3353V44.3173L116.426 47.9101H121.563L124.987 38.3293H129.553L140.396 31.7425V28.1497L144.962 23.3592V16.7724L150.669 11.3832V8.38918H143.25V3.59876H139.825L137.543 5.99397H124.987L122.704 3.59876H116.426L111.29 8.98798H105.583L99.8754 13.1796V16.1736L94.1682 18.5688Z"></path>
<path fill-opacity="0.7" fill="white" d="M91.3146 108.988H98.7339L101.587 105.994V104.796L98.7339 101.802H92.456V95.8143H90.1731L87.8903 100.605H82.1831V104.796H89.0317L91.3146 108.988Z"></path>
<path fill-opacity="0.7" fill="white" d="M26.2529 49.7066H17.1215V57.4911H12.5557L7.4193 52.1018H3.42429L0 49.7066V45.515L3.42429 43.1198V40.7246L0 38.9282V35.3354L9.70216 29.3474H13.6972L21.1165 34.1378H29.6772L33.1015 32.9402H49.0815L51.9351 34.1378H62.7787V31.1438L60.4958 27.5509H54.7887L51.9351 28.7485H43.3744V25.1557L55.9301 21.5629H62.7787L66.7737 19.1677H70.198L71.9101 23.3593V32.9402H76.4759V28.7485L79.3295 26.3533H89.6023L103.87 37.1318V40.7246H101.017L97.0216 37.7306V40.7246L99.8752 43.1198V47.9102H97.0216L89.6023 40.7246V37.7306H87.3195L85.6073 32.9402H82.183L79.9002 37.7306V41.9222H83.3245V44.3174H73.6223L70.198 47.9102V52.1018L73.6223 55.0959H79.9002L82.183 62.8803H83.8952L85.6073 60.4851V49.7066L87.3195 44.3174H89.6023L97.0216 51.503H102.158V54.4971L106.724 57.4911V61.6827L103.87 64.0779H101.017V67.0719H106.724V69.4671L103.87 71.8623H98.1631L85.6073 92.2216L88.4609 97.6108H83.3245L79.3295 91.024H71.9101L69.0566 94.6168V98.8084L71.9101 104.198H73.6223L75.3344 103H79.3295V106.593L87.3195 113.778V117.97H83.3245L71.9101 107.79H65.6323L58.213 94.6168H55.3594V97.6108L58.213 103V105.395H55.9301L49.0815 94.6168V89.8264L40.5208 79.6468V75.4551L42.2329 71.8623V67.0719L35.9551 62.2815V54.4971H31.3894L26.2529 49.7066Z"></path>
<path fill-opacity="0.7" fill="white" d="M83.3244 23.9581H86.178H87.3194V16.1737L93.5973 10.1856H97.0216V12.5808H99.3044V10.7844L102.158 8.38922V5.99401H97.5923L95.3094 3H85.6072L82.183 5.99401H76.4758L71.3394 11.3832V16.1737L83.3244 23.9581Z"></path>
<path fill-opacity="0.7" fill="white" d="M140.967 36.533V40.7246L146.103 43.7186H148.386L151.24 40.7246V36.533H140.967Z"></path>
<path fill-opacity="0.7" fill="white" d="M93.5974 195.216H97.5924V190.425L101.587 186.832V180.246L105.582 176.653L118.709 165.276V161.084L127.27 152.701V144.916L133.548 135.335V133.539L128.411 128.15H125.557L120.421 131.144L116.997 128.15V124.557L101.587 111.383H97.0217L90.7438 114.976L87.8903 119.168V124.557L83.8953 131.144V135.335L88.461 138.329L97.5924 150.305V154.497L93.5974 165.276V178.449L91.8853 182.641V185.635L93.5974 187.431V195.216Z"></path>
<path fill-opacity="0.7" fill="white" d="M99.3046 195.814V203H101.587L103.87 196.413V192.222H101.587L99.3046 195.814Z"></path>
<path fill-opacity="0.7" fill="white" d="M162.083 62.2814L165.508 58.6886L162.083 49.1078H158.088L156.376 52.1018V58.6886L159.23 62.2814H162.083Z"></path>
<path fill-opacity="0.7" fill="white" d="M186.053 14.3772L191.761 13.7784V9.58682L190.619 8.38922H177.493L173.498 11.3832V17.3713H177.493V22.1617H181.488L184.341 17.9701L186.053 14.3772Z"></path>
<path fill-opacity="0.7" fill="white" d="M212.306 14.3772L224.862 10.7844V5.99401H223.15L211.165 9.58682L206.599 11.3832V14.3772H212.306Z"></path>
<path fill-opacity="0.7" fill="white" d="M221.438 26.3533L232.281 19.7665V15.5748H229.428L227.716 17.9701H222.579L215.731 22.7605V27.5509L218.014 29.9461H221.438V26.3533Z"></path>
<path fill-opacity="0.7" fill="white" d="M254.539 13.7784L260.246 11.3832V6.59281H258.534L250.544 10.1856V13.7784H254.539Z"></path>
<path fill-opacity="0.7" fill="white" d="M212.306 157.491H210.023L207.741 154.497V145.515L212.306 138.928H216.872V144.317L214.589 146.713V153.898L212.306 157.491Z"></path>
<path fill-opacity="0.7" fill="white" d="M270.519 125.754L275.085 128.748L279.08 123.359V114.976H277.939L270.519 122.76V125.754Z"></path>
<path fill-opacity="0.7" fill="white" d="M280.792 132.341H283.075L284.217 122.76H280.792V132.341Z"></path>
<path fill-opacity="0.7" fill="white" d="M307.045 134.737H310.469L311.04 132.94L305.333 126.952L300.197 125.754L293.919 122.76H287.641V129.347L295.631 128.748L297.914 133.539L303.621 132.94L307.045 134.737Z"></path>
<path fill-opacity="0.7" fill="white" d="M279.08 164.677L290.494 159.886H292.777L300.197 165.874H307.045L309.328 159.886V149.707L303.621 145.515V136.533H298.484V143.12H295.631V136.533L294.489 134.737H290.494L287.641 139.527H281.363L280.792 141.323L273.944 148.509V156.293L275.656 164.078L279.08 164.677Z"></path>
<path fill-opacity="0.7" fill="white" d="M322.454 179.048H327.02L333.298 169.467V167.072L329.874 159.886H326.449V162.281L328.162 166.473L322.454 173.659V179.048Z"></path>
<path fill-opacity="0.7" fill="white" d="M282.504 115.575H284.787L287.07 112.581V108.389L284.787 105.395V100.006H280.792V106.593L284.217 108.389V110.186L282.504 113.18V115.575Z"></path>
<path fill-opacity="0.7" fill="white" d="M293.348 80.2455V83.8383H300.197L305.904 77.8503V74.2575V62.2814H303.05L301.909 64.6766V75.4551L298.484 80.2455H293.348Z"></path>
<path fill-opacity="0.7" fill="white" d="M303.621 176.653H307.045V170.066H304.192L303.621 176.653Z"></path>
<rect fill="#FF8833" height="3" width="3" y="144" x="91"></rect>
<rect fill="#FF8833" height="3" width="3" y="141" x="88"></rect>
<rect fill="#FF8833" height="3" width="3" y="123" x="90"></rect>
<rect fill="#FF8833" height="3" width="3" y="121" x="87"></rect>
<rect fill="#FF8833" height="3" width="3" y="111" x="96"></rect>
<rect fill="#FF8833" height="3" width="3" y="121" x="102"></rect>
<rect fill="#FF8833" height="3" width="3" y="132" x="110"></rect>
<rect fill="#FF8833" height="3" width="3" y="142" x="108"></rect>
<rect fill="#FF8833" height="3" width="3" y="148" x="114"></rect>
<rect fill="#FF8833" height="3" width="3" y="171" x="101"></rect>
<rect fill="#FF8833" height="3" width="3" y="176" x="96"></rect>
<rect fill="#FF8833" height="3" width="3" y="168" x="96"></rect>
<rect fill="#FF8833" height="3" width="3" y="163" x="96"></rect>
<rect fill="#FF8833" height="3" width="3" y="144" x="120"></rect>
<rect fill="#FF8833" height="3" width="3" y="135" x="116"></rect>
<rect fill="#FF8833" height="3" width="3" y="128" x="117"></rect>
<rect fill="#FF8833" height="3" width="3" y="127" x="125"></rect>
<rect fill="#FF8833" height="3" width="3" y="96" x="59"></rect>
<rect fill="#FF8833" height="3" width="3" y="99" x="66"></rect>
<rect fill="#FF8833" height="3" width="3" y="102" x="61"></rect>
<rect fill="#FF8833" height="3" width="3" y="106" x="66"></rect>
<rect fill="#FF8833" height="3" width="3" y="98" x="56"></rect>
<rect fill="#FF8833" height="3" width="3" y="93" x="53"></rect>
<rect fill="#FF8833" height="3" width="3" y="88" x="59"></rect>
<rect fill="#FF8833" height="3" width="3" y="92" x="46"></rect>
<rect fill="#FF8833" height="3" width="3" y="85" x="48"></rect>
<rect fill="#FF8833" height="3" width="3" y="81" x="59"></rect>
<rect fill="#FF8833" height="3" width="3" y="78" x="68"></rect>
<rect fill="#FF8833" height="3" width="3" y="74" x="41"></rect>
<rect fill="#FF8833" height="3" width="3" y="70" x="45"></rect>
<rect fill="#FF8833" height="3" width="3" y="73" x="43"></rect>
<rect fill="#FF8833" height="3" width="3" y="71" x="43"></rect>
<rect fill="#FF8833" height="3" width="3" y="68" x="41"></rect>
<rect fill="#FF8833" height="3" width="3" y="60" x="43"></rect>
<rect fill="#FF8833" height="3" width="3" y="64" x="38"></rect>
<rect fill="#FF8833" height="3" width="3" y="47" x="20"></rect>
<rect fill="#FF8833" height="3" width="3" y="53" x="13"></rect>
<rect fill="#FF8833" height="3" width="3" y="47" x="5"></rect>
<rect fill="#FF8833" height="3" width="3" y="44" x="7"></rect>
<rect fill="#FF8833" height="3" width="3" y="63" x="97"></rect>
<rect fill="#FF8833" height="3" width="3" y="66" x="95"></rect>
<rect fill="#FF8833" height="3" width="3" y="61" x="95"></rect>
<rect fill="#FF8833" height="3" width="3" y="59" x="102"></rect>
<rect fill="#FF8833" height="3" width="3" y="56" x="103"></rect>
<rect fill="#FF8833" height="3" width="3" y="46" x="63"></rect>
<rect fill="#FF8833" height="3" width="3" y="50" x="60"></rect>
<rect fill="#FF8833" height="3" width="3" y="49" x="68"></rect>
<rect fill="#FF8833" height="3" width="3" y="53" x="23"></rect>
<rect fill="#FF8833" height="3" width="3" y="45" x="18"></rect>
<rect fill="#FF8833" height="3" width="3" y="49" x="8"></rect>
<rect fill="#FF8833" height="3" width="3" y="44"></rect>
<rect fill="#FF8833" height="3" width="3" y="28" x="6"></rect>
<rect fill="#FF8833" height="3" width="3" y="55" x="31"></rect>
<rect fill="#FF8833" height="3" width="3" y="52" x="26"></rect>
<rect fill="#FF8833" height="3" width="3" y="50" x="30"></rect>
<rect fill="#FF8833" height="3" width="3" y="46" x="28"></rect>
<rect fill="#FF8833" height="3" width="3" y="60" x="25"></rect>
<rect fill="#FF8833" height="3" width="3" y="62" x="46"></rect>
<rect fill="#FF8833" height="3" width="3" y="34" x="50"></rect>
<rect fill="#FF8833" height="3" width="3" y="30" x="46"></rect>
<rect fill="#FF8833" height="3" width="3" y="33" x="60"></rect>
<rect fill="#FF8833" height="3" width="3" y="45" x="51"></rect>
<rect fill="#FF8833" height="3" width="3" y="57" x="42"></rect>
<rect fill="#FF8833" height="3" width="3" y="71" x="38"></rect>
<rect fill="#FF8833" height="3" width="3" y="41" x="70"></rect>
<rect fill="#FF8833" height="3" width="3" y="24" x="85"></rect>
<rect fill="#FF8833" height="3" width="3" y="15" x="81"></rect>
<rect fill="#FF8833" height="3" width="3" y="13" x="75"></rect>
<rect fill="#FF8833" height="3" width="3" y="17" x="68"></rect>
<rect fill="#FF8833" height="3" width="3" y="4" x="82"></rect>
<rect fill="#FF8833" height="3" width="3" y="8" x="88"></rect>
<rect fill="#FF8833" height="3" width="3" x="94"></rect>
<rect fill="#FF8833" height="3" width="3" y="35" x="127"></rect>
<rect fill="#FF8833" height="3" width="3" y="32" x="120"></rect>
<rect fill="#FF8833" height="3" width="3" y="41" x="109"></rect>
<rect fill="#FF8833" height="3" width="3" y="36" x="112"></rect>
<rect fill="#FF8833" height="3" width="3" y="22" x="100"></rect>
<rect fill="#FF8833" height="3" width="3" y="18" x="106"></rect>
<rect fill="#FF8833" height="3" width="3" y="5" x="127"></rect>
<rect fill="#FF8833" height="3" width="3" y="2" x="121"></rect>
<rect fill="#FF8833" height="3" width="3" y="11" x="117"></rect>
<rect fill="#FF8833" height="3" width="3" y="9" x="134"></rect>
<rect fill="#FF8833" height="3" width="3" y="4" x="140"></rect>
<rect fill="#FF8833" height="3" width="3" y="10" x="146"></rect>
<rect fill="#FF8833" height="3" width="3" y="12" x="140"></rect>
<rect fill="#FF8833" height="3" width="3" y="37" x="147"></rect>
<rect fill="#FF8833" height="3" width="3" y="32" x="18"></rect>
<rect fill="#FF8833" height="3" width="3" y="48" x="55"></rect>
<rect fill="#FF8833" height="3" width="3" y="42" x="57"></rect>
<rect fill="#FF8833" height="3" width="3" y="61" x="40"></rect>
<rect fill="#FF8833" height="3" width="3" y="56" x="35"></rect>
<rect fill="#FF8833" height="3" width="3" y="51" x="40"></rect>
<rect fill="#FF8833" height="3" width="3" y="50" x="34"></rect>
<rect fill="#FF8833" height="3" width="3" y="49" x="26"></rect>
<rect fill="#FF8833" height="3" width="3" y="38" x="10"></rect>
<rect fill="#FF8833" height="3" width="3" y="34" x="12"></rect>
<rect fill="#FF8833" height="3" width="3" y="32" x="9"></rect>
<rect fill="#FF8833" height="3" width="3" y="30" x="12"></rect>
<rect fill="#FF8833" height="3" width="3" y="27" x="14"></rect>
<rect fill="#FF8833" height="3" width="3" y="45" x="32"></rect>
<rect fill="#FF8833" height="3" width="3" y="37" x="34"></rect>
<rect fill="#FF8833" height="3" width="3" y="39" x="48"></rect>
<rect fill="#FF8833" height="3" width="3" y="36" x="45"></rect>
<rect fill="#FF8833" height="3" width="3" y="31" x="51"></rect>
<rect fill="#FF8833" height="3" width="3" y="35" x="58"></rect>
<rect fill="#FF8833" height="3" width="3" y="43" x="69"></rect>
<rect fill="#FF8833" height="3" width="3" y="56" x="55"></rect>
<rect fill="#FF8833" height="3" width="3" y="63" x="40"></rect>
<rect fill="#FF8833" height="3" width="3" y="61" x="35"></rect>
<rect fill="#FF8833" height="3" width="3" y="59" x="32"></rect>
<rect fill="#FF8833" height="3" width="3" y="56" x="28"></rect>
<rect fill="#FF8833" height="3" width="3" y="52" x="33"></rect>
<rect fill="#FF8833" height="3" width="3" y="53" x="67"></rect>
<rect fill="#FF8833" height="3" width="3" y="56" x="64"></rect>
<rect fill="#FF8833" height="3" width="3" y="51" x="64"></rect>
<rect fill="#FF8833" height="3" width="3" y="54" x="61"></rect>
<rect fill="#FF8833" height="3" width="3" y="77" x="78"></rect>
<rect fill="#FF8833" height="3" width="3" y="50" x="71"></rect>
<rect fill="#FF8833" height="3" width="3" y="60" x="87"></rect>
<rect fill="#FF8833" height="3" width="3" y="55" x="98"></rect>
<rect fill="#FF8833" height="3" width="3" y="50" x="92"></rect>
<rect fill="#FF8833" height="3" width="3" y="49" x="98"></rect>
<rect fill="#FF8833" height="3" width="3" y="53" x="101"></rect>
<rect fill="#FF8833" height="3" width="3" y="69" x="100"></rect>
<rect fill="#FF8833" height="3" width="3" y="42" x="65"></rect>
<rect fill="#FF8833" height="3" width="3" y="92" x="66"></rect>
<rect fill="#FF8833" height="3" width="3" y="90" x="51"></rect>
<rect fill="#FF8833" height="3" width="3" y="86" x="43"></rect>
<rect fill="#FF8833" height="3" width="3" y="66" x="77"></rect>
<rect fill="#FF8833" height="3" width="3" y="61" x="69"></rect>
<rect fill="#FF8833" height="3" width="3" y="64" x="66"></rect>
<rect fill="#FF8833" height="3" width="3" y="71" x="72"></rect>
<rect fill="#FF8833" height="3" width="3" y="71" x="64"></rect>
<rect fill="#FF8833" height="3" width="3" y="78" x="75"></rect>
<rect fill="#FF8833" height="3" width="3" y="73" x="78"></rect>
<rect fill="#FF8833" height="3" width="3" y="76" x="83"></rect>
<rect fill="#FF8833" height="3" width="3" y="81" x="87"></rect>
<rect fill="#FF8833" height="3" width="3" y="86" x="81"></rect>
<rect fill="#FF8833" height="3" width="3" y="85" x="76"></rect>
<rect fill="#FF8833" height="3" width="3" y="74" x="88"></rect>
<rect fill="#FF8833" height="3" width="3" y="71" x="177"></rect>
<rect fill="#FF8833" height="3" width="3" y="74" x="172"></rect>
<rect fill="#FF8833" height="3" width="3" y="77" x="179"></rect>
<rect fill="#FF8833" height="3" width="3" y="69" x="162"></rect>
<rect fill="#FF8833" height="3" width="3" y="71" x="153"></rect>
<rect fill="#FF8833" height="3" width="3" y="65" x="162"></rect>
<rect fill="#FF8833" height="3" width="3" y="61" x="166"></rect>
<rect fill="#FF8833" height="3" width="3" y="58" x="157"></rect>
<rect fill="#FF8833" height="3" width="3" y="55" x="155"></rect>
<rect fill="#FF8833" height="3" width="3" y="53" x="160"></rect>
<rect fill="#FF8833" height="3" width="3" y="48" x="155"></rect>
<rect fill="#FF8833" height="3" width="3" y="49" x="160"></rect>
<rect fill="#FF8833" height="3" width="3" y="43" x="163"></rect>
<rect fill="#FF8833" height="3" width="3" y="40" x="180"></rect>
<rect fill="#FF8833" height="3" width="3" y="37" x="177"></rect>
<rect fill="#FF8833" height="3" width="3" y="32" x="181"></rect>
<rect fill="#FF8833" height="3" width="3" y="31" x="175"></rect>
<rect fill="#FF8833" height="3" width="3" y="28" x="183"></rect>
<rect fill="#FF8833" height="3" width="3" y="25" x="188"></rect>
<rect fill="#FF8833" height="3" width="3" y="31" x="190"></rect>
<rect fill="#FF8833" height="3" width="3" y="41" x="185"></rect>
<rect fill="#FF8833" height="3" width="3" y="47" x="176"></rect>
<rect fill="#FF8833" height="3" width="3" y="47" x="169"></rect>
<rect fill="#FF8833" height="3" width="3" y="52" x="172"></rect>
<rect fill="#FF8833" height="3" width="3" y="68" x="167"></rect>
<rect fill="#FF8833" height="3" width="3" y="66" x="157"></rect>
<rect fill="#FF8833" height="3" width="3" y="62" x="171"></rect>
<rect fill="#FF8833" height="3" width="3" y="58" x="176"></rect>
<rect fill="#FF8833" height="3" width="3" y="67" x="172"></rect>
<rect fill="#FF8833" height="3" width="3" y="63" x="177"></rect>
<rect fill="#FF8833" height="3" width="3" y="60" x="182"></rect>
<rect fill="#FF8833" height="3" width="3" y="55" x="184"></rect>
<rect fill="#FF8833" height="3" width="3" y="62" x="174"></rect>
<rect fill="#FF8833" height="3" width="3" y="66" x="182"></rect>
<rect fill="#FF8833" height="3" width="3" y="65" x="184"></rect>
<rect fill="#FF8833" height="3" width="3" y="70" x="183"></rect>
<rect fill="#FF8833" height="3" width="3" y="73" x="182"></rect>
<rect fill="#FF8833" height="3" width="3" y="69" x="178"></rect>
<rect fill="#FF8833" height="3" width="3" y="71" x="173"></rect>
<rect fill="#FF8833" height="3" width="3" y="67" x="185"></rect>
<rect fill="#FF8833" height="3" width="3" y="69" x="187"></rect>
<rect fill="#FF8833" height="3" width="3" y="65" x="167"></rect>
<rect fill="#FF8833" height="3" width="3" y="60" x="172"></rect>
<rect fill="#FF8833" height="3" width="3" y="62" x="159"></rect>
<rect fill="#FF8833" height="3" width="3" y="65" x="150"></rect>
<rect fill="#FF8833" height="3" width="3" y="76" x="164"></rect>
<rect fill="#FF8833" height="3" width="3" y="72" x="199"></rect>
<rect fill="#FF8833" height="3" width="3" y="74" x="186"></rect>
<rect fill="#FF8833" height="3" width="3" y="76" x="192"></rect>
<rect fill="#FF8833" height="3" width="3" y="63" x="195"></rect>
<rect fill="#FF8833" height="3" width="3" y="81" x="206"></rect>
<rect fill="#FF8833" height="3" width="3" y="78" x="203"></rect>
<rect fill="#FF8833" height="3" width="3" y="59" x="191"></rect>
<rect fill="#FF8833" height="3" width="3" y="56" x="193"></rect>
<rect fill="#FF8833" height="3" width="3" y="55" x="189"></rect>
<rect fill="#FF8833" height="3" width="3" y="45" x="191"></rect>
<rect fill="#FF8833" height="3" width="3" y="38" x="192"></rect>
<rect fill="#FF8833" height="3" width="3" y="64" x="209"></rect>
<rect fill="#FF8833" height="3" width="3" y="67" x="203"></rect>
<rect fill="#FF8833" height="3" width="3" y="70" x="209"></rect>
<rect fill="#FF8833" height="3" width="3" y="72" x="205"></rect>
<rect fill="#FF8833" height="3" width="3" y="93" x="165"></rect>
<rect fill="#FF8833" height="3" width="3" y="84" x="161"></rect>
<rect fill="#FF8833" height="3" width="3" y="84" x="156"></rect>
<rect fill="#FF8833" height="3" width="3" y="87" x="154"></rect>
<rect fill="#FF8833" height="3" width="3" y="90" x="160"></rect>
<rect fill="#FF8833" height="3" width="3" y="100" x="196"></rect>
<rect fill="#FF8833" height="3" width="3" y="102" x="192"></rect>
<rect fill="#FF8833" height="3" width="3" y="98" x="193"></rect>
<rect fill="#FF8833" height="3" width="3" y="109" x="192"></rect>
<rect fill="#FF8833" height="3" width="3" y="106" x="200"></rect>
<rect fill="#FF8833" height="3" width="3" y="84" x="165"></rect>
<rect fill="#FF8833" height="3" width="3" y="110" x="152"></rect>
<rect fill="#FF8833" height="3" width="3" y="104" x="151"></rect>
<rect fill="#FF8833" height="3" width="3" y="104" x="157"></rect>
<rect fill="#FF8833" height="3" width="3" y="97" x="153"></rect>
<rect fill="#FF8833" height="3" width="3" y="111" x="178"></rect>
<rect fill="#FF8833" height="3" width="3" y="117" x="172"></rect>
<rect fill="#FF8833" height="3" width="3" y="119" x="179"></rect>
<rect fill="#FF8833" height="3" width="3" y="97" x="184"></rect>
<rect fill="#FF8833" height="3" width="3" y="101" x="202"></rect>
<rect fill="#FF8833" height="3" width="3" y="96" x="205"></rect>
<rect fill="#FF8833" height="3" width="3" y="89" x="199"></rect>
<rect fill="#FF8833" height="3" width="3" y="96" x="214"></rect>
<rect fill="#FF8833" height="3" width="3" y="102" x="213"></rect>
<rect fill="#FF8833" height="3" width="3" y="106" x="211"></rect>
<rect fill="#FF8833" height="3" width="3" y="104" x="215"></rect>
<rect fill="#FF8833" height="3" width="3" y="98" x="218"></rect>
<rect fill="#FF8833" height="3" width="3" y="91" x="215"></rect>
<rect fill="#FF8833" height="3" width="3" y="93" x="190"></rect>
<rect fill="#FF8833" height="3" width="3" y="122" x="160"></rect>
<rect fill="#FF8833" height="3" width="3" y="140" x="187"></rect>
<rect fill="#FF8833" height="3" width="3" y="160" x="179"></rect>
<rect fill="#FF8833" height="3" width="3" y="164" x="185"></rect>
<rect fill="#FF8833" height="3" width="3" y="168" x="188"></rect>
<rect fill="#FF8833" height="3" width="3" y="165" x="191"></rect>
<rect fill="#FF8833" height="3" width="3" y="160" x="194"></rect>
<rect fill="#FF8833" height="3" width="3" y="157" x="192"></rect>
<rect fill="#FF8833" height="3" width="3" y="154" x="193"></rect>
<rect fill="#FF8833" height="3" width="3" y="155" x="188"></rect>
<rect fill="#FF8833" height="3" width="3" y="153" x="181"></rect>
<rect fill="#FF8833" height="3" width="3" y="158" x="185"></rect>
<rect fill="#FF8833" height="3" width="3" y="139" x="202"></rect>
<rect fill="#FF8833" height="3" width="3" y="133" x="199"></rect>
<rect fill="#FF8833" height="3" width="3" y="60" x="195"></rect>
<rect fill="#FF8833" height="3" width="3" y="57" x="199"></rect>
<rect fill="#FF8833" height="3" width="3" y="53" x="196"></rect>
<rect fill="#FF8833" height="3" width="3" y="64" x="174"></rect>
<rect fill="#FF8833" height="3" width="3" y="70" x="165"></rect>
<rect fill="#FF8833" height="3" width="3" y="71" x="161"></rect>
<rect fill="#FF8833" height="3" width="3" y="79" x="157"></rect>
<rect fill="#FF8833" height="3" width="3" y="76" x="158"></rect>
<rect fill="#FF8833" height="3" width="3" y="73" x="155"></rect>
<rect fill="#FF8833" height="3" width="3" y="71" x="157"></rect>
<rect fill="#FF8833" height="3" width="3" y="74" x="160"></rect>
<rect fill="#FF8833" height="3" width="3" y="67" x="158"></rect>
<rect fill="#FF8833" height="3" width="3" y="75" x="152"></rect>
<rect fill="#FF8833" height="3" width="3" y="78" x="163"></rect>
<rect fill="#FF8833" height="3" width="3" y="64" x="174"></rect>
<rect fill="#FF8833" height="3" width="3" y="70" x="90"></rect>
<rect fill="#FF8833" height="3" width="3" y="71" x="85"></rect>
<rect fill="#FF8833" height="3" width="3" y="64" x="84"></rect>
<rect fill="#FF8833" height="3" width="3" y="86" x="47"></rect>
<rect fill="#FF8833" height="3" width="3" y="88" x="47"></rect>
<rect fill="#FF8833" height="3" width="3" y="96" x="55"></rect>
<rect fill="#FF8833" height="3" width="3" y="82" x="52"></rect>
<rect fill="#FF8833" height="3" width="3" y="85" x="48"></rect>
<rect fill="#FF8833" height="3" width="3" y="78" x="95"></rect>
<rect fill="#FF8833" height="3" width="3" y="82" x="90"></rect>
<rect fill="#FF8833" height="3" width="3" y="90" x="84"></rect>
<rect fill="#FF8833" height="3" width="3" y="83" x="83"></rect>
<rect fill="#FF8833" height="3" width="3" y="97" x="243"></rect>
<rect fill="#FF8833" height="3" width="3" y="91" x="258"></rect>
<rect fill="#FF8833" height="3" width="3" y="83" x="280"></rect>
<rect fill="#FF8833" height="3" width="3" y="77" x="284"></rect>
<rect fill="#FF8833" height="3" width="3" y="79" x="286"></rect>
<rect fill="#FF8833" height="3" width="3" y="81" x="284"></rect>
<rect fill="#FF8833" height="3" width="3" y="82" x="287"></rect>
<rect fill="#FF8833" height="3" width="3" y="84" x="286"></rect>
<rect fill="#FF8833" height="3" width="3" y="76" x="300"></rect>
<rect fill="#FF8833" height="3" width="3" y="73" x="298"></rect>
<rect fill="#FF8833" height="3" width="3" y="72" x="301"></rect>
<rect fill="#FF8833" height="3" width="3" y="64" x="301"></rect>
<rect fill="#FF8833" height="3" width="3" y="60" x="304"></rect>
<rect fill="#FF8833" height="3" width="3" y="56" x="289"></rect>
<rect fill="#FF8833" height="3" width="3" y="62" x="264"></rect>
<rect fill="#FF8833" height="3" width="3" y="71" x="289"></rect>
<rect fill="#FF8833" height="3" width="3" y="69" x="283"></rect>
<rect fill="#FF8833" height="3" width="3" y="66" x="286"></rect>
<rect fill="#FF8833" height="3" width="3" y="82" x="251"></rect>
<rect fill="#FF8833" height="3" width="3" y="110" x="239"></rect>
<rect fill="#FF8833" height="3" width="3" y="113" x="242"></rect>
<rect fill="#FF8833" height="3" width="3" y="117" x="241"></rect>
<rect fill="#FF8833" height="3" width="3" y="115" x="245"></rect>
<rect fill="#FF8833" height="3" width="3" y="99" x="233"></rect>
<rect fill="#FF8833" height="3" width="3" y="95" x="237"></rect>
<rect fill="#FF8833" height="3" width="3" y="100" x="244"></rect>
<rect fill="#FF8833" height="3" width="3" y="90" x="241"></rect>
<rect fill="#FF8833" height="3" width="3" y="86" x="246"></rect>
<rect fill="#FF8833" height="3" width="3" y="78" x="274"></rect>
<rect fill="#FF8833" height="3" width="3" y="106" x="234"></rect>
<rect fill="#FF8833" height="3" width="3" y="95" x="267"></rect>
<rect fill="#FF8833" height="3" width="3" y="100" x="261"></rect>
<rect fill="#FF8833" height="3" width="3" y="99" x="256"></rect>
<rect fill="#FF8833" height="3" width="3" y="85" x="265"></rect>
<rect fill="#FF8833" height="3" width="3" y="78" x="264"></rect>
<rect fill="#FF8833" height="3" width="3" y="92" x="275"></rect>
<rect fill="#FF8833" height="3" width="3" y="96" x="270"></rect>
<rect fill="#FF8833" height="3" width="3" y="104" x="264"></rect>
<rect fill="#FF8833" height="3" width="3" y="109" x="259"></rect>
<rect fill="#FF8833" height="3" width="3" y="121" x="262"></rect>
<rect fill="#FF8833" height="3" width="3" y="126" x="259"></rect>
<rect fill="#FF8833" height="3" width="3" y="131" x="266"></rect>
<rect fill="#FF8833" height="3" width="3" y="132" x="272"></rect>
<rect fill="#FF8833" height="3" width="3" y="127" x="269"></rect>
<rect fill="#FF8833" height="3" width="3" y="119" x="273"></rect>
<rect fill="#FF8833" height="3" width="3" y="110" x="282"></rect>
<rect fill="#FF8833" height="3" width="3" y="102" x="283"></rect>
<rect fill="#FF8833" height="3" width="3" y="98" x="279"></rect>
<rect fill="#FF8833" height="3" width="3" y="97" x="263"></rect>
<rect fill="#FF8833" height="3" width="3" y="88" x="231"></rect>
<rect fill="#FF8833" height="3" width="3" y="86" x="276"></rect>
<rect fill="#FF8833" height="3" width="3" y="93" x="216"></rect>
<rect fill="#FF8833" height="3" width="3" y="87" x="214"></rect>
<rect fill="#FF8833" height="3" width="3" y="83" x="219"></rect>
<rect fill="#FF8833" height="3" width="3" y="92" x="223"></rect>
<rect fill="#FF8833" height="3" width="3" y="75" x="219"></rect>
<rect fill="#FF8833" height="3" width="3" y="84" x="233"></rect>
<rect fill="#FF8833" height="3" width="3" y="87" x="236"></rect>
<rect fill="#FF8833" height="3" width="3" y="92" x="240"></rect>
<rect fill="#FF8833" height="3" width="3" y="97" x="234"></rect>
<rect fill="#FF8833" height="3" width="3" y="96" x="229"></rect>
<rect fill="#FF8833" height="3" width="3" y="77" x="244"></rect>
<rect fill="#FF8833" height="3" width="3" y="70" x="251"></rect>
<rect fill="#FF8833" height="3" width="3" y="75" x="254"></rect>
<rect fill="#FF8833" height="3" width="3" y="94" x="245"></rect>
<rect fill="#FF8833" height="3" width="3" y="89" x="248"></rect>
<rect fill="#FF8833" height="3" width="3" y="94" x="242"></rect>
<rect fill="#FF8833" height="3" width="3" y="91" x="244"></rect>
<rect fill="#FF8833" height="3" width="3" y="98" x="252"></rect>
<rect fill="#FF8833" height="3" width="3" y="101" x="237"></rect>
<rect fill="#FF8833" height="3" width="3" y="92" x="235"></rect>
<rect fill="#FF8833" height="3" width="3" y="150" x="275"></rect>
<rect fill="#FF8833" height="3" width="3" y="148" x="306"></rect>
<rect fill="#FF8833" height="3" width="3" y="157" x="274"></rect>
<rect fill="#FF8833" height="3" width="3" y="151" x="272"></rect>
<rect fill="#FF8833" height="3" width="3" y="147" x="277"></rect>
<rect fill="#FF8833" height="3" width="3" y="134" x="288"></rect>
<rect fill="#FF8833" height="3" width="3" y="139" x="277"></rect>
<rect fill="#FF8833" height="3" width="3" y="146" x="283"></rect>
<rect fill="#FF8833" height="3" width="3" y="146" x="275"></rect>
<rect fill="#FF8833" height="3" width="3" y="148" x="289"></rect>
<rect fill="#FF8833" height="3" width="3" y="151" x="294"></rect>
<rect fill="#FF8833" height="3" width="3" y="156" x="298"></rect>
<rect fill="#FF8833" height="3" width="3" y="162" x="299"></rect>
<rect fill="#FF8833" height="3" width="3" y="178" x="324"></rect>
<rect fill="#FF8833" height="3" width="3" y="171" x="324"></rect>
<rect fill="#FF8833" height="3" width="3" y="170" x="327"></rect>
<rect fill="#FF8833" height="3" width="3" y="163" x="328"></rect>
<rect fill="#FF8833" height="3" width="3" y="158" x="326"></rect>
<rect fill="#FF8833" height="3" width="3" y="147" x="299"></rect>
<rect fill="#FF8833" height="3" width="3" y="152" x="276"></rect>
<rect fill="#FF8833" height="3" width="3" y="155" x="275"></rect>
<rect fill="#FF8833" height="3" width="3" y="154" x="271"></rect>
<rect fill="#FF8833" height="3" width="3" y="159" x="301"></rect>
<rect fill="#FF8833" height="3" width="3" y="162" x="304"></rect>
<rect fill="#FF8833" height="3" width="3" y="159" x="304"></rect>
<rect fill="#FF8833" height="3" width="3" y="161" x="307"></rect>
<rect fill="#FF8833" height="3" width="3" y="164" x="305"></rect>
<rect fill="#FF8833" height="3" width="3" y="145" x="301"></rect>
<rect fill="#FF8833" height="3" width="3" y="146" x="296"></rect>
<rect fill="#FF8833" height="3" width="3" y="139" x="295"></rect>
<rect fill="#FF8833" height="3" width="3" y="153" x="306"></rect>
<rect fill="#FF8833" height="3" width="3" y="157" x="301"></rect>
<rect fill="#FF8833" height="3" width="3" y="158" x="289"></rect>
<rect fill="#FF8833" height="3" width="3" y="158" x="294"></rect>
<rect fill="#FF8833" transform="rotate(-90 296 133)" height="3" width="3" y="133" x="296"></rect>
<rect fill="#FF8833" transform="rotate(-90 283.5 130.5)" height="3" width="3" y="130.5" x="283.5"></rect>
<rect fill="#FF8833" transform="rotate(-90 296.5 167.5)" height="3" width="3" y="167.5" x="296.5"></rect>
<rect fill="#FF8833" transform="rotate(-90 277 166)" height="3" width="3" y="166" x="277"></rect>
<rect fill="#FF8833" transform="rotate(-90 279 157)" height="3" width="3" y="157" x="279"></rect>
<rect fill="#FF8833" transform="rotate(-90 277 159)" height="3" width="3" y="159" x="277"></rect>
<rect fill="#FF8833" transform="rotate(-90 292.5 155.5)" height="3" width="3" y="155.5" x="292.5"></rect>
<rect fill="#FF8833" transform="rotate(-90 287.5 152.5)" height="3" width="3" y="152.5" x="287.5"></rect>
<rect fill="#FF8833" transform="rotate(-90 290 127)" height="3" width="3" y="127" x="290"></rect>
<rect fill="#FF8833" transform="rotate(-90 305 133)" height="3" width="3" y="133" x="305"></rect>
<rect fill="#FF8833" transform="rotate(-90 301 131)" height="3" width="3" y="131" x="301"></rect>
<rect fill="#FF8833" transform="rotate(-90 302 156)" height="3" width="3" y="156" x="302"></rect>
<rect fill="#FF8833" transform="rotate(-90 288.5 142.5)" height="3" width="3" y="142.5" x="288.5"></rect>
<rect fill="#FF8833" transform="rotate(-90 284.5 140.5)" height="3" width="3" y="140.5" x="284.5"></rect>
<rect fill="#FF8833" transform="rotate(-90 285.5 145.5)" height="3" width="3" y="145.5" x="285.5"></rect>
<rect fill="#FF8833" transform="rotate(-90 278.5 146.5)" height="3" width="3" y="146.5" x="278.5"></rect>
<rect fill="#FF8833" transform="rotate(-90 292.5 135.5)" height="3" width="3" y="135.5" x="292.5"></rect>
<rect fill="#FF8833" transform="rotate(-90 296.5 140.5)" height="3" width="3" y="140.5" x="296.5"></rect>
<rect fill="#FF8833" transform="rotate(-90 301 143)" height="3" width="3" y="143" x="301"></rect>
<rect fill="#FF8833" transform="rotate(-90 297.5 147.5)" height="3" width="3" y="147.5" x="297.5"></rect>
<rect fill="#FF8833" height="3" width="3" y="145" x="110"></rect>
<rect fill="#FF8833" height="3" width="3" y="136" x="122"></rect>
<rect fill="#FF8833" height="3" width="3" y="114" x="105"></rect>
</svg>
